<svg width="1849" height="1105" viewBox="0 0 1849 1105" fill="none" xmlns="http://www.w3.org/2000/svg">
<path d="M583.091 79.9331C577.34 81.3438 572.184 83.9144 567.782 87.3251C566.239 88.5198 564.556 89.5091 562.764 90.2411L542.812 8.91711C541.343 2.93044 535.299 -0.732221 529.312 0.737112L444.694 21.4971L447.05 31.0998C447.595 33.3198 448.574 35.4038 449.91 37.2571C452.596 40.9838 454.64 45.2638 455.803 49.9998C460.792 70.3371 447.923 90.8744 427.203 95.0904C408.946 98.8064 390.319 87.8878 384.63 70.1464C382.626 63.8944 382.396 57.5744 383.586 51.6464C384.118 48.9971 384.131 46.2758 383.487 43.6531L381.836 36.9198L296.039 57.6811C288.687 59.4851 284.19 66.9064 285.994 74.2584L304.416 149.7L298.571 151.134C297.908 151.296 297.23 151.444 296.547 151.56C288.015 148.053 278.339 147.116 268.695 149.481C244.504 155.416 229.707 179.837 235.642 204.026C241.576 228.216 265.996 243.014 290.187 237.078C298.098 235.138 304.995 231.21 310.5 225.969C311.603 225.433 312.756 225.004 313.955 224.709L321.455 222.869L342.108 307.048C343.912 314.4 351.334 318.897 358.686 317.093L592.835 259.645C598.822 258.176 602.484 252.132 601.016 246.145L579.987 160.437C581.519 160.444 583.052 160.62 584.563 160.945C592.582 162.673 601.262 162.058 609.679 158.402C626.384 151.145 636.415 133.242 634 115.082C630.675 90.0918 606.747 74.1291 583.091 79.9331Z" fill="#ECECEC"/>
<path d="M1625.74 529.566C1629.13 531.138 1632.68 531.906 1636.19 531.963C1637.41 531.983 1638.63 532.159 1639.8 532.506L1617.57 580.373C1615.93 583.898 1617.46 588.081 1620.98 589.717L1670.79 612.853L1673.42 607.201C1674.02 605.895 1674.36 604.483 1674.44 603.045C1674.58 600.153 1675.26 597.242 1676.56 594.455C1682.12 582.483 1696.54 577.454 1708.4 583.545C1718.84 588.913 1723.7 601.625 1719.51 612.594C1718.03 616.458 1715.65 619.658 1712.73 622.105C1711.43 623.199 1710.35 624.531 1709.63 626.075L1707.79 630.038L1758.17 653.638C1762.5 655.649 1767.64 653.77 1769.65 649.443L1790.32 605.073L1793.76 606.671C1794.15 606.851 1794.54 607.046 1794.92 607.259C1797.74 612.346 1802.13 616.622 1807.8 619.258C1822.04 625.871 1838.95 619.691 1845.56 605.453C1852.17 591.215 1845.99 574.311 1831.75 567.698C1827.1 565.535 1822.16 564.749 1817.38 565.157C1816.63 564.986 1815.89 564.743 1815.19 564.415L1810.77 562.365L1833.79 512.818C1835.8 508.49 1833.92 503.353 1829.59 501.343L1691.77 437.325C1688.25 435.687 1684.06 437.218 1682.43 440.741L1658.99 491.189C1658.24 490.582 1657.56 489.891 1656.94 489.135C1653.68 485.126 1649.17 482.007 1643.59 480.489C1632.51 477.475 1620.52 482.327 1614.55 492.213C1606.34 505.817 1611.82 523.098 1625.74 529.566Z" fill="#ECECEC"/>
<path d="M1710.04 1065.56C1712.24 1063.64 1713.91 1061.34 1715.07 1058.84C1715.47 1057.96 1715.99 1057.15 1716.61 1056.42L1743.86 1087.55C1745.86 1089.84 1749.35 1090.07 1751.64 1088.07L1784.03 1059.71L1780.81 1056.04C1780.07 1055.19 1779.16 1054.5 1778.16 1053.99C1776.13 1052.96 1774.26 1051.55 1772.67 1049.74C1765.86 1041.95 1766.83 1030.02 1774.96 1023.46C1782.12 1017.67 1792.78 1018.22 1799.31 1024.71C1801.61 1027 1803.15 1029.72 1803.97 1032.59C1804.34 1033.87 1804.96 1035.07 1805.84 1036.07L1808.09 1038.65L1841 1010.03C1843.81 1007.56 1844.1 1003.29 1841.63 1000.47L1816.39 971.573L1818.63 969.614C1818.88 969.393 1819.15 969.174 1819.42 968.967C1823.96 968.565 1828.42 966.774 1832.11 963.542C1841.37 955.437 1842.3 941.361 1834.2 932.101C1826.09 922.842 1812.02 921.906 1802.76 930.011C1799.73 932.662 1797.6 935.954 1796.37 939.506C1796.01 939.991 1795.6 940.442 1795.15 940.843L1792.28 943.357L1764.07 911.134C1761.6 908.319 1757.33 908.035 1754.51 910.499L1664.88 988.959C1662.59 990.965 1662.36 994.45 1664.36 996.741L1693.08 1029.55C1692.41 1029.9 1691.7 1030.17 1690.96 1030.37C1687.05 1031.43 1683.38 1033.68 1680.52 1037.2C1674.85 1044.18 1674.52 1054.31 1679.71 1061.73C1686.85 1071.93 1700.98 1073.49 1710.04 1065.56Z" fill="#F5F5F5"/>
<path d="M1390.51 137.94C1386.01 136.692 1381.48 136.471 1377.13 137.118C1375.61 137.343 1374.07 137.375 1372.56 137.187L1390.21 73.5764C1391.51 68.8924 1388.77 64.043 1384.09 62.7444L1317.9 44.375L1315.81 51.8857C1315.33 53.623 1315.2 55.4337 1315.41 57.223C1315.82 60.8217 1315.57 64.5524 1314.54 68.2577C1310.13 84.1644 1293.36 93.3204 1277.48 88.227C1263.5 83.739 1254.9 69.0457 1257.84 54.6537C1258.87 49.5804 1261.15 45.147 1264.25 41.531C1265.64 39.915 1266.7 38.0497 1267.27 35.9964L1268.73 30.731L1201.73 11.9084C1195.98 10.3124 1190.03 13.6804 1188.43 19.431L1172 78.407L1167.43 77.1377C1166.91 76.9937 1166.38 76.8324 1165.87 76.6484C1161.36 70.947 1155.06 66.5697 1147.52 64.4764C1128.6 59.2244 1109.01 70.307 1103.75 89.227C1098.5 108.148 1109.59 127.743 1128.51 132.994C1134.69 134.711 1140.95 134.671 1146.76 133.191C1147.72 133.248 1148.68 133.398 1149.62 133.658L1155.49 135.286L1137.21 201.13C1135.62 206.88 1138.99 212.835 1144.74 214.431L1327.89 265.258C1332.57 266.558 1337.42 263.815 1338.72 259.132L1357.32 192.094C1358.37 192.688 1359.36 193.4 1360.27 194.207C1365.12 198.488 1371.32 201.415 1378.52 202.148C1392.81 203.602 1406.61 195.163 1411.95 181.746C1419.31 163.28 1409.01 143.076 1390.51 137.94Z" fill="#F5F5F5"/>
<path d="M20.1867 823.042C24.296 824.572 28.5227 825.144 32.6387 824.89C34.08 824.8 35.5227 824.895 36.924 825.192L15.284 883.296C13.6907 887.574 15.8667 892.334 20.144 893.926L80.6013 916.443L83.1573 909.583C83.748 907.996 84.016 906.314 83.9693 904.622C83.8747 901.222 84.4067 897.75 85.6667 894.366C91.0787 879.835 107.509 872.618 121.952 878.662C134.677 883.988 141.539 898.43 137.635 911.66C136.26 916.324 133.769 920.29 130.572 923.424C129.144 924.824 128.003 926.486 127.304 928.359L125.513 933.17L186.692 956.178C191.944 958.134 197.788 955.462 199.744 950.208L219.873 896.344L224.049 897.9C224.523 898.076 224.999 898.268 225.467 898.483C229.231 904.18 234.765 908.784 241.656 911.35C258.937 917.787 278.167 908.995 284.604 891.712C291.04 874.43 282.248 855.202 264.965 848.764C259.312 846.659 253.453 846.192 247.9 847.11C247.003 846.979 246.117 846.762 245.261 846.443L239.903 844.447L262.303 784.303C264.259 779.051 261.587 773.207 256.335 771.251L89.04 708.943C84.7627 707.35 80.004 709.526 78.4107 713.803L55.604 775.04C54.6693 774.398 53.8027 773.652 53.0133 772.823C48.8227 768.427 43.252 765.188 36.576 763.924C23.3253 761.412 9.72932 768.198 3.64799 780.324C-4.72135 797.011 3.28532 816.747 20.1867 823.042Z" fill="#F5F5F5"/>
<path d="M894.725 693.038C909.658 692.003 922.578 696.05 935.06 701.87C940.636 704.471 947.2 706.351 953.36 706.351L969.7 705.978L969.892 524.338C969.892 507.183 955.901 493.276 938.641 493.276L765.977 493.915V490.191C765.977 482.895 767.846 475.771 771.042 469.203C779.418 451.99 782.854 431.975 779.246 410.862C772.086 368.963 737.09 336.272 694.585 331.648C636.093 325.286 586.608 370.644 586.608 427.488C586.608 441.308 589.568 454.426 594.849 466.299C597.582 472.446 599.165 479.03 599.165 485.75L600.186 493.915H589.725H392.094C374.834 493.915 360.842 507.822 360.842 524.976V702.579H346.002C339.098 702.579 332.358 700.81 326.142 697.786C309.854 689.86 289.894 686.61 269.917 690.023C230.27 696.798 199.337 729.912 194.962 770.132C188.941 825.48 231.861 872.306 285.65 872.306C298.726 872.306 311.138 869.504 322.374 864.508C328.189 861.922 334.42 860.423 340.778 860.423H359.822L360.202 1077.67C360.202 1091.64 371.597 1102.96 385.652 1102.96H942.609C956.665 1102.96 967.678 1085.32 967.678 1071.35V873.896H945.133C939.922 873.896 934.776 874.923 929.945 876.864C920.234 880.767 909.644 882.954 898.524 882.954C850.777 882.954 812.292 843.539 814.212 795.66C815.902 753.47 852.345 695.978 894.725 693.038Z" fill="#E1E1E1"/>
<path d="M894.725 693.038C894.725 693.038 894.231 693.113 893.251 693.23C892.273 693.357 890.798 693.463 888.887 693.889C885.058 694.607 879.37 696.163 872.549 699.698C858.959 706.631 841.127 722.473 827.701 748.919C821.177 762.078 815.283 777.927 814.501 796.058C814.265 805.097 815.426 814.579 818.343 823.975C821.261 833.359 826.009 842.629 832.641 850.945C839.266 859.249 847.753 866.607 857.742 872.106C867.717 877.606 879.195 881.207 891.299 882.197C903.39 883.365 916.109 881.667 928.151 877.123C934.081 874.525 940.799 873.191 947.466 873.475C954.114 873.473 960.851 873.469 967.677 873.465H968.109V873.897C968.125 905.121 968.142 938.322 968.159 973.355C968.167 990.873 968.175 1008.85 968.183 1027.26C968.187 1036.47 968.191 1045.79 968.195 1055.22C968.197 1059.93 968.198 1064.67 968.201 1069.44C968.25 1071.8 968.105 1074.28 967.713 1076.67C967.237 1079.05 966.641 1081.43 965.718 1083.69C963.971 1088.25 961.398 1092.54 957.955 1096.11C954.591 1099.72 950.106 1102.53 945.061 1103.31C942.495 1103.6 940.071 1103.47 937.586 1103.5C935.111 1103.5 932.63 1103.5 930.142 1103.51C925.166 1103.51 920.165 1103.51 915.139 1103.51C895.033 1103.52 874.522 1103.52 853.625 1103.53C811.83 1103.54 768.489 1103.56 723.743 1103.57C634.251 1103.58 539.145 1103.6 439.567 1103.62C427.119 1103.62 414.602 1103.63 402.018 1103.63C395.697 1103.57 389.479 1103.76 383.027 1103.5C376.558 1102.86 370.365 1099.7 366.054 1094.8C361.681 1089.94 359.366 1083.31 359.526 1076.8C359.514 1070.4 359.502 1064 359.49 1057.58C359.466 1044.73 359.442 1031.82 359.418 1018.85C359.323 966.967 359.226 914.113 359.129 860.425L359.822 861.117H347.944C343.97 861.182 339.964 860.938 336.078 861.393C332.17 861.851 328.318 862.858 324.629 864.317C320.984 865.861 317.189 867.511 313.305 868.698C297.78 873.719 280.699 874.326 264.529 870.483C248.429 866.498 233.038 858.39 221.205 846.317C215.045 840.527 210.154 833.519 205.785 826.282C203.898 822.489 201.714 818.822 200.353 814.781C199.622 812.789 198.725 810.849 198.13 808.809L196.453 802.649C191.574 782.406 193.397 760.582 202.105 741.798C210.675 722.971 225.742 707.37 243.933 698.051C253.017 693.349 262.897 690.351 272.946 688.866C283.015 687.491 293.27 687.738 303.204 689.575C308.169 690.499 313.054 691.818 317.79 693.529C320.157 694.387 322.497 695.322 324.774 696.39C327.079 697.451 329.24 698.519 331.584 699.318C340.842 702.971 350.964 701.638 360.842 701.889L360.152 702.579C360.156 664.166 360.158 626.229 360.161 588.819C360.163 570.115 360.166 551.543 360.168 533.111C360.26 528.523 359.873 523.894 360.718 519.225C361.531 514.601 363.461 510.202 366.222 506.438C371.686 498.85 380.581 493.886 389.86 493.359C462.46 493.333 532.717 493.307 600.185 493.283L599.558 493.994C599.209 491.193 598.874 488.509 598.539 485.827L598.534 485.789V485.749C598.537 480.755 597.638 475.789 596.045 471.082C595.265 468.717 594.231 466.475 593.241 464.133C592.279 461.797 591.419 459.427 590.637 457.035C587.535 447.455 585.99 437.45 585.99 427.515L586.391 420.089C586.485 418.855 586.472 417.611 586.652 416.39L587.251 412.735C587.707 410.314 587.922 407.843 588.578 405.473L590.543 398.377C590.825 397.181 591.255 396.037 591.727 394.906L593.075 391.497C593.959 389.221 594.819 386.937 596.038 384.822L599.422 378.371L603.429 372.317C609.045 364.491 615.491 357.225 623.118 351.497L625.893 349.254L628.866 347.294C630.863 346.018 632.813 344.665 634.841 343.459C639.073 341.361 643.135 338.93 647.598 337.43C656.257 333.77 665.497 331.966 674.649 330.95C679.261 330.75 683.854 330.265 688.429 330.733C690.713 330.886 693.003 330.927 695.269 331.173C697.526 331.514 699.778 331.855 702.025 332.195C719.863 335.691 736.442 343.989 749.405 355.882C762.366 367.731 772.065 382.773 776.902 399.049C781.986 415.25 782.403 432.457 778.875 448.377C777.101 456.337 774.234 463.991 770.717 471.113C769.115 474.713 767.91 478.469 767.207 482.301C766.449 486.141 766.441 490.003 766.474 493.915L765.974 493.418C812.802 493.267 856.674 493.126 897.327 492.995C907.49 492.963 917.453 492.933 927.209 492.902C929.649 492.895 932.074 492.887 934.489 492.879C936.898 492.855 939.299 492.849 941.726 493.023C946.545 493.485 951.177 495.102 955.206 497.566C963.357 502.45 968.741 511.047 969.937 519.989C970.499 524.495 970.178 528.889 970.255 533.242C970.247 537.594 970.239 541.893 970.233 546.137C970.093 614.037 969.982 668.013 969.903 705.978V706.179L969.703 706.182C963.119 706.271 956.999 706.577 951.27 706.459C945.537 706.043 940.418 704.406 935.979 702.457C927.222 698.302 919.621 695.725 913.406 694.453C907.195 693.161 902.473 692.959 899.365 692.942C897.809 692.926 896.649 692.971 895.878 693.009C895.107 693.038 894.725 693.038 894.725 693.038C894.725 693.038 896.247 692.851 899.365 692.835C902.477 692.818 907.213 692.985 913.449 694.246C919.683 695.487 927.331 698.046 936.105 702.174C940.523 704.095 945.619 705.705 951.293 706.099C956.967 706.199 963.125 705.878 969.694 705.773L969.494 705.978C969.497 668.013 969.501 614.035 969.506 546.137C969.507 541.893 969.509 537.594 969.51 533.242C969.43 528.903 969.735 524.442 969.181 520.094C968.003 511.374 962.741 502.998 954.789 498.249C950.858 495.85 946.345 494.281 941.647 493.835C939.307 493.671 936.907 493.677 934.49 493.705C932.077 493.714 929.65 493.725 927.211 493.735C917.454 493.778 907.493 493.819 897.329 493.863C856.677 494.034 812.806 494.218 765.978 494.414L765.483 494.415L765.478 493.915C765.441 490.045 765.446 486.03 766.219 482.119C766.933 478.203 768.161 474.369 769.79 470.701C773.309 463.551 776.106 456.047 777.866 448.15C781.342 432.407 780.915 415.373 775.877 399.363C771.083 383.277 761.482 368.411 748.658 356.705C735.834 344.953 719.439 336.763 701.813 333.319C699.593 332.985 697.367 332.649 695.138 332.313C692.898 332.071 690.633 332.034 688.374 331.885C683.851 331.421 679.311 331.909 674.754 332.105C665.711 333.118 656.582 334.901 648.03 338.525C643.622 340.006 639.613 342.414 635.431 344.486C633.427 345.678 631.505 347.017 629.531 348.279L626.594 350.214L623.855 352.433C616.322 358.093 609.962 365.278 604.419 373.007L600.465 378.987L597.126 385.361C595.922 387.449 595.077 389.703 594.205 391.953L592.876 395.318C592.409 396.433 591.985 397.565 591.707 398.745L589.77 405.751C589.123 408.091 588.915 410.531 588.465 412.922L587.873 416.53C587.695 417.735 587.711 418.963 587.621 420.182L587.225 427.515C587.23 437.323 588.761 447.197 591.825 456.65C592.598 459.01 593.449 461.35 594.398 463.655C595.362 465.931 596.435 468.262 597.234 470.681C598.869 475.502 599.797 480.606 599.795 485.749L599.791 485.671C600.126 488.351 600.462 491.037 600.813 493.837L600.902 494.547L600.185 494.549C532.746 494.594 462.519 494.643 389.952 494.693C381.06 495.197 372.542 499.957 367.309 507.227C364.663 510.833 362.818 515.043 362.044 519.469C361.236 523.862 361.603 528.505 361.517 533.111C361.519 551.543 361.521 570.115 361.523 588.819C361.526 626.229 361.53 664.166 361.533 702.579V703.27H360.842H345.969C340.916 703.269 335.878 702.315 331.119 700.623C328.739 699.815 326.419 698.671 324.194 697.649C321.954 696.598 319.65 695.678 317.32 694.833C312.656 693.149 307.844 691.85 302.95 690.941C293.164 689.13 283.056 688.889 273.134 690.243C263.237 691.71 253.516 694.658 244.57 699.29C226.66 708.466 211.813 723.838 203.374 742.381C194.8 760.871 193.005 782.377 197.809 802.317L199.461 808.383C200.046 810.393 200.933 812.302 201.652 814.265C202.989 818.246 205.145 821.854 206.999 825.593C211.306 832.718 216.118 839.623 222.187 845.325C233.841 857.219 248.999 865.199 264.85 869.126C280.773 872.913 297.597 872.315 312.882 867.373C316.744 866.189 320.36 864.614 324.118 863.025C327.909 861.525 331.881 860.486 335.918 860.013C339.989 859.543 343.98 859.797 347.944 859.73C351.916 859.73 355.875 859.73 359.822 859.731H360.514L360.515 860.423C360.605 914.11 360.693 966.966 360.781 1018.85C360.802 1031.82 360.823 1044.73 360.843 1057.57C360.854 1064 360.865 1070.4 360.876 1076.8C360.726 1083.07 362.913 1089.27 367.061 1093.9C371.15 1098.56 377.022 1101.56 383.159 1102.17C389.347 1102.42 395.757 1102.24 402.018 1102.29C414.602 1102.3 427.119 1102.3 439.567 1102.3C539.145 1102.32 634.251 1102.34 723.743 1102.35C768.489 1102.37 811.83 1102.38 853.625 1102.39C874.522 1102.4 895.033 1102.4 915.139 1102.41C920.165 1102.41 925.166 1102.41 930.142 1102.42C932.63 1102.42 935.111 1102.42 937.586 1102.42C940.049 1102.4 942.571 1102.51 944.909 1102.24C949.641 1101.51 953.929 1098.86 957.185 1095.37C960.515 1091.92 963.03 1087.74 964.731 1083.31C965.633 1081.11 966.211 1078.8 966.678 1076.49C967.057 1074.14 967.201 1071.84 967.155 1069.44C967.157 1064.67 967.158 1059.93 967.159 1055.22C967.165 1045.79 967.167 1036.47 967.171 1027.26C967.179 1008.85 967.187 990.873 967.195 973.355C967.213 938.322 967.23 905.121 967.246 873.897L967.677 874.327C960.851 874.323 954.114 874.319 947.466 874.315C940.822 874.038 934.377 875.309 928.441 877.889C916.277 882.462 903.432 884.158 891.234 882.965C879.022 881.951 867.445 878.301 857.393 872.738C847.325 867.178 838.781 859.745 832.114 851.365C825.442 842.971 820.671 833.622 817.75 824.161C814.826 814.689 813.674 805.135 813.93 796.038C814.755 777.781 820.71 761.899 827.286 748.709C840.819 722.213 858.765 706.377 872.439 699.485C879.302 695.974 885.019 694.451 888.865 693.77C890.783 693.365 892.263 693.277 893.245 693.17C894.229 693.071 894.725 693.038 894.725 693.038Z" fill="#1E2E35"/>
<path d="M1624.34 700.476C1610.83 700.476 1598.02 703.368 1586.42 708.528C1582.35 710.336 1578.09 711.612 1573.72 712.259V521.328C1573.72 507.274 1562.33 495.879 1548.27 495.879H1349.61V518.423C1349.61 523.634 1350.64 528.781 1352.6 533.612C1356.52 543.323 1358.72 553.912 1358.72 565.032C1358.72 612.78 1319.06 651.264 1270.89 649.346C1228.44 647.655 1193.12 613.355 1190.17 570.976C1189.12 556.042 1192.05 541.922 1197.91 529.442C1200.52 523.864 1202.03 517.846 1202.03 511.686V495.879L1000.76 495.239C983.498 495.239 969.507 509.231 969.507 526.491L969.314 703.563H955.591C954.034 703.563 952.453 703.52 950.877 703.406C933.889 691.006 912.97 683.671 890.329 683.671C833.537 683.671 787.498 729.71 787.498 786.502C787.498 843.292 833.537 889.331 890.329 889.331C908.903 889.331 926.311 884.38 941.35 875.764C944.082 875.175 946.867 874.852 949.682 874.852H967.293V1072.48C967.293 1089.74 981.283 1103.73 998.543 1103.73H1548.27C1562.33 1103.73 1573.72 1092.34 1573.72 1078.29V877.063C1577.11 877.91 1580.41 879.132 1583.58 880.674C1600.4 888.858 1619.95 892.214 1640.58 888.688C1681.52 881.694 1713.46 847.502 1717.97 805.972C1724.19 748.826 1679.87 700.476 1624.34 700.476Z" fill="#F5F5F5"/>
<path d="M1624.34 700.476C1624.34 700.476 1626.35 700.544 1630.31 700.739C1632.29 700.846 1634.76 700.859 1637.66 701.442C1639.12 701.676 1640.69 701.928 1642.38 702.2C1644.08 702.399 1645.85 702.874 1647.72 703.415C1649.6 703.93 1651.58 704.475 1653.69 705.051C1655.75 705.746 1657.86 706.658 1660.11 707.515C1661.23 707.966 1662.39 708.384 1663.55 708.891C1664.67 709.474 1665.81 710.068 1666.98 710.676C1669.3 711.94 1671.85 713.024 1674.18 714.715C1683.89 720.728 1694.13 729.644 1702.5 742.112C1710.76 754.512 1717.54 770.499 1718.51 788.94C1718.6 791.235 1718.81 793.556 1718.82 795.902C1718.7 798.248 1718.57 800.62 1718.44 803.018C1718.35 804.214 1718.37 805.427 1718.18 806.627C1718 807.827 1717.82 809.034 1717.64 810.247C1717.45 811.458 1717.26 812.676 1717.07 813.9C1716.79 815.107 1716.5 816.319 1716.21 817.536C1713.91 827.274 1709.92 837.047 1704.16 846.195C1698.39 855.324 1690.88 863.888 1681.69 870.97C1672.48 878.012 1661.65 883.618 1649.74 886.982C1646.79 887.888 1643.69 888.362 1640.64 889.078C1637.54 889.566 1634.41 890.007 1631.23 890.21C1624.87 890.692 1618.38 890.524 1611.88 889.644C1605.37 888.808 1598.88 887.184 1592.54 884.914C1586.12 882.752 1580.3 878.996 1573.62 877.484L1574.16 877.063C1574.17 907.97 1574.19 940.778 1574.21 975.354C1574.21 992.642 1574.22 1010.37 1574.23 1028.53C1574.23 1037.6 1574.24 1046.79 1574.24 1056.07C1574.24 1060.72 1574.24 1065.39 1574.25 1070.08C1574.25 1072.43 1574.25 1074.79 1574.25 1077.15C1574.28 1078.32 1574.18 1079.54 1574.13 1080.74C1573.95 1081.93 1573.85 1083.15 1573.52 1084.31C1571.39 1093.81 1563.35 1101.79 1553.57 1103.73C1551.14 1104.2 1548.61 1104.32 1546.2 1104.28C1543.76 1104.28 1541.32 1104.28 1538.87 1104.28C1533.98 1104.28 1529.05 1104.28 1524.11 1104.29C1504.32 1104.29 1484.14 1104.3 1463.59 1104.31C1422.49 1104.32 1379.89 1104.33 1335.93 1104.34C1248.01 1104.36 1154.66 1104.38 1056.94 1104.4C1044.73 1104.4 1032.45 1104.4 1020.1 1104.4C1013.93 1104.4 1007.74 1104.4 1001.53 1104.4C998.458 1104.44 995.231 1104.36 992.113 1103.76C989.007 1103.07 985.998 1101.97 983.186 1100.47C977.623 1097.36 972.947 1092.62 970.077 1086.88C968.573 1084.05 967.642 1080.93 967.091 1077.78C966.486 1074.6 966.649 1071.37 966.617 1068.26C966.615 1055.65 966.614 1042.99 966.613 1030.26C966.609 979.367 966.605 927.518 966.599 874.852L967.293 875.544C963.225 875.544 958.959 875.544 954.593 875.546C952.422 875.562 950.17 875.507 948.011 875.584C945.833 875.684 943.649 875.979 941.498 876.443L941.695 876.367C929.078 883.574 914.734 888.256 899.863 889.58C885.01 890.844 869.683 889.032 855.369 883.847C841.061 878.696 827.741 870.35 816.842 859.396C806.025 848.372 797.599 834.89 792.505 820.159C788.957 809.595 786.939 798.516 786.845 787.399C786.879 776.294 788.522 765.238 791.83 754.69C795.166 744.139 800.439 734.304 806.87 725.423C810.006 720.898 813.793 716.907 817.539 712.919L823.617 707.395C825.667 705.587 827.958 704.071 830.114 702.398C839.019 696.087 848.827 691.094 859.178 687.764C869.583 684.598 880.386 683.102 891.181 682.995C912.787 683.08 934.11 690.24 951.282 702.848L950.927 702.718C957.003 703.024 963.211 702.81 969.314 702.875L968.626 703.562C968.67 665.732 968.715 628.38 968.759 591.562C968.781 573.152 968.803 554.878 968.825 536.742L968.834 529.948C968.807 527.699 968.839 525.418 969.022 523.103C969.515 518.514 971.027 514.054 973.394 510.119C978.082 502.207 986.299 496.524 995.323 495.072C999.866 494.304 1004.34 494.671 1008.77 494.603C1013.21 494.618 1017.64 494.634 1022.07 494.647C1030.92 494.678 1039.73 494.707 1048.5 494.736C1066.04 494.795 1083.43 494.852 1100.66 494.911C1135.12 495.027 1168.93 495.142 1202.03 495.254L1202.66 495.255V495.879C1202.66 500.619 1202.66 505.346 1202.66 510.056C1202.79 514.792 1202.13 519.622 1200.66 524.128C1199.95 526.387 1199 528.592 1198.02 530.696C1197.04 532.798 1196.2 534.955 1195.41 537.122C1193.87 541.476 1192.66 545.931 1191.87 550.451C1188.56 568.542 1191.7 587.36 1199.97 603.174C1204.1 611.084 1209.37 618.364 1215.68 624.519C1221.99 630.678 1229.18 635.824 1236.91 639.768C1252.34 647.871 1270.1 650.247 1286.74 647.863C1303.42 645.398 1318.97 637.81 1330.96 626.748C1336.86 621.15 1342.28 615.006 1346.24 608.01C1350.31 601.118 1353.58 593.766 1355.41 586.09C1359.51 570.852 1358.98 554.75 1354.42 540.255C1353.38 536.598 1351.68 533.196 1350.64 529.471C1349.6 525.782 1349.08 521.958 1349.1 518.164C1349.1 510.662 1349.11 503.232 1349.11 495.879V495.38H1349.61C1401.85 495.406 1450.43 495.43 1495 495.451C1506.15 495.458 1517.04 495.464 1527.68 495.471C1533 495.474 1538.25 495.476 1543.44 495.48C1546.04 495.495 1548.61 495.415 1551.22 495.664C1553.81 495.954 1556.32 496.687 1558.68 497.688C1563.38 499.778 1567.37 503.236 1570.04 507.467C1572.76 511.68 1574.08 516.64 1574.09 521.496C1574.08 531.094 1574.08 540.424 1574.07 549.486C1573.99 621.96 1573.93 677.103 1573.89 712.259L1573.7 712.091C1582.64 710.928 1589.38 706.572 1595.75 704.83C1602.04 702.816 1607.4 701.836 1611.65 701.254C1615.92 700.695 1619.1 700.542 1621.2 700.491C1623.31 700.444 1624.34 700.476 1624.34 700.476C1624.34 700.476 1623.31 700.503 1621.21 700.578C1619.11 700.658 1615.93 700.839 1611.68 701.424C1607.43 702.034 1602.09 703.04 1595.83 705.074C1589.5 706.827 1582.78 711.22 1573.75 712.427L1573.55 712.452L1573.55 712.259C1573.52 677.103 1573.45 621.96 1573.37 549.486C1573.37 540.424 1573.36 531.094 1573.35 521.496C1573.33 516.767 1572.05 511.963 1569.4 507.874C1566.8 503.771 1562.92 500.42 1558.37 498.4C1556.07 497.434 1553.64 496.724 1551.13 496.448C1548.64 496.21 1546.04 496.287 1543.44 496.278C1538.25 496.282 1533 496.284 1527.68 496.287C1517.04 496.294 1506.15 496.3 1495 496.307C1450.43 496.328 1401.85 496.352 1349.61 496.378L1350.11 495.879C1350.11 503.232 1350.11 510.662 1350.12 518.164C1350.1 521.874 1350.61 525.592 1351.63 529.192C1352.63 532.774 1354.35 536.238 1355.41 539.948C1360.03 554.619 1360.59 570.922 1356.45 586.359C1354.6 594.134 1351.29 601.586 1347.17 608.568C1343.16 615.658 1337.68 621.887 1331.71 627.563C1319.57 638.776 1303.81 646.48 1286.91 648.99C1270.05 651.419 1252.03 649.015 1236.38 640.811C1228.54 636.816 1221.25 631.603 1214.85 625.363C1208.45 619.126 1203.1 611.748 1198.91 603.727C1190.51 587.691 1187.32 568.592 1190.66 550.236C1191.46 545.647 1192.69 541.126 1194.25 536.707C1195.05 534.507 1195.91 532.318 1196.89 530.184C1197.88 528.056 1198.78 525.964 1199.48 523.751C1200.9 519.346 1201.54 514.743 1201.41 510.056C1201.41 505.346 1201.41 500.619 1201.41 495.879L1202.03 496.504C1168.92 496.407 1135.12 496.306 1100.66 496.203C1083.43 496.151 1066.04 496.099 1048.5 496.047C1039.72 496.02 1030.91 495.994 1022.07 495.967C1017.64 495.954 1013.21 495.94 1008.76 495.927C1004.32 495.991 999.827 495.643 995.549 496.379C986.905 497.771 979.029 503.223 974.539 510.806C972.273 514.576 970.825 518.847 970.353 523.243C970.182 525.431 970.146 527.671 970.173 529.948L970.167 536.743C970.149 554.878 970.131 573.154 970.113 591.563C970.077 628.382 970.039 665.734 970.002 703.563L970.001 704.259L969.314 704.251C963.17 704.184 957.099 704.406 950.826 704.092L950.635 704.083L950.47 703.962C933.521 691.523 912.49 684.464 891.169 684.382C880.517 684.491 869.861 685.966 859.595 689.09C849.386 692.375 839.711 697.303 830.926 703.53C828.798 705.182 826.538 706.674 824.515 708.459L818.519 713.908C814.825 717.847 811.086 721.782 807.995 726.248C801.653 735.01 796.447 744.71 793.158 755.118C789.898 765.523 788.277 776.428 788.242 787.387C788.335 798.358 790.327 809.283 793.826 819.704C798.851 834.235 807.162 847.535 817.833 858.414C828.586 869.22 841.727 877.452 855.839 882.534C869.959 887.651 885.081 889.439 899.735 888.195C914.407 886.89 928.555 882.271 941.005 875.163L941.099 875.11L941.205 875.087C943.426 874.607 945.687 874.303 947.947 874.199C950.23 874.118 952.397 874.176 954.593 874.159C958.959 874.159 963.225 874.159 967.293 874.159H967.985V874.852C967.981 927.518 967.977 979.367 967.973 1030.26C967.971 1042.99 967.97 1055.65 967.969 1068.26C967.999 1071.42 967.842 1074.54 968.423 1077.56C968.95 1080.58 969.837 1083.56 971.279 1086.27C974.025 1091.77 978.506 1096.31 983.833 1099.29C986.527 1100.73 989.407 1101.78 992.382 1102.44C995.387 1103.01 998.398 1103.1 1001.53 1103.07C1007.74 1103.07 1013.93 1103.07 1020.1 1103.07C1032.45 1103.07 1044.73 1103.07 1056.94 1103.07C1154.66 1103.09 1248.01 1103.11 1335.93 1103.13C1379.89 1103.14 1422.49 1103.15 1463.59 1103.16C1484.14 1103.17 1504.32 1103.18 1524.11 1103.18C1529.05 1103.19 1533.98 1103.19 1538.87 1103.19C1541.32 1103.19 1543.76 1103.19 1546.2 1103.19C1548.66 1103.24 1551 1103.11 1553.35 1102.67C1562.72 1100.83 1570.44 1093.17 1572.49 1084.07C1573.05 1081.8 1573.22 1079.51 1573.2 1077.15C1573.2 1074.79 1573.2 1072.43 1573.2 1070.08C1573.2 1065.39 1573.2 1060.72 1573.2 1056.07C1573.21 1046.79 1573.21 1037.6 1573.22 1028.53C1573.22 1010.37 1573.23 992.642 1573.24 975.354C1573.26 940.778 1573.27 907.97 1573.29 877.063V876.519L1573.83 876.643C1580.68 878.215 1586.52 881.996 1592.83 884.118C1599.11 886.376 1605.54 887.994 1611.99 888.828C1618.43 889.71 1624.87 889.883 1631.17 889.414C1634.32 889.215 1637.43 888.782 1640.51 888.302C1643.54 887.594 1646.6 887.13 1649.54 886.234C1661.34 882.914 1672.09 877.368 1681.24 870.394C1690.38 863.379 1697.84 854.89 1703.58 845.832C1709.32 836.758 1713.3 827.059 1715.6 817.391C1715.89 816.182 1716.18 814.978 1716.46 813.782C1716.65 812.566 1716.84 811.356 1717.03 810.152C1717.21 808.948 1717.4 807.75 1717.58 806.558C1717.76 805.366 1717.74 804.159 1717.84 802.971C1717.97 800.587 1718.1 798.23 1718.23 795.898C1718.23 793.566 1718.02 791.259 1717.93 788.978C1717.01 770.644 1710.3 754.734 1702.11 742.374C1693.81 729.947 1683.64 721.039 1673.99 715.016C1671.68 713.324 1669.14 712.235 1666.84 710.968C1665.67 710.358 1664.53 709.76 1663.42 709.176C1662.27 708.667 1661.11 708.246 1660 707.791C1657.76 706.927 1655.66 706.008 1653.6 705.308C1651.51 704.723 1649.53 704.17 1647.66 703.647C1645.79 703.099 1644.03 702.615 1642.34 702.407C1640.65 702.126 1639.08 701.864 1637.64 701.622C1634.75 701.019 1632.28 700.987 1630.3 700.862C1626.35 700.627 1624.34 700.476 1624.34 700.476Z" fill="#1E2E35"/>
<path d="M954.439 735.701C954.439 735.701 963.462 731.05 971.43 732.794C979.398 734.539 1008.33 753.403 1008.33 753.403L1031.64 749.05L1045.37 814.866L954.439 852.657V735.701Z" fill="#B77864"/>
<path d="M887.173 758.648C887.173 758.648 908.004 756.016 915.551 752.244C923.096 748.47 941.089 732.509 944.861 732.798C948.635 733.089 962.275 735.701 962.275 735.701L956.76 752.244C956.76 752.244 984.042 768.786 992.167 774.88C1000.29 780.974 1025.83 808.254 1026.99 814.929C1028.15 821.605 1026.12 829.441 1022.93 832.053C1019.74 834.664 1008.13 829.441 1008.13 829.441C1008.13 829.441 1009.87 835.536 1005.52 841.34C1001.16 847.144 991.007 845.112 991.007 845.112C991.007 845.112 990.136 854.689 985.492 856.43C980.848 858.172 970.401 852.948 970.401 852.948C970.401 852.948 967.248 861.074 963.456 861.945C959.663 862.814 948.925 856.43 948.925 856.43C948.925 856.43 902.491 823.056 892.043 818.122C881.595 813.188 878.403 812.898 878.403 812.898L887.173 758.648Z" fill="#FFC3A3"/>
<path d="M970.401 852.948C970.192 852.941 970.061 852.129 969.57 850.91C969.088 849.688 968.268 848.045 967.236 846.276C965.168 842.738 963.312 839.904 963.644 839.66C963.929 839.441 966.301 841.912 968.446 845.578C969.513 847.408 970.249 849.232 970.52 850.636C970.802 852.049 970.577 852.964 970.401 852.948Z" fill="#F69F75"/>
<path d="M989.694 847.304C989.314 847.499 987.048 843.331 983.84 838.537C980.665 833.705 977.264 830.479 977.508 830.179C977.728 829.857 981.722 832.772 984.996 837.755C988.29 842.681 990.004 847.156 989.694 847.304Z" fill="#F69F75"/>
<path d="M1008.33 830.554C1007.92 830.656 1006.62 825.634 1003.41 820.219C1000.26 814.77 996.509 811.186 996.8 810.878C997 810.59 1001.32 813.838 1004.62 819.512C1007.96 825.159 1008.67 830.519 1008.33 830.554Z" fill="#F69F75"/>
<path d="M994.728 794.334C995.094 794.258 996.09 797.712 996.278 802.114C996.48 806.516 995.794 810.046 995.423 810.002C995.026 809.963 995.082 806.462 994.882 802.176C994.702 797.891 994.336 794.408 994.728 794.334Z" fill="#F69F75"/>
<path d="M927.159 768.205C927.159 768.205 934.415 744.988 937.025 742.086C939.639 739.184 963.907 732.794 963.907 732.794L971.429 752.244L966.047 757.938L954.439 757.177C954.439 757.177 947.184 776.332 927.159 768.205Z" fill="#B77864"/>
<path d="M882.629 814.117C882.629 814.117 879.311 816.671 882.629 822.766C885.948 828.861 894.945 824.506 897.847 822.766C897.847 822.766 893.493 832.922 899.008 836.115C904.521 839.309 911.197 838.438 911.197 838.438C911.197 838.438 910.907 844.533 918.743 848.595C926.579 852.658 928.609 848.595 928.609 848.595C928.609 848.595 929.48 858.753 938.477 859.623C947.473 860.494 950.64 857.402 950.64 857.402L946.603 851.403C946.603 851.403 951.827 840.758 947.764 836.115C943.701 831.473 937.025 832.053 937.025 832.053C937.025 832.053 938.803 822.622 933.627 819.995C924.009 815.117 919.904 824.217 919.904 824.217C919.904 824.217 919.323 813.883 911.777 814.117C904.232 814.35 900.169 818.993 900.169 818.993L882.629 814.117Z" fill="#B77864"/>
<path d="M919.903 824.217C920.243 824.385 918.819 827.921 916.443 831.957C914.071 835.995 911.671 838.957 911.358 838.742C911.034 838.521 912.894 835.243 915.238 831.247C917.589 827.258 919.553 824.041 919.903 824.217Z" fill="#754539"/>
<path d="M937.211 833.359C937.547 833.516 936.068 837.291 933.255 841.388C930.455 845.498 927.475 848.244 927.207 847.988C926.911 847.718 929.37 844.614 932.102 840.6C934.851 836.599 936.852 833.182 937.211 833.359Z" fill="#754539"/>
<path d="M757.451 942.876H713.428L702.159 1102.96H746.296C753.809 1078.58 772.591 951.528 772.591 951.528L757.451 942.876Z" fill="#1E2E35"/>
<path d="M508.128 942.876C508.128 942.876 479.956 1008.94 482.772 1035.68C485.589 1062.42 501.411 1102.96 501.411 1102.96H719.443C719.443 1102.96 725.528 1080.63 730.224 1047.59C734.919 1014.56 747.596 942.876 747.596 942.876H508.128Z" fill="#1E2E35"/>
<path d="M796.251 305.302C788.887 296.008 779.785 287.059 777.901 275.354C776.167 264.592 780.873 252.807 776.048 243.032C770.111 231.006 753.044 228.658 745.643 217.472C742.057 212.058 741.209 205.195 737.672 199.748C731.645 190.466 719.271 187.479 708.223 188.115C697.173 188.751 686.393 192.184 675.329 192.416C660.151 192.735 644.779 187.039 630.037 190.675C613.772 194.687 603.279 208.394 592.184 221.616L577.813 236.876C574.867 239.466 571.769 241.828 568.397 243.783C562.497 247.204 555.829 249.439 550.683 253.914C539.672 263.488 539.612 282.938 550.563 292.58C538.732 295.73 529.783 307.486 529.893 319.726C529.955 326.46 532.436 332.896 534.136 339.414C535.836 345.931 536.7 353.136 533.72 359.175C530.737 365.214 522.645 369.06 516.945 365.472C518.592 374.279 524.455 382.198 532.397 386.342C529.084 389.436 524.556 391.19 520.023 391.138C530.904 420.548 563.557 437.3 594.872 438.96C626.188 440.62 656.735 430.174 686.349 419.867L771.731 401.959C779.216 400.615 782.728 391.76 782.981 384.159C783.235 376.558 781.687 368.562 784.736 361.594C788.916 352.04 800.473 347.414 804.824 337.936C809.771 327.162 803.613 314.594 796.251 305.302Z" fill="#1E2E35"/>
<path d="M593.061 372.765C587.857 353.417 582.735 333.931 580.937 313.975C579.139 294.022 580.803 273.403 588.741 255.007C589.943 252.219 599.935 233.609 602.938 234.062C605.086 234.386 598.619 251.894 599.613 253.823C609.103 272.239 610.825 293.887 608.101 314.425C605.375 334.961 600.13 353.291 593.061 372.765Z" fill="#1E2E35"/>
<path d="M595.021 296.324C595.976 246.085 626.008 204.767 676.201 207.112L680.828 207.599C727.38 212.507 762.376 252.325 761.226 299.123C760.157 342.66 758.417 390.755 755.69 413.885C750.044 461.771 701.3 464.172 701.3 464.172C701.192 464.167 699.99 543.272 699.99 543.272L585.858 464.189L595.021 296.324Z" fill="#FFC3A3"/>
<path d="M701.301 464.173C701.301 464.173 670.89 462.76 640.815 439.136C640.815 439.136 652.054 479.66 700.353 480.385L701.301 464.173Z" fill="#F69F75"/>
<path d="M744.61 336.281C744.358 339.911 741.074 342.689 737.279 342.495C733.491 342.299 730.618 339.207 730.873 335.576C731.125 331.948 734.406 329.164 738.195 329.359C741.99 329.553 744.863 332.653 744.61 336.281Z" fill="#1E2E35"/>
<path d="M748.88 317.943C747.938 318.746 743.155 314.361 735.783 313.603C728.434 312.741 722.626 315.962 721.922 314.974C721.571 314.534 722.606 313.013 725.14 311.547C727.639 310.085 731.767 308.841 736.355 309.345C740.942 309.854 744.624 311.949 746.662 313.914C748.743 315.89 749.342 317.586 748.88 317.943Z" fill="#1E2E35"/>
<path d="M677.927 336.281C677.674 339.911 674.391 342.689 670.597 342.495C666.809 342.3 663.935 339.207 664.19 335.576C664.442 331.948 667.725 329.165 671.515 329.359C675.31 329.553 678.179 332.653 677.927 336.281Z" fill="#1E2E35"/>
<path d="M676.391 313.317C675.447 314.12 670.656 309.733 663.291 308.977C655.941 308.116 650.133 311.336 649.428 310.349C649.08 309.908 650.105 308.388 652.649 306.924C655.147 305.458 659.276 304.216 663.863 304.718C668.449 305.228 672.132 307.325 674.171 309.288C676.247 311.265 676.848 312.961 676.391 313.317Z" fill="#1E2E35"/>
<path d="M696.855 372.721C696.865 372.298 701.528 371.989 709.049 371.822C710.952 371.828 712.772 371.641 713.224 370.39C713.812 369.078 713.237 366.966 712.557 364.681C711.267 359.941 709.919 354.973 708.504 349.766C702.925 328.554 699.1 311.192 699.955 310.973C700.813 310.757 706.028 327.776 711.605 348.988C712.935 354.216 714.208 359.197 715.416 363.964C715.901 366.177 716.871 368.73 715.613 371.45C714.959 372.804 713.469 373.678 712.229 373.876C710.985 374.117 709.924 374.026 708.987 373.984C701.476 373.597 696.84 373.142 696.855 372.721Z" fill="#1E2E35"/>
<path d="M674.632 375.532C675.839 375.588 675.011 383.588 681.257 389.987C687.491 396.403 696.111 396.403 696.056 397.528C696.115 398.041 693.993 398.881 690.385 398.6C686.843 398.349 681.807 396.671 677.984 392.757C674.175 388.836 672.869 384.001 672.941 380.692C672.989 377.315 674.091 375.428 674.632 375.532Z" fill="#1E2E35"/>
<path d="M679.137 283.372C678.199 285.3 670.943 283.574 662.188 283.706C653.431 283.659 646.192 285.455 645.235 283.539C644.815 282.624 646.229 280.868 649.251 279.226C652.248 277.584 656.9 276.212 662.151 276.182C667.4 276.162 672.065 277.486 675.079 279.099C678.117 280.712 679.551 282.455 679.137 283.372Z" fill="#1E2E35"/>
<path d="M748.418 293.129C746.946 294.665 742.052 292.393 735.956 291.668C729.89 290.73 724.567 291.605 723.562 289.728C723.13 288.825 724.12 287.233 726.544 285.886C728.936 284.544 732.796 283.646 736.976 284.214C741.158 284.79 744.631 286.689 746.574 288.629C748.55 290.574 749.075 292.373 748.418 293.129Z" fill="#1E2E35"/>
<path d="M595.194 332.241C594.414 331.801 563.275 319.024 560.867 351.914C558.459 384.805 591.977 380.438 592.103 379.5C592.229 378.56 595.194 332.241 595.194 332.241Z" fill="#FFC3A3"/>
<path d="M582.969 366.304C582.831 366.189 582.366 366.663 581.366 367.035C580.39 367.399 578.743 367.577 577.077 366.809C573.694 365.281 571.173 359.551 571.447 353.609C571.583 350.611 572.419 347.805 573.651 345.524C574.833 343.192 576.511 341.624 578.283 341.44C580.054 341.165 581.217 342.304 581.55 343.259C581.923 344.211 581.666 344.853 581.838 344.921C581.923 345.012 582.583 344.423 582.418 343.045C582.33 342.381 582.002 341.577 581.274 340.888C580.533 340.191 579.395 339.776 578.167 339.82C575.618 339.809 573.163 341.975 571.809 344.48C570.313 346.988 569.303 350.135 569.15 353.503C568.877 360.145 571.815 366.597 576.469 368.319C578.739 369.093 580.719 368.535 581.773 367.832C582.851 367.093 583.079 366.372 582.969 366.304Z" fill="#F69F75"/>
<path d="M743.443 243.231C748.959 240.635 734.083 222.358 721.377 215.577C702.173 205.327 672.319 197.857 653.746 201.855C631.386 206.669 612.437 216.421 600.126 235.699C587.814 254.977 582.17 277.998 581.342 300.857C581.09 307.831 581.345 315.135 584.685 321.262C588.813 328.834 597.338 333.985 596.305 343.997C595.929 347.657 596.735 351.426 599.078 354.263C604.686 361.058 612.441 355.513 616.215 349.697C624.279 337.271 626.077 321.933 627.662 307.206C628.79 296.739 629.906 286.045 627.595 275.773C626.339 270.183 624.086 264.834 623.141 259.183C622.194 253.533 622.77 247.227 626.529 242.903C627.141 242.201 628.131 241.329 629.377 240.371C639.221 232.802 652.427 231.197 663.845 236.081C681.955 243.83 712.974 255.661 721.645 249.902C734.119 241.619 737.343 235.902 737.343 235.902L743.443 243.231Z" fill="#1E2E35"/>
<path d="M655.753 197.499C674.227 192.614 694.796 194.258 711.157 204.127C719.841 209.366 727.479 217.338 729.592 227.259C731.704 237.179 726.773 248.903 717.153 252.116L716.481 252.482C702.136 256.304 693.131 253.835 679.443 248.088C667.927 243.252 657.916 235.31 646.376 230.528C634.108 225.447 620.301 224.155 607.303 226.871C620.811 213.359 637.281 202.383 655.753 197.499Z" fill="#1E2E35"/>
<path d="M664.078 191.785C664.091 191.696 665.282 191.793 667.426 192.117C669.553 192.516 672.633 193.187 676.283 194.528C679.929 195.865 684.135 197.883 688.402 200.775C692.655 203.656 697.011 207.441 700.478 212.336C703.977 217.245 705.885 222.711 707.122 227.683C708.341 232.684 708.873 237.285 709.146 241.144C709.418 245.004 709.427 248.133 709.387 250.292C709.345 252.451 709.238 253.643 709.149 253.643C709.045 253.643 708.969 252.451 708.843 250.301C708.717 248.153 708.557 245.045 708.162 241.229C707.766 237.417 707.137 232.885 705.874 227.999C704.594 223.14 702.691 217.843 699.338 213.143C696.001 208.428 691.789 204.707 687.673 201.835C683.542 198.952 679.466 196.88 675.926 195.449C668.813 192.611 664.025 192.055 664.078 191.785Z" fill="#3E5963"/>
<path d="M694.364 189.959C694.392 189.867 695.397 190.15 697.207 190.746C698.091 191.086 699.257 191.326 700.453 191.962C701.715 192.601 703.085 193.295 704.567 194.046C710.423 197.473 717.652 204.355 721.629 214.113C722.716 216.503 723.361 218.981 724.048 221.349C724.499 223.773 725.02 226.098 725.123 228.369C725.413 230.621 725.244 232.781 725.248 234.79C724.999 236.787 724.921 238.671 724.493 240.333C724.103 242.001 723.811 243.521 723.273 244.779C722.788 246.047 722.463 247.174 721.951 247.993C721.045 249.678 720.511 250.574 720.428 250.526C720.14 250.393 722.415 246.765 723.523 240.154C723.88 238.525 723.895 236.678 724.091 234.734C724.035 232.773 724.161 230.674 723.84 228.486C723.708 226.281 723.169 224.025 722.719 221.671C722.029 219.375 721.397 216.971 720.341 214.654C716.48 205.191 709.633 198.455 704.047 194.886C702.631 194.086 701.321 193.347 700.117 192.667C698.975 191.974 697.855 191.667 697.011 191.254C695.285 190.51 694.336 190.051 694.364 189.959Z" fill="#3E5963"/>
<path d="M715.82 535.329C715.82 539.845 738.447 639.218 747.107 663.627C755.766 688.035 783.188 932.819 779.58 950.253C775.972 967.689 766.591 966.991 766.591 966.991C766.591 966.991 545.049 953.043 521.235 955.135C497.422 957.227 487.319 956.53 481.546 929.331C475.773 902.134 481.717 760.777 476.666 726.606C471.614 692.434 471.571 675.867 469.618 625.099C467.923 581.097 477.938 545.802 498.865 520.33C519.793 494.858 566.117 469.102 566.117 469.102L582.548 445.138L698.827 506.638L701.484 492.641L708.54 514.433L715.82 535.329Z" fill="#3E5963"/>
<path d="M765.801 838.21C763.863 833.273 757.585 832.032 752.314 831.446C703.046 825.982 651.763 813.684 615.779 779.59C601.702 766.253 590.601 750.136 579.902 733.96C556.517 698.601 534.534 662.34 512.557 626.089L495.491 632.542C505.959 683.728 516.259 720.785 533.303 762.738C550.367 804.741 563.585 845.401 606.787 859.141C634.714 868.024 687.751 861.214 716.967 858.926C729.165 857.972 741.445 856.792 753.159 853.256C756.699 852.186 760.287 850.838 762.953 848.274C765.618 845.712 767.151 841.653 765.801 838.21Z" fill="black"/>
<path d="M489.484 619.163C490.76 621.431 589.353 832.014 633.373 840.674C677.393 849.333 814.2 851.355 840.901 846.303C867.601 841.251 893.724 836.55 893.724 836.55C893.724 836.55 913.056 790.629 895.409 751.505L858.661 752.665C858.661 752.665 756.484 747.155 742.052 743.207C727.618 739.261 715.149 725.726 702.16 726.447L624.429 545.557C624.429 545.557 573.914 498.65 537.833 513.083C501.752 527.515 478.909 600.355 489.484 619.163Z" fill="#3E5963"/>
<path d="M861.489 843.851C861.397 843.823 861.662 842.562 862.22 840.311C862.802 838.071 863.529 834.795 864.294 830.732C865.08 826.672 865.756 821.791 866.245 816.351C866.669 810.907 866.866 804.9 866.628 798.602C866.084 785.994 863.84 774.735 861.628 766.772C860.528 762.788 859.533 759.583 858.766 757.398C858.026 755.202 857.658 753.967 857.748 753.931C857.837 753.895 858.377 755.062 859.277 757.208C860.202 759.344 861.346 762.518 862.576 766.498C865.048 774.447 867.476 785.803 868.024 798.544C868.265 804.907 868.025 810.978 867.528 816.467C866.962 821.952 866.178 826.862 865.262 830.927C864.366 834.995 863.489 838.252 862.742 840.459C862.022 842.672 861.581 843.879 861.489 843.851Z" fill="#1E2E35"/>
<path d="M624.429 545.556C624.429 545.556 624.953 546.634 625.897 548.763C626.847 550.927 628.235 554.087 630.045 558.214C633.667 566.555 638.972 578.774 645.771 594.43C659.332 625.844 678.835 671.023 702.667 726.228L702.129 725.896C708.265 725.611 714.032 728.278 719.361 731.172C724.724 734.13 729.916 737.567 735.616 740.168C741.244 743.028 747.632 743.691 754.108 744.471C760.58 745.238 767.188 745.806 773.887 746.388C800.7 748.604 829.112 750.35 858.696 751.999L858.64 751.998C870.197 751.628 882.701 751.228 895.387 750.823L895.848 750.808L896.029 751.224C901.697 764.198 904.073 778.788 903.388 793.398C902.759 808.023 899.765 822.735 894.367 836.819L894.235 837.164L893.847 837.236C886.445 838.603 878.487 840.072 870.483 841.551C861.905 843.135 853.377 844.708 844.907 846.274C836.424 847.926 827.776 848.56 819.304 848.91C802.304 849.684 785.549 849.75 769.091 849.664C752.632 849.574 736.468 849.191 720.645 848.606C704.823 848.047 689.341 847.226 674.256 846.075C666.712 845.535 659.273 844.81 651.941 844.007C644.609 843.04 637.413 842.388 630.335 840.419C626.881 839.132 623.821 837.156 620.979 835.019C618.127 832.878 615.516 830.499 613.031 828.05C608.048 823.152 603.592 817.924 599.387 812.664C582.716 791.475 569.651 770.007 557.969 750.36C534.859 710.87 518.177 677.799 506.725 654.939C501.031 643.49 496.719 634.546 493.824 628.468C490.933 622.388 489.484 619.163 489.484 619.163C489.484 619.163 489.921 619.934 490.689 621.478C491.468 623.056 492.599 625.348 494.077 628.346C497.096 634.399 501.519 643.275 507.212 654.695C518.809 677.474 535.62 710.468 558.819 749.858C570.541 769.45 583.649 790.871 600.292 811.94C604.487 817.168 608.929 822.36 613.867 827.196C616.331 829.616 618.913 831.96 621.708 834.052C624.495 836.14 627.483 838.052 630.753 839.264C637.459 841.119 644.841 841.822 652.085 842.756C659.396 843.547 666.82 844.262 674.355 844.791C689.416 845.923 704.884 846.727 720.695 847.272C736.504 847.843 752.656 848.214 769.1 848.295C785.541 848.371 802.285 848.299 819.236 847.522C827.733 847.166 836.208 846.546 844.648 844.902C853.121 843.336 861.651 841.762 870.231 840.176C878.235 838.699 886.196 837.23 893.6 835.863L893.081 836.279C898.389 822.434 901.388 807.776 902.004 793.343C902.688 778.898 900.343 764.53 894.787 751.784L895.429 752.186C882.744 752.582 870.239 752.972 858.683 753.332L858.652 753.334L858.625 753.332C829.028 751.658 800.619 749.879 773.781 747.622C767.075 747.028 760.464 746.451 753.965 745.671C750.713 745.303 747.499 744.883 744.301 744.278C741.06 743.788 738.029 742.528 735.125 741.239C729.319 738.571 724.117 735.11 718.809 732.172C713.54 729.287 707.945 726.734 702.191 726.999L701.803 727.016L701.652 726.666C678.005 671.379 658.653 626.136 645.197 594.676C638.517 578.97 633.304 566.711 629.747 558.342C627.999 554.188 626.661 551.007 625.745 548.828C624.851 546.678 624.429 545.556 624.429 545.556Z" fill="#1E2E35"/>
<path d="M614.129 531.357C614.037 531.441 612.755 530.089 610.303 527.816C607.859 525.534 604.097 522.454 599.025 519.313C593.966 516.161 587.482 513.108 579.883 511.025C572.302 508.932 563.575 507.956 554.538 508.805C545.507 509.761 537.145 512.445 530.127 516C523.09 519.545 517.338 523.822 513.003 527.913C508.654 531.997 505.577 535.761 503.633 538.481C501.679 541.194 500.691 542.773 500.585 542.709C500.542 542.684 500.749 542.268 501.181 541.493C501.637 540.734 502.215 539.55 503.186 538.17C505.007 535.334 508.001 531.432 512.322 527.197C516.63 522.958 522.413 518.525 529.543 514.852C536.654 511.172 545.174 508.39 554.398 507.414C563.63 506.546 572.53 507.585 580.227 509.784C587.943 511.973 594.489 515.173 599.55 518.476C604.626 521.77 608.333 525.002 610.679 527.424C611.903 528.584 612.706 529.63 613.303 530.282C613.879 530.957 614.165 531.325 614.129 531.357Z" fill="#1E2E35"/>
<path d="M701.86 726.605C702.222 726.741 699.995 733.58 696.887 741.881C693.779 750.184 690.967 756.804 690.606 756.668C690.244 756.533 692.471 749.695 695.579 741.391C698.687 733.091 701.499 726.471 701.86 726.605Z" fill="#1E2E35"/>
<path d="M880.459 761.291C880.46 761.212 880.836 761.105 881.472 761.332C882.103 761.552 882.914 762.195 883.448 763.267C883.955 764.277 884.319 765.957 883.348 767.445C882.438 768.824 880.704 769.881 878.684 769.6C876.628 769.216 875.43 767.435 875.168 765.852C874.887 764.195 875.574 762.688 876.511 761.889C877.47 761.057 878.532 760.972 879.152 761.027C879.796 761.089 880.112 761.259 880.1 761.344C880.146 761.611 878.536 761.245 877.196 762.601C876.579 763.272 876.162 764.433 876.432 765.608C876.675 766.777 877.639 768.012 878.918 768.224C880.203 768.433 881.612 767.68 882.279 766.731C882.984 765.796 882.858 764.563 882.542 763.659C881.856 761.737 880.406 761.472 880.459 761.291Z" fill="#1E2E35"/>
<path d="M701.605 513.638C701.573 513.693 700.656 513.216 698.956 512.268C697.128 511.222 694.677 509.822 691.618 508.074L692.134 507.849C690.685 515.181 689.281 525.972 686.82 538.901L686.657 539.758L685.908 539.286C675.112 532.484 662.16 524.708 648.342 516.357C638.041 510.189 628.409 503.962 619.538 498.582C610.621 493.249 602.474 488.628 595.616 484.781C588.853 481.02 583.329 477.946 579.336 475.725C577.52 474.704 576.054 473.881 574.918 473.241C573.914 472.664 573.397 472.34 573.42 472.297C573.441 472.254 574.002 472.494 575.049 472.992C576.217 473.572 577.724 474.318 579.59 475.245C583.514 477.237 589.164 480.178 596.092 483.916C603.018 487.654 611.222 492.19 620.198 497.477C629.086 502.922 638.832 508.892 649.066 515.162C662.877 523.509 675.809 531.356 686.553 538.272L685.641 538.656C688.21 525.825 689.796 515.024 691.457 507.708L691.566 507.228L691.973 507.481C694.962 509.346 697.356 510.841 699.142 511.956C700.782 513.002 701.637 513.584 701.605 513.638Z" fill="#1E2E35"/>
<path d="M589.763 480.982C609.99 496.053 630.217 511.125 650.443 526.197C663.794 536.145 677.465 546.26 693.318 551.348C693.026 537.292 692.734 523.234 692.441 509.178L686.231 538.78L589.763 480.982Z" fill="black"/>
<path d="M1214.61 269.762C1204.05 271.175 1193.04 263.608 1190.57 253.239C1188.1 242.872 1194.53 231.158 1204.59 227.659C1197.88 221.039 1196.02 210.004 1200.18 201.546C1204.35 193.087 1214.24 187.843 1223.58 189.136C1223.79 179.827 1229.17 170.802 1237.27 166.199C1245.36 161.596 1255.87 161.584 1263.98 166.166C1274.08 157.152 1290.66 156.5 1301.44 164.691C1310.45 162.846 1320.4 167.47 1324.8 175.542C1329.2 183.615 1327.69 194.484 1321.26 201.054" fill="#1E2E35"/>
<path d="M1211.52 272.873C1214.4 224.868 1253.67 187.137 1301.76 186.159L1306.53 186.061C1358.11 188.023 1385.26 232.92 1381.87 284.424L1384.94 468.172L1259.61 513.159L1258.52 446.985C1258.52 446.985 1208.84 440.293 1207.21 390.791C1206.43 366.884 1208.83 317.523 1211.52 272.873Z" fill="#B77864"/>
<path d="M1258.1 446.923C1258.1 446.923 1289.76 448.182 1322.6 426.614C1322.6 426.614 1308.06 462.559 1258.57 459.106L1258.1 446.923Z" fill="#754539"/>
<path d="M1225.42 317.643C1225.36 321.381 1228.48 324.509 1232.38 324.639C1236.28 324.767 1239.49 321.853 1239.54 318.115C1239.6 314.378 1236.48 311.246 1232.59 311.115C1228.69 310.985 1225.48 313.909 1225.42 317.643Z" fill="#1E2E35"/>
<path d="M1222.65 296.883C1223.55 297.787 1228.82 293.714 1236.43 293.578C1244.03 293.334 1249.7 297.136 1250.5 296.188C1250.9 295.766 1249.97 294.119 1247.51 292.399C1245.08 290.684 1240.96 289.054 1236.22 289.17C1231.48 289.294 1227.53 291.119 1225.27 292.951C1222.97 294.795 1222.21 296.479 1222.65 296.883Z" fill="#1E2E35"/>
<path d="M1294.75 317.645C1294.69 321.381 1297.81 324.509 1301.71 324.638C1305.61 324.769 1308.82 321.853 1308.87 318.116C1308.93 314.38 1305.81 311.246 1301.92 311.117C1298.01 310.985 1294.8 313.909 1294.75 317.645Z" fill="#1E2E35"/>
<path d="M1297.48 296.778C1298.37 297.682 1303.65 293.61 1311.26 293.475C1318.86 293.231 1324.52 297.033 1325.33 296.083C1325.72 295.663 1324.81 294.017 1322.33 292.297C1319.9 290.582 1315.78 288.95 1311.04 289.066C1306.3 289.189 1302.35 291.015 1300.1 292.847C1297.8 294.691 1297.04 296.375 1297.48 296.778Z" fill="#1E2E35"/>
<path d="M1271.01 353.771C1271.04 353.337 1266.29 352.615 1258.61 351.793C1256.66 351.633 1254.81 351.283 1254.46 349.963C1253.97 348.569 1254.74 346.459 1255.64 344.178C1257.37 339.439 1259.18 334.471 1261.08 329.265C1268.63 308.037 1274.05 290.599 1273.2 290.302C1272.34 290.007 1265.52 306.971 1257.98 328.199C1256.16 333.433 1254.42 338.422 1252.77 343.194C1252.08 345.418 1250.87 347.949 1251.92 350.841C1252.47 352.282 1253.92 353.307 1255.17 353.617C1256.43 353.971 1257.52 353.97 1258.48 354.007C1266.2 354.266 1270.99 354.202 1271.01 353.771Z" fill="#1E2E35"/>
<path d="M1294.64 270.922C1295.68 272.832 1302.16 270.608 1310.19 270.185C1318.2 269.581 1324.99 270.954 1325.69 268.936C1325.98 267.974 1324.52 266.27 1321.6 264.784C1318.7 263.298 1314.31 262.193 1309.5 262.497C1304.7 262.81 1300.55 264.46 1297.95 266.3C1295.32 268.141 1294.18 270.012 1294.64 270.922Z" fill="#1E2E35"/>
<path d="M1221.18 269.965C1222.82 271.66 1229.06 269.739 1236.61 269.5C1244.15 269.043 1250.58 270.379 1252.02 268.541C1252.64 267.651 1251.6 265.937 1248.78 264.36C1245.99 262.785 1241.36 261.547 1236.17 261.784C1230.98 262.027 1226.52 263.685 1223.93 265.508C1221.3 267.34 1220.45 269.137 1221.18 269.965Z" fill="#1E2E35"/>
<path d="M1215.81 250.068C1215.81 250.068 1228.24 218.794 1243.05 211.254C1260.97 202.124 1269.17 221.835 1286.32 216.662C1303.47 211.488 1320.58 202.731 1338.48 215.707C1358.07 229.91 1349.24 240.334 1350.88 262.279C1357.53 351.254 1374.31 376.111 1378.08 334.062C1378.49 329.454 1391.18 325.539 1392.67 306.08C1394.61 280.848 1394.95 250.251 1388.97 232.495C1383.93 217.528 1375.13 207.296 1359.49 196.136C1334.81 178.519 1301.41 178.811 1278.78 181.555C1256.15 184.298 1212.96 211.284 1215.81 250.068Z" fill="#1E2E35"/>
<path d="M1374.9 332.778C1375.05 325.13 1381.52 318.961 1389.15 319.53C1398.4 320.221 1408.78 325.254 1408.56 344.35C1408.17 378.223 1374.24 370.842 1374.19 369.87C1374.16 369.21 1374.61 346.951 1374.9 332.778Z" fill="#B77864"/>
<path d="M1381.71 357.211C1381.86 357.104 1382.3 357.631 1383.29 358.1C1384.25 358.556 1385.92 358.883 1387.7 358.241C1391.29 356.969 1394.37 351.323 1394.61 345.219C1394.73 342.139 1394.12 339.195 1393.05 336.752C1392.04 334.261 1390.46 332.513 1388.67 332.172C1386.88 331.736 1385.59 332.8 1385.16 333.748C1384.7 334.691 1384.91 335.369 1384.73 335.425C1384.63 335.511 1384.01 334.849 1384.29 333.453C1384.44 332.783 1384.85 331.988 1385.65 331.347C1386.47 330.695 1387.67 330.372 1388.92 330.523C1391.53 330.733 1393.86 333.163 1395.03 335.845C1396.34 338.54 1397.1 341.849 1396.96 345.309C1396.67 352.133 1393.1 358.48 1388.19 359.839C1385.8 360.433 1383.82 359.691 1382.8 358.88C1381.76 358.031 1381.59 357.271 1381.71 357.211Z" fill="#754539"/>
<path d="M1372.9 267.204C1368.57 270.295 1363.98 273.484 1358.7 274.116C1353.41 274.749 1347.29 271.829 1346.29 266.6C1345.84 264.251 1346.36 261.507 1344.78 259.716C1342.88 257.581 1339.48 258.332 1336.66 258.689C1326.83 259.933 1316.61 253.177 1313.91 243.655C1311.48 247.464 1305.62 247.421 1301.77 245.049C1297.92 242.677 1295.39 238.72 1292.35 235.375C1289.31 232.032 1285.07 229.072 1280.61 229.799C1278.12 230.205 1275.8 231.744 1273.28 231.571C1268.83 231.267 1266.55 226.105 1265.79 221.707C1265.03 217.308 1264.4 212.172 1260.59 209.849C1257.05 207.699 1252.56 209.075 1248.48 209.76C1244.4 210.448 1239.09 209.595 1237.96 205.615C1237.37 203.527 1238.23 201.299 1239.35 199.444C1244.45 191.037 1255.87 187.117 1265.06 190.617C1268.15 179.363 1278.43 170.444 1290.01 168.984C1301.59 167.524 1313.76 173.609 1319.54 183.745C1326.57 177.108 1336.91 174.172 1346.37 176.129C1355.83 178.085 1364.16 184.88 1367.98 193.759C1376.17 191.425 1385.62 194.419 1390.97 201.041C1396.32 207.665 1397.27 217.535 1393.27 225.053C1399.43 228.405 1404.76 234.345 1405.03 241.351C1405.3 248.355 1398.61 255.476 1391.81 253.769C1394.66 259.169 1392.58 266.619 1387.36 269.775C1382.14 272.929 1374.58 271.299 1371.12 266.269" fill="#1E2E35"/>
<path d="M1262.75 200.629C1262.72 200.632 1262.73 200.842 1262.77 201.249C1262.82 201.654 1262.86 202.269 1263.02 203.052C1263.37 204.609 1264.04 206.912 1265.61 209.525C1267.2 212.1 1269.63 215.06 1273.28 217.376C1276.87 219.721 1281.76 221.458 1287.23 221.048L1286.64 220.309C1285.65 223.225 1286.01 226.694 1287.51 229.642C1288.94 232.642 1291.14 235.281 1293.47 237.849C1294.67 239.081 1295.71 240.536 1297.34 241.657C1298.93 242.733 1300.82 243.336 1302.75 243.538C1306.58 243.948 1310.86 242.68 1313.56 239.412L1312.29 239.076C1313.29 245.788 1317.25 252.442 1323.42 256.424C1326.68 258.685 1330.69 260.024 1334.61 259.84C1338.53 259.722 1342.14 258.498 1345.51 257.213L1344.6 256.833C1346.51 261.004 1349.38 264.537 1352.83 267.118C1356.21 269.696 1360.69 271.157 1364.68 270.089C1372.64 268.237 1377.81 261.484 1378.75 255.205L1377.99 255.577C1381.99 257.657 1386.25 257.778 1389.65 257.049C1393.1 256.346 1395.79 254.788 1397.69 253.266C1399.6 251.716 1400.72 250.14 1401.39 249.053C1402 247.924 1402.25 247.301 1402.21 247.284C1402.04 247.148 1401.14 249.88 1397.34 252.817C1395.44 254.22 1392.81 255.648 1389.49 256.244C1386.22 256.872 1382.18 256.661 1378.48 254.665L1377.84 254.32L1377.72 255.038C1376.77 260.898 1371.79 267.202 1364.41 268.836C1360.79 269.765 1356.85 268.456 1353.64 266.017C1350.42 263.582 1347.68 260.177 1345.91 256.256L1345.63 255.634L1345 255.876C1341.68 257.13 1338.19 258.28 1334.57 258.377C1330.95 258.529 1327.35 257.337 1324.23 255.196C1318.41 251.428 1314.69 245.202 1313.71 238.849L1313.47 237.252L1312.44 238.513C1310.16 241.309 1306.33 242.517 1302.89 242.154C1301.16 241.982 1299.48 241.453 1298.1 240.526C1296.75 239.638 1295.66 238.201 1294.45 236.958C1292.12 234.434 1289.98 231.896 1288.62 229.106C1287.2 226.352 1286.87 223.302 1287.72 220.662L1287.98 219.849L1287.13 219.922C1281.97 220.377 1277.27 218.808 1273.77 216.612C1270.19 214.45 1267.77 211.642 1266.15 209.189C1262.96 204.133 1262.99 200.546 1262.75 200.629Z" fill="#3E5963"/>
<path d="M1297.24 356.39C1296.03 356.531 1297.43 364.515 1291.6 371.389C1285.79 378.277 1277.12 378.885 1277.25 380.011C1277.23 380.531 1279.42 381.226 1283.03 380.69C1286.57 380.187 1291.52 378.145 1295.09 373.942C1298.64 369.73 1299.61 364.779 1299.3 361.457C1299.02 358.066 1297.78 356.247 1297.24 356.39Z" fill="#1E2E35"/>
<path d="M1020.61 741.636C1024.9 739.92 1166.68 722.884 1166.68 722.884L1224.2 674.186L1218.8 815.166L1037.78 832.619L1020.61 741.636Z" fill="#1853A6"/>
<path d="M1198.77 695.718C1197.04 696.579 1182.83 709.206 1182.83 709.206L1187.17 817.766L1198.77 695.718Z" fill="#1853A6"/>
<path d="M1440.32 951.028H1200.85C1200.85 951.028 1213.53 1018.6 1218.22 1049.73C1222.92 1080.87 1229.78 1102.96 1229.78 1102.96H1446.66C1446.66 1102.96 1462.86 1063.71 1465.67 1038.5C1468.49 1013.3 1440.32 951.028 1440.32 951.028Z" fill="#1E2E35"/>
<path d="M1183.01 959.182C1183.01 959.182 1176.32 1036.2 1183.01 1102.96H1265.96V1041.45L1183.01 959.182Z" fill="#1E2E35"/>
<path d="M1229.09 581.64L1254.9 525.128L1258.1 490.222C1258.1 490.222 1307.59 459.118 1331.07 447.381C1354.54 435.642 1386.17 425.017 1386.17 425.017V457.953L1229.09 581.64Z" fill="#ECECEC"/>
<path d="M1444.8 870.27C1444.8 870.27 1458.81 681.901 1459.76 667.901C1459.76 667.901 1468.04 567.253 1450.17 528.927C1432.3 490.602 1392.31 456.917 1392.31 456.917L1388.63 436.798L1310.51 486.03L1274.41 517.435C1274.41 517.435 1253.91 539.074 1240.34 559.826C1230.09 574.006 1218.69 592.251 1213.62 615.193C1211.77 623.581 1190.28 723.855 1189.63 793.753C1189.63 793.753 1186.33 854.73 1182.81 889.271C1178.45 932.022 1171.81 1029.48 1173.25 1087.22L1426.37 1079.49C1488.92 1069.95 1477.92 1063.73 1477.92 1063.73L1444.8 870.27Z" fill="#2A5FB8"/>
<path d="M1386.17 457.952C1386.17 457.952 1385.58 458.255 1384.42 458.753C1383.19 459.269 1381.46 459.987 1379.25 460.911C1377.05 461.974 1374.36 463.377 1371.21 465.011C1368.19 466.885 1364.58 468.819 1360.85 471.48C1345.66 481.67 1325.63 498.938 1305.23 522.882L1305.09 523.051L1304.88 523.09C1297.17 524.507 1289.03 526.004 1280.59 527.555L1281.12 526.95C1280.74 538.231 1280.34 550.074 1279.92 562.328L1279.91 562.606L1279.7 562.804C1267.54 574.322 1255.18 587.356 1243.99 601.947C1239.46 607.926 1235.27 614.072 1231.75 620.452L1230.43 622.838L1229.42 625.33C1228.73 626.978 1228.07 628.635 1227.59 630.379C1226.5 633.81 1225.44 637.214 1224.55 640.652C1220.81 654.33 1217.71 667.682 1214.82 680.402C1209.05 705.855 1204.25 728.868 1200.27 748.202C1192.33 786.875 1187.85 810.876 1187.85 810.876C1187.85 810.876 1187.91 809.339 1188.4 806.474C1188.84 803.599 1189.57 799.376 1190.54 793.939C1192.5 783.074 1195.46 767.372 1199.31 748.006C1203.16 728.642 1207.86 705.603 1213.56 680.119C1216.43 667.379 1219.49 654.018 1223.23 640.287C1224.11 636.843 1225.18 633.408 1226.27 629.947C1226.76 628.204 1227.43 626.491 1228.15 624.779L1229.2 622.202L1230.53 619.783C1234.1 613.316 1238.31 607.119 1242.88 601.102C1254.15 586.415 1266.53 573.375 1278.79 561.806L1278.57 562.282C1279.01 550.027 1279.44 538.187 1279.84 526.904L1279.86 526.39L1280.37 526.299C1288.8 524.778 1296.95 523.307 1304.67 521.915L1304.31 522.123C1324.9 498.143 1345.09 480.975 1360.46 470.902C1364.24 468.274 1367.89 466.374 1370.95 464.543C1374.15 462.947 1376.87 461.591 1379.1 460.578C1381.35 459.722 1383.1 459.055 1384.35 458.578C1385.54 458.136 1386.17 457.952 1386.17 457.952Z" fill="#1E2E35"/>
<path d="M1301.2 606.8L1304.23 858.155L1265.96 1102.96H1366.86C1366.86 1102.96 1412.72 917.085 1423.4 878.024C1433.77 840.096 1449.31 649.173 1450.69 639.8C1451.23 636.125 1462.17 570.189 1429.97 539.084" fill="#2A5FB8"/>
<path d="M1429.97 539.085C1429.97 539.085 1430.7 539.778 1432.08 541.182C1433.45 542.59 1435.38 544.811 1437.59 547.957C1442 554.226 1447.2 564.586 1450.19 578.931C1453.21 593.233 1454.27 611.297 1452.11 631.966C1450.6 642.262 1449.84 653.269 1448.72 665.001C1447.66 676.718 1446.53 689.103 1445.35 702.113C1442.94 728.127 1440.22 756.63 1436.94 787.211C1435.26 802.497 1433.51 818.31 1431.35 834.566C1429.15 850.791 1427.01 867.615 1422.46 884.393C1405.6 951.538 1387.05 1025.43 1367.54 1103.13L1367.41 1103.66H1366.86C1363.43 1103.66 1359.71 1103.66 1355.98 1103.66C1325.36 1103.66 1295.28 1103.65 1265.96 1103.65H1265.15L1265.28 1102.85C1279.44 1012.56 1292.51 929.223 1303.67 858.067L1303.66 858.162C1302.84 782.049 1302.17 719.221 1301.7 675.385C1301.5 653.501 1301.35 636.363 1301.24 624.666C1301.21 618.85 1301.18 614.394 1301.17 611.357C1301.16 608.35 1301.2 606.801 1301.2 606.801C1301.2 606.801 1301.28 608.347 1301.34 611.354C1301.4 614.391 1301.48 618.847 1301.58 624.661C1301.76 636.359 1302.02 653.494 1302.35 675.377C1302.94 719.21 1303.78 782.037 1304.8 858.147L1304.81 858.195L1304.8 858.243C1293.71 929.41 1280.72 1012.76 1266.64 1103.07L1265.96 1102.27C1295.28 1102.27 1325.36 1102.27 1355.98 1102.26H1366.86L1366.19 1102.79C1385.74 1025.1 1404.33 951.201 1421.23 884.057C1425.76 867.383 1427.92 850.631 1430.14 834.406C1432.32 818.169 1434.09 802.363 1435.8 787.086C1439.13 756.521 1441.9 728.027 1444.37 702.021C1445.59 689.015 1446.75 676.634 1447.84 664.921C1448.99 653.241 1449.8 642.102 1451.34 631.882C1453.57 611.298 1452.59 593.293 1449.67 579.041C1446.76 564.745 1441.68 554.409 1437.36 548.115C1435.19 544.958 1433.31 542.715 1431.97 541.278C1430.63 539.846 1429.97 539.085 1429.97 539.085Z" fill="#1E2E35"/>
<path d="M1354.56 882.89C1354.5 883.063 1351.51 882.253 1346.76 880.633C1342.02 879.014 1335.54 876.546 1328.55 873.445C1321.55 870.337 1315.38 867.187 1311 864.754C1306.61 862.322 1304 860.645 1304.09 860.485C1304.19 860.307 1306.97 861.678 1311.45 863.878C1315.94 866.079 1322.15 869.074 1329.12 872.167C1336.08 875.255 1342.47 877.855 1347.11 879.706C1351.75 881.557 1354.63 882.698 1354.56 882.89Z" fill="#1E2E35"/>
<path d="M1181.82 899.553C1181.79 899.552 1181.78 899.328 1181.79 898.893C1181.81 898.377 1181.83 897.745 1181.86 896.969C1181.96 895.164 1182.09 892.695 1182.26 889.576C1182.67 883.037 1183.26 873.785 1183.99 862.403C1185.53 839.465 1187.74 807.779 1190.84 772.831C1193.93 737.872 1197.5 706.297 1200.41 683.489C1201.87 672.085 1203.11 662.865 1204.05 656.504C1204.51 653.415 1204.87 650.971 1205.14 649.183C1205.27 648.416 1205.37 647.792 1205.46 647.283C1205.54 646.856 1205.59 646.639 1205.62 646.641C1205.64 646.645 1205.64 646.869 1205.6 647.303C1205.55 647.816 1205.49 648.447 1205.42 649.22C1205.22 651.015 1204.94 653.471 1204.59 656.575C1203.82 663.08 1202.73 672.284 1201.39 683.608C1198.73 706.44 1195.33 738.012 1192.23 772.956C1189.14 807.887 1186.77 839.556 1184.97 862.475C1184.06 873.843 1183.32 883.084 1182.8 889.613C1182.52 892.727 1182.3 895.188 1182.14 896.988C1182.06 897.761 1181.99 898.389 1181.93 898.904C1181.88 899.335 1181.84 899.555 1181.82 899.553Z" fill="#1E2E35"/>
<path d="M1386.17 507.372C1385.74 507.52 1383.26 497.714 1376.68 487.35C1370.19 476.919 1362.43 470.442 1362.75 470.112C1362.85 469.984 1364.92 471.43 1367.86 474.248C1370.81 477.059 1374.54 481.332 1377.86 486.606C1381.17 491.886 1383.4 497.099 1384.66 500.968C1385.93 504.842 1386.33 507.332 1386.17 507.372Z" fill="#1E2E35"/>
<path d="M1208.12 819.662C1208.19 819.646 1208.44 820.28 1208.36 821.489C1208.27 822.669 1207.75 824.476 1206.17 826.038C1204.69 827.62 1201.75 828.75 1198.89 827.692C1197.49 827.213 1196.15 826.304 1195.15 825.016C1194.14 823.738 1193.59 821.986 1193.64 820.301C1193.67 818.137 1194.33 816.066 1195.58 814.453C1196.2 813.653 1197.01 812.986 1197.93 812.597C1198.9 812.24 1199.6 812.072 1200.4 811.817L1200.5 811.785L1200.58 811.788C1202.41 811.833 1204.18 812.226 1205.45 813.186C1206.73 814.11 1207.38 815.384 1207.7 816.385C1208.32 818.441 1208.2 819.652 1208.12 819.662C1207.95 819.697 1207.8 818.481 1207.03 816.644C1206.63 815.748 1205.99 814.71 1204.88 814.012C1203.79 813.28 1202.26 812.996 1200.58 813.008L1200.77 812.98C1200.04 813.238 1199.12 813.516 1198.45 813.782C1197.77 814.092 1197.15 814.616 1196.65 815.282C1195.64 816.617 1195.05 818.454 1195.04 820.31C1194.89 823.258 1196.98 825.636 1199.32 826.48C1201.69 827.413 1204.08 826.614 1205.49 825.317C1206.96 824.037 1207.58 822.472 1207.82 821.408C1208.06 820.322 1208 819.676 1208.12 819.662Z" fill="#1E2E35"/>
<path d="M1204.36 908.54C1204.43 908.524 1204.69 909.158 1204.61 910.366C1204.52 911.548 1204 913.353 1202.41 914.917C1200.94 916.497 1198 917.629 1195.14 916.569C1193.73 916.092 1192.4 915.181 1191.4 913.894C1190.39 912.616 1189.83 910.864 1189.88 909.178C1189.91 907.016 1190.58 904.945 1191.83 903.332C1192.45 902.532 1193.26 901.864 1194.18 901.476C1195.14 901.118 1195.84 900.949 1196.64 900.694L1196.74 900.662L1196.83 900.665C1198.66 900.71 1200.43 901.105 1201.7 902.064C1202.98 902.988 1203.62 904.261 1203.95 905.262C1204.57 907.318 1204.45 908.529 1204.36 908.54C1204.2 908.574 1204.05 907.358 1203.28 905.522C1202.88 904.626 1202.24 903.588 1201.13 902.889C1200.04 902.157 1198.5 901.874 1196.83 901.886L1197.02 901.857C1196.29 902.116 1195.36 902.393 1194.7 902.661C1194.02 902.97 1193.4 903.493 1192.89 904.16C1191.89 905.494 1191.3 907.332 1191.28 909.188C1191.13 912.136 1193.23 914.513 1195.57 915.357C1197.94 916.29 1200.33 915.492 1201.74 914.194C1203.21 912.914 1203.83 911.349 1204.07 910.286C1204.3 909.2 1204.24 908.553 1204.36 908.54Z" fill="#1E2E35"/>
<path d="M1418.6 524.209C1418.46 524.449 1415.13 522.316 1409.24 520.058C1406.31 518.905 1402.7 517.866 1398.63 517.034C1394.54 516.288 1389.98 515.797 1385.19 515.833C1380.39 515.929 1375.84 516.545 1371.78 517.405C1367.73 518.349 1364.15 519.486 1361.25 520.721C1355.42 523.14 1352.15 525.364 1352.01 525.128C1351.95 525.048 1352.74 524.46 1354.22 523.458C1354.95 522.944 1355.87 522.349 1357 521.766C1358.12 521.172 1359.37 520.418 1360.85 519.816C1363.75 518.444 1367.37 517.182 1371.49 516.152C1375.62 515.202 1380.26 514.533 1385.17 514.436C1390.07 514.398 1394.72 514.94 1398.88 515.773C1403.02 516.69 1406.68 517.85 1409.61 519.142C1411.11 519.705 1412.38 520.422 1413.51 520.986C1414.66 521.538 1415.6 522.106 1416.34 522.601C1417.85 523.561 1418.65 524.126 1418.6 524.209Z" fill="#1E2E35"/>
<path d="M1197.58 759.325C1208.51 743.42 1212.52 728.419 1218.36 710.024C1227.04 682.688 1229.46 651.803 1243.08 626.563C1251.1 611.699 1260.53 596.447 1274.47 586.916C1288.07 577.62 1290.09 565.801 1289.82 533.839C1299.54 533.936 1309.82 526.44 1311.04 525.128C1317.66 518.011 1322.45 506.711 1322.96 502.785C1316.14 510.201 1304.77 522.503 1304.77 522.503C1304.77 522.503 1280.12 527.084 1280.48 526.928C1279.87 539.224 1279.85 550.009 1279.25 562.305C1279.25 562.305 1231.95 612.491 1228.26 622.58C1224.58 632.669 1197.58 759.325 1197.58 759.325Z" fill="black"/>
<path d="M1373.19 1072.64C1433.13 959.182 1451.76 810.001 1448.2 667.901C1448.2 667.901 1430.99 840.62 1425.19 870.27C1419.43 899.711 1373.19 1072.64 1373.19 1072.64Z" fill="black"/>
<path d="M1382.34 439.692C1382.37 439.734 1381.9 440.086 1381 440.719C1379.96 441.422 1378.64 442.32 1377 443.43C1373.35 445.83 1368.32 449.135 1362.17 453.176C1349.44 461.379 1332.11 472.547 1312.97 484.886C1305.55 489.612 1298.41 494.166 1291.73 498.424L1291.78 498.391C1289.46 500.187 1287.2 501.938 1285 503.638C1282.75 505.292 1280.81 506.974 1278.94 508.811C1275.23 512.402 1271.92 515.891 1268.94 519.059L1268.41 519.631L1268.1 518.922C1264.88 511.492 1262.26 505.42 1260.36 501.028C1259.52 499.015 1258.84 497.39 1258.32 496.13C1257.86 495.002 1257.65 494.4 1257.7 494.379C1257.74 494.359 1258.05 494.92 1258.59 496.008C1259.18 497.24 1259.93 498.828 1260.87 500.796C1262.88 505.142 1265.65 511.152 1269.03 518.503L1268.19 518.366C1271.12 515.142 1274.39 511.603 1278.1 507.946C1279.91 506.12 1282.03 504.258 1284.24 502.614C1286.42 500.904 1288.66 499.144 1290.96 497.34L1290.99 497.323L1291.01 497.307C1297.68 493.028 1304.81 488.456 1312.21 483.71C1331.45 471.502 1348.86 460.454 1361.65 452.339C1367.9 448.452 1373.01 445.275 1376.72 442.967C1378.41 441.948 1379.78 441.124 1380.85 440.479C1381.8 439.923 1382.32 439.651 1382.34 439.692Z" fill="#1E2E35"/>
<path d="M120.889 323.068C120.569 323.248 109.165 303.464 95.4228 278.888C81.6761 254.304 70.7948 234.234 71.1148 234.056C71.4361 233.876 82.8361 253.654 96.5841 278.238C110.327 302.816 121.209 322.889 120.889 323.068Z" fill="#1E2E35"/>
<path d="M159.423 237.749C159.79 237.769 159.25 252.919 158.217 271.583C157.183 290.253 156.05 305.368 155.683 305.348C155.317 305.328 155.857 290.18 156.89 271.509C157.922 252.847 159.057 237.728 159.423 237.749Z" fill="#1E2E35"/>
<path d="M93.3387 344.043C93.2214 344.391 80.3654 340.359 64.6267 335.04C48.884 329.717 36.2201 325.124 36.3387 324.775C36.4561 324.428 49.3094 328.459 65.052 333.78C80.7907 339.099 93.456 343.695 93.3387 344.043Z" fill="#1E2E35"/>
<path d="M286.112 382.098C262.403 327.978 199.31 303.323 145.19 327.032C91.0684 350.74 66.415 413.835 90.123 467.955C107.29 507.138 145.1 530.858 185.203 531.979C190.29 543.591 196.034 556.7 196.034 556.7L281.922 519.075C281.922 519.075 276.362 504.972 271.128 492.503C295.555 462.403 302.739 420.052 286.112 382.098Z" fill="#2A5FB8"/>
<path d="M269.051 524.687C269.051 524.687 268.806 524.307 268.359 523.545C267.907 522.764 267.251 521.632 266.395 520.155C264.683 517.165 262.194 512.737 259.069 506.989C252.85 495.48 244.095 478.672 234.497 457.328C232.09 451.996 229.638 446.379 227.159 440.493C225.935 437.544 224.689 434.535 223.417 431.468C222.182 428.409 220.798 425.225 220.509 421.703C220.363 419.953 220.583 418.129 221.274 416.455C221.961 414.801 223.21 413.229 224.999 412.544C226.795 411.837 228.83 412.243 230.447 413.149C232.069 414.084 233.439 415.468 234.33 417.144C236.158 420.545 235.766 424.755 234.146 428.203C232.519 431.699 229.666 434.608 226.239 436.527C222.805 438.445 218.753 439.356 214.73 439.024C210.693 438.716 206.791 437.047 203.531 434.567C200.263 432.079 197.57 428.768 195.814 424.957C194.947 423.057 194.246 421.028 194.055 418.888C193.854 416.788 194.078 414.457 195.458 412.631C196.135 411.736 197.114 411.056 198.182 410.704C199.255 410.365 200.399 410.292 201.494 410.464C203.702 410.768 205.717 411.963 207.253 413.516C208.817 415.067 210.01 416.927 211.038 418.84C212.058 420.764 212.959 422.741 213.785 424.767C215.418 428.816 216.646 433.108 217.021 437.556C217.395 441.972 216.891 446.636 214.805 450.708C213.786 452.737 212.457 454.617 210.802 456.173C209.142 457.716 207.158 458.933 204.983 459.596C202.802 460.251 200.474 460.264 198.278 459.831C196.069 459.389 194.01 458.44 192.154 457.253C188.431 454.856 185.405 451.647 182.719 448.299C181.37 446.624 180.106 444.895 178.895 443.145C177.687 441.401 176.459 439.647 175.553 437.689C174.65 435.761 174.098 433.535 174.51 431.368C174.702 430.296 175.102 429.24 175.79 428.356C176.473 427.467 177.501 426.837 178.606 426.64C179.715 426.42 180.851 426.639 181.835 427.064C182.83 427.485 183.715 428.084 184.522 428.753C186.141 430.089 187.43 431.757 188.555 433.444C193.078 440.187 195.838 448.184 195.158 456.048C194.801 459.96 193.454 463.727 191.286 466.884C189.13 470.036 186.038 472.573 182.441 473.692C178.841 474.871 174.921 474.327 171.663 472.8C168.375 471.295 165.586 468.801 163.894 465.717C163.033 464.187 162.45 462.519 162.217 460.792C162.027 459.08 162.163 457.251 163.125 455.732C163.61 454.985 164.349 454.396 165.189 454.103C166.038 453.807 166.973 453.845 167.79 454.115C169.445 454.665 170.693 455.853 171.75 457.065C173.919 459.529 175.098 462.511 176.511 465.199C177.882 467.936 179.222 470.613 180.53 473.228C190.966 494.165 199.102 511.263 204.509 523.176C207.218 529.131 209.234 533.793 210.585 536.961C211.238 538.539 211.738 539.747 212.085 540.58C212.417 541.399 212.569 541.825 212.569 541.825C212.569 541.825 212.367 541.419 212.011 540.611C211.649 539.784 211.126 538.587 210.441 537.023C209.045 533.876 206.985 529.235 204.234 523.301C198.746 511.431 190.538 494.375 180.041 473.473C178.725 470.863 177.378 468.189 176.001 465.456C174.57 462.751 173.393 459.813 171.298 457.456C170.282 456.288 169.067 455.171 167.606 454.695C166.17 454.171 164.462 454.744 163.643 456.073C162.806 457.388 162.655 459.103 162.843 460.715C163.065 462.336 163.627 463.947 164.454 465.407C166.079 468.356 168.771 470.756 171.939 472.199C175.083 473.664 178.825 474.169 182.237 473.044C185.663 471.972 188.63 469.539 190.711 466.489C192.802 463.435 194.107 459.776 194.447 455.985C195.102 448.337 192.401 440.487 187.942 433.857C186.825 432.185 185.591 430.601 184.046 429.325C182.545 428.089 180.641 427.007 178.745 427.377C176.809 427.671 175.558 429.563 175.251 431.499C174.878 433.472 175.374 435.515 176.241 437.373C177.107 439.243 178.313 440.971 179.521 442.711C180.726 444.449 181.981 446.163 183.315 447.82C185.973 451.131 188.959 454.284 192.565 456.603C194.363 457.752 196.338 458.659 198.433 459.076C200.519 459.485 202.715 459.471 204.762 458.855C208.893 457.608 212.191 454.271 214.111 450.363C216.121 446.444 216.614 441.944 216.25 437.62C215.886 433.276 214.682 429.052 213.07 425.055C211.387 421.111 209.659 417.045 206.715 414.059C205.251 412.581 203.409 411.501 201.385 411.217C199.393 410.888 197.246 411.493 196.058 413.095C194.853 414.675 194.61 416.82 194.806 418.816C194.985 420.844 195.654 422.797 196.495 424.645C198.194 428.339 200.81 431.563 203.978 433.977C207.142 436.388 210.906 438 214.79 438.3C218.666 438.625 222.578 437.751 225.891 435.904C229.199 434.06 231.953 431.253 233.514 427.908C235.074 424.609 235.422 420.611 233.731 417.467C232.906 415.904 231.615 414.601 230.118 413.735C228.619 412.895 226.803 412.547 225.238 413.161C223.665 413.757 222.521 415.163 221.875 416.707C221.227 418.269 221.013 419.983 221.149 421.655C221.414 425.029 222.759 428.171 223.991 431.236C225.254 434.301 226.494 437.312 227.709 440.263C230.173 446.148 232.606 451.769 234.997 457.104C244.523 478.461 253.198 495.297 259.334 506.847C262.418 512.613 264.863 517.065 266.531 520.077C267.358 521.572 267.991 522.715 268.429 523.505C268.851 524.28 269.051 524.687 269.051 524.687Z" fill="white"/>
<path d="M193.677 524.467C193.678 524.494 193.227 524.535 192.365 524.588C191.503 524.623 190.231 524.751 188.59 524.743C185.31 524.819 180.547 524.671 174.719 523.922C168.894 523.183 162.015 521.711 154.671 519.152C147.329 516.606 139.561 512.884 132.083 507.915C124.639 502.888 118.242 497.119 113.094 491.296C107.933 485.476 103.955 479.674 101.055 474.567C98.1459 469.463 96.1979 465.114 95.0206 462.052C94.3886 460.538 94.0232 459.314 93.7286 458.503C93.4499 457.686 93.3166 457.252 93.3419 457.244C93.3659 457.235 93.5499 457.651 93.8739 458.45C94.2179 459.242 94.6272 460.446 95.2992 461.939C96.5579 464.956 98.5739 469.25 101.529 474.292C104.473 479.336 108.473 485.068 113.626 490.822C118.767 496.578 125.13 502.286 132.514 507.272C139.933 512.203 147.63 515.914 154.907 518.48C162.187 521.056 169.01 522.576 174.794 523.38C180.581 524.194 185.319 524.426 188.59 524.442C190.226 524.496 191.495 524.416 192.358 524.434C193.221 524.43 193.675 524.44 193.677 524.467Z" fill="#1E2E35"/>
<path d="M89.3168 436.737C89.5275 436.701 90.1195 439.113 90.6395 442.125C91.1595 445.138 91.4115 447.61 91.1995 447.646C90.9901 447.682 90.3968 445.27 89.8768 442.257C89.3568 439.245 89.1061 436.773 89.3168 436.737Z" fill="#1E2E35"/>
<path d="M285.246 409.614C285.219 409.618 285.119 409.238 284.951 408.513C284.777 407.713 284.545 406.657 284.255 405.334C284.109 404.636 283.947 403.869 283.773 403.034C283.57 402.201 283.285 401.31 283.017 400.345C282.439 398.426 281.922 396.198 280.983 393.853C280.551 392.668 280.099 391.426 279.629 390.136C279.147 388.846 278.503 387.564 277.918 386.204C276.794 383.457 275.233 380.697 273.674 377.753C270.331 371.993 266.169 365.936 261.101 360.148C255.955 354.421 250.438 349.565 245.117 345.558C242.379 343.66 239.825 341.781 237.231 340.337C235.951 339.593 234.754 338.8 233.531 338.169C232.306 337.548 231.127 336.95 230.002 336.381C227.786 335.168 225.635 334.389 223.799 333.586C222.873 333.205 222.023 332.816 221.218 332.516C220.413 332.242 219.67 331.99 218.994 331.761C217.715 331.317 216.694 330.961 215.922 330.692C215.221 330.44 214.855 330.293 214.863 330.268C214.87 330.242 215.25 330.337 215.966 330.542C216.751 330.777 217.79 331.088 219.09 331.476C219.775 331.686 220.527 331.918 221.345 332.17C222.159 332.45 223.021 332.821 223.959 333.185C225.819 333.952 227.995 334.701 230.241 335.888C231.381 336.448 232.573 337.033 233.814 337.642C235.051 338.264 236.263 339.048 237.559 339.785C240.185 341.216 242.77 343.086 245.538 344.984C250.921 348.986 256.497 353.864 261.678 359.634C266.787 365.465 270.963 371.582 274.295 377.404C275.849 380.377 277.398 383.168 278.503 385.944C279.082 387.318 279.715 388.616 280.185 389.918C280.641 391.222 281.081 392.476 281.501 393.676C282.411 396.045 282.895 398.296 283.434 400.234C283.685 401.21 283.95 402.109 284.131 402.952C284.283 403.793 284.423 404.568 284.551 405.273C284.781 406.61 284.966 407.68 285.105 408.486C285.223 409.222 285.273 409.61 285.246 409.614Z" fill="#1E2E35"/>
<path d="M153.47 356.307C149.963 352.931 144.095 351.931 137.982 352.683C129.238 353.759 121.407 358.545 115.926 365.443C99.8003 385.742 93.743 404.339 96.8003 431.291C97.8363 440.419 102.423 454.238 109.819 460.389C113.538 463.479 118.306 465.171 123.1 464.542C135.57 462.903 139.642 448.301 138.567 436.529C137.566 425.558 133.979 414.245 137.511 403.809C140.42 395.213 147.648 388.906 152.66 381.339C157.672 373.773 160.008 362.602 153.47 356.307Z" fill="white"/>
<path d="M191.084 335.264C184.728 330.577 174.516 331.958 170.273 336.664C166.868 340.67 165.305 346.257 166.428 351.393C167.782 357.582 173.197 362.725 179.477 363.566C185.756 364.408 192.428 360.762 194.94 354.945C197.452 349.129 196.182 339.025 191.084 335.264Z" fill="white"/>
<path d="M241.809 596.023C241.809 596.023 246.325 596.764 249.595 598.536C251.294 599.458 253.339 599.487 255.109 598.71L272.386 591.124C274.322 590.274 275.73 588.528 276.105 586.447C276.543 584.007 277.837 580.787 279.994 579.259L241.809 596.023Z" fill="#1E2E35"/>
<path d="M201.982 556.123C202.134 556.469 217.99 581.699 224.054 591.344C226.544 595.304 230.813 597.924 235.489 597.985C237.197 598.009 239.028 597.719 240.88 596.907C248.285 593.655 278.67 580.316 278.67 580.316C278.67 580.316 288.546 575.981 287.346 567.163C286.082 557.881 276.308 523.495 276.308 523.495L201.982 556.123Z" fill="#E1E1E1"/>
<path d="M288.166 562.49L222.434 591.623C221.401 592.08 220.193 591.615 219.735 590.582L219.645 590.378C219.187 589.344 219.653 588.136 220.686 587.679L286.418 558.546C287.45 558.088 288.659 558.554 289.117 559.587L289.207 559.791C289.665 560.823 289.199 562.032 288.166 562.49Z" fill="#E1E1E1"/>
<path d="M288.166 562.489C288.115 562.449 288.775 562.3 289.175 561.34C289.358 560.865 289.362 560.201 288.981 559.546C288.669 558.902 287.827 558.348 286.895 558.54C283.301 560.062 278.041 562.518 271.562 565.4C258.539 571.2 240.622 579.18 220.83 587.994C220.31 588.222 219.93 588.716 219.841 589.272C219.798 589.548 219.817 589.833 219.91 590.097C220.015 590.374 220.146 590.666 220.321 590.862C220.682 591.285 221.259 591.506 221.809 591.437C222.309 591.366 222.963 590.978 223.555 590.745C225.971 589.677 228.35 588.625 230.689 587.59C235.366 585.525 239.878 583.533 244.178 581.633C252.771 577.856 260.514 574.452 267.034 571.585C273.518 568.762 278.778 566.472 282.469 564.866C284.262 564.101 285.671 563.501 286.678 563.072C287.134 562.885 287.497 562.737 287.781 562.621C288.03 562.522 288.161 562.478 288.166 562.489C288.17 562.5 288.05 562.568 287.81 562.686C287.533 562.818 287.179 562.988 286.735 563.2C285.741 563.657 284.349 564.298 282.578 565.114C278.91 566.769 273.679 569.128 267.234 572.036C260.731 574.941 253.01 578.392 244.438 582.221C240.143 584.132 235.637 586.136 230.966 588.214C228.629 589.252 226.25 590.308 223.837 591.38L222.93 591.782C222.649 591.906 222.286 592.085 221.893 592.128C221.117 592.225 220.306 591.916 219.793 591.317C219.527 591.002 219.382 590.67 219.25 590.322C219.121 589.952 219.093 589.546 219.153 589.157C219.277 588.377 219.818 587.674 220.547 587.357C240.371 578.616 258.318 570.701 271.362 564.948C277.894 562.117 283.097 559.757 286.845 558.272C287.917 558.077 288.842 558.732 289.166 559.454C289.549 560.146 289.527 560.902 289.307 561.39C288.83 562.4 288.129 562.489 288.166 562.489Z" fill="#1E2E35"/>
<path d="M285.828 553.373L217.31 583.741C216.277 584.198 215.069 583.733 214.612 582.7L214.521 582.494C214.064 581.462 214.529 580.254 215.562 579.796L284.08 549.429C285.112 548.972 286.32 549.437 286.778 550.47L286.869 550.674C287.326 551.708 286.86 552.916 285.828 553.373Z" fill="#E1E1E1"/>
<path d="M285.828 553.374C285.772 553.332 286.471 553.179 286.857 552.167C287.04 551.667 286.993 550.983 286.581 550.316C286.216 549.668 285.281 549.167 284.34 549.478C280.535 551.19 275.103 553.634 268.408 556.646C254.883 562.668 236.268 570.958 215.707 580.114C215.169 580.35 214.775 580.874 214.709 581.455C214.669 581.743 214.713 582.039 214.821 582.307C214.952 582.639 215.073 582.863 215.287 583.075C215.693 583.486 216.32 583.66 216.876 583.52C217.413 583.347 218.111 582.992 218.717 582.738C221.225 581.628 223.697 580.535 226.127 579.46C230.985 577.315 235.672 575.244 240.139 573.272C249.067 569.346 257.109 565.81 263.881 562.831C270.617 559.896 276.083 557.515 279.912 555.847C281.776 555.051 283.241 554.427 284.284 553.982C284.759 553.787 285.135 553.632 285.428 553.512C285.688 553.41 285.823 553.363 285.828 553.374C285.833 553.384 285.707 553.454 285.457 553.576C285.172 553.714 284.804 553.89 284.341 554.11C283.311 554.583 281.864 555.248 280.021 556.096C276.213 557.812 270.779 560.263 264.08 563.282C257.327 566.299 249.304 569.882 240.399 573.859C235.939 575.844 231.256 577.926 226.404 580.084C223.976 581.162 221.505 582.259 218.999 583.372C218.34 583.644 217.815 583.943 217.039 584.196C216.251 584.394 215.372 584.15 214.796 583.568C214.505 583.294 214.297 582.888 214.177 582.57C214.023 582.194 213.963 581.774 214.019 581.367C214.111 580.55 214.668 579.807 215.424 579.476C236.019 570.394 254.661 562.17 268.208 556.194C274.98 553.235 280.428 550.838 284.26 549.218C285.344 548.888 286.376 549.484 286.76 550.211C287.177 550.919 287.212 551.698 286.989 552.215C286.527 553.279 285.785 553.374 285.828 553.374Z" fill="#1E2E35"/>
<path d="M282.984 544.481L212.691 575.636C211.659 576.093 210.451 575.627 209.992 574.595L209.901 574.389C209.444 573.357 209.911 572.148 210.943 571.691L281.236 540.537C282.269 540.08 283.476 540.545 283.935 541.577L284.025 541.783C284.483 542.815 284.016 544.024 282.984 544.481Z" fill="#E1E1E1"/>
<path d="M282.984 544.481C282.925 544.44 283.649 544.284 284.025 543.239C284.206 542.723 284.13 542.023 283.693 541.353C283.293 540.705 282.301 540.241 281.362 540.633C277.466 542.388 271.902 544.895 265.044 547.983C251.198 554.148 232.14 562.635 211.088 572.008C210.537 572.251 210.137 572.793 210.085 573.391C210.053 573.688 210.106 573.984 210.226 574.261C210.368 574.6 210.496 574.817 210.726 575.027C211.164 575.428 211.818 575.564 212.377 575.383C212.962 575.147 213.65 574.825 214.28 574.552C216.848 573.416 219.378 572.296 221.865 571.196C226.84 568.999 231.638 566.88 236.21 564.86C245.35 560.84 253.585 557.219 260.517 554.169C267.414 551.163 273.01 548.724 276.928 547.016C278.838 546.201 280.338 545.56 281.404 545.104C281.89 544.904 282.277 544.747 282.574 544.623C282.841 544.519 282.978 544.471 282.984 544.481C282.989 544.492 282.86 544.563 282.604 544.688C282.313 544.828 281.936 545.007 281.461 545.232C280.408 545.717 278.926 546.397 277.038 547.265C273.141 549.02 267.576 551.528 260.717 554.62C253.802 557.708 245.588 561.376 236.47 565.448C231.904 567.479 227.11 569.611 222.142 571.82C219.657 572.924 217.128 574.047 214.56 575.187C213.901 575.472 213.314 575.756 212.588 576.045C211.798 576.301 210.878 576.111 210.261 575.544C209.95 575.283 209.717 574.864 209.589 574.544C209.422 574.167 209.346 573.736 209.392 573.32C209.465 572.481 210.03 571.709 210.805 571.371C231.889 562.069 250.977 553.649 264.844 547.532C271.744 544.527 277.342 542.089 281.262 540.381C282.345 539.956 283.445 540.512 283.868 541.241C284.313 541.953 284.38 542.749 284.158 543.283C283.705 544.384 282.938 544.48 282.984 544.481Z" fill="#1E2E35"/>
<path d="M280.679 535.351L207.535 567.768C206.503 568.227 205.293 567.76 204.836 566.728L204.745 566.523C204.288 565.489 204.755 564.283 205.787 563.824L278.931 531.407C279.963 530.949 281.171 531.415 281.629 532.448L281.72 532.653C282.177 533.685 281.711 534.893 280.679 535.351Z" fill="#E1E1E1"/>
<path d="M280.679 535.351C280.613 535.309 281.377 535.149 281.74 534.049C281.916 533.515 281.788 532.779 281.312 532.115C280.847 531.469 279.785 531.079 278.837 531.597C274.797 533.416 269.023 536.017 261.904 539.223C247.543 545.616 227.771 554.419 205.932 564.141C205.357 564.391 204.957 564.971 204.923 565.591C204.889 566.184 205.212 566.885 205.672 567.245C206.161 567.624 206.848 567.701 207.409 567.444C208.08 567.147 208.748 566.851 209.415 566.556C212.079 565.377 214.704 564.216 217.284 563.073C222.444 560.795 227.421 558.597 232.164 556.501C241.645 552.329 250.188 548.572 257.377 545.408C264.533 542.288 270.339 539.757 274.399 537.987C276.383 537.137 277.939 536.472 279.04 536C279.547 535.792 279.947 535.627 280.255 535.5C280.531 535.391 280.673 535.34 280.679 535.351C280.684 535.361 280.549 535.433 280.284 535.565C279.983 535.708 279.592 535.893 279.097 536.128C278.008 536.628 276.469 537.335 274.508 538.233C270.469 540.052 264.695 542.653 257.576 545.859C250.404 549.061 241.883 552.865 232.424 557.089C227.687 559.196 222.715 561.407 217.56 563.699C214.983 564.844 212.359 566.008 209.696 567.191C209.029 567.485 208.361 567.783 207.691 568.08C206.913 568.437 205.933 568.332 205.249 567.797C204.911 567.539 204.632 567.161 204.481 566.787C204.311 566.44 204.192 565.973 204.227 565.547C204.273 564.675 204.843 563.853 205.649 563.504C227.521 553.853 247.323 545.117 261.704 538.772C268.86 535.651 274.665 533.12 278.727 531.349C279.78 530.797 280.992 531.26 281.479 531.989C281.975 532.713 282.085 533.524 281.873 534.091C281.685 534.664 281.328 534.988 281.085 535.155C280.832 535.32 280.679 535.351 280.679 535.351Z" fill="#1E2E35"/>
<path d="M182.229 537.002C182.536 537.702 191.351 553.548 195.879 561.679C197.541 564.666 200.476 566.72 203.849 567.267L208.8 568.068L281.868 535.992L284.589 531.864C286.492 528.978 286.951 525.374 285.833 522.102L276.747 495.508L182.229 537.002Z" fill="#FF7D67"/>
<path d="M224.806 590.379C232.543 588.882 239.618 585.936 247.328 582.511C253.554 579.744 259.744 577.232 266.455 574.119C271.371 571.839 275.827 569.584 280.68 567.199C283.138 565.992 285.6 564.154 285.883 563.43L224.806 590.379Z" fill="black"/>
<path d="M218.454 582.991C226.741 581.253 234.363 578.067 242.675 574.377C249.387 571.397 256.057 568.674 263.295 565.33C268.598 562.879 273.411 560.469 278.65 557.914C281.302 556.621 283.981 554.689 284.302 553.947L218.454 582.991Z" fill="black"/>
<path d="M214.75 574.553C223.037 572.815 230.659 569.629 238.971 565.939C245.683 562.96 252.353 560.237 259.591 556.892C264.895 554.441 269.707 552.031 274.946 549.476C277.599 548.184 280.277 546.251 280.598 545.509L214.75 574.553Z" fill="black"/>
<path d="M211.046 566.115C219.333 564.377 226.955 561.191 235.269 557.502C241.979 554.521 248.649 551.799 255.887 548.454C261.191 546.005 266.003 543.593 271.242 541.038C273.894 539.746 276.573 537.813 276.894 537.071L211.046 566.115Z" fill="black"/>
<path d="M182.229 537.002C182.536 537.702 191.351 553.548 195.879 561.679C197.541 564.666 200.476 566.72 203.849 567.267L208.8 568.068L281.868 535.992L284.589 531.864C286.492 528.978 286.951 525.374 285.833 522.102L276.747 495.508L182.229 537.002Z" fill="#1853A6"/>
<path d="M285.59 526.406C285.668 526.582 266.186 535.306 242.082 545.886C217.972 556.471 198.368 564.907 198.29 564.73C198.213 564.554 217.69 555.834 241.802 545.249C265.906 534.668 285.513 526.23 285.59 526.406Z" fill="#1E2E35"/>
<path d="M276.019 495.253C276.112 495.445 254.995 505.003 228.859 516.6C202.715 528.199 181.452 537.445 181.359 537.253C181.267 537.06 202.379 527.504 228.524 515.904C254.659 504.308 275.927 495.061 276.019 495.253Z" fill="#1E2E35"/>
<path d="M1134.92 315.833L1101.4 311.922C1087.9 325.636 1070.56 335.906 1050.5 340.836C992.807 355.014 934.546 319.74 920.368 262.048C906.188 204.356 941.464 146.093 999.156 131.916C1056.85 117.737 1115.11 153.012 1129.29 210.704C1135.21 234.793 1132.48 258.972 1123.12 280.009L1123.16 279.961L1134.92 315.833Z" fill="white"/>
<path d="M1134.92 315.833C1134.92 315.833 1134.61 315.015 1134.09 313.464C1133.55 311.869 1132.77 309.584 1131.75 306.589C1129.72 300.532 1126.73 291.637 1122.84 280.067L1123.42 280.171L1123.39 280.219C1123.27 280.364 1123.06 280.388 1122.91 280.272C1122.79 280.176 1122.76 280.008 1122.82 279.872C1128.43 267.019 1133.36 248.969 1131.52 227.597C1131.07 222.284 1130.22 216.792 1128.85 211.227C1127.21 205.739 1125.71 199.989 1123.13 194.437C1118.34 183.232 1111.32 172.132 1101.88 162.363C1092.48 152.596 1080.69 144.184 1067.13 138.353C1053.6 132.509 1038.29 129.283 1022.51 129.611C990.999 129.969 957.754 146.159 937.8 174.603C927.708 189.064 920.972 205.628 918.992 222.5C916.819 239.331 918.734 256.205 923.935 271.419C929.086 286.684 937.828 300.069 948.266 310.816C958.743 321.58 971.046 329.663 983.73 334.972C996.427 340.305 1009.48 342.86 1021.79 343.24C1023.33 343.259 1024.86 343.279 1026.38 343.299C1027.9 343.345 1029.4 343.343 1030.89 343.156C1033.86 342.893 1036.79 342.635 1039.67 342.381C1045.33 341.252 1050.86 340.452 1055.97 338.804C1076.59 332.601 1091.5 321.447 1101.18 311.699C1101.25 311.627 1101.35 311.596 1101.44 311.605C1112.24 312.953 1120.56 313.992 1126.24 314.7C1129.04 315.059 1131.18 315.332 1132.69 315.524C1134.14 315.712 1134.92 315.833 1134.92 315.833C1134.92 315.833 1134.23 315.784 1132.81 315.637C1131.33 315.48 1129.21 315.257 1126.44 314.965C1120.7 314.341 1112.29 313.427 1101.37 312.24L1101.63 312.147C1091.99 322.043 1077.04 333.392 1056.26 339.755C1051.11 341.444 1045.53 342.279 1039.82 343.441C1036.91 343.711 1033.96 343.984 1030.95 344.261C1029.45 344.456 1027.93 344.465 1026.4 344.424C1024.86 344.411 1023.32 344.397 1021.76 344.383C1009.32 344.047 996.102 341.504 983.24 336.144C970.391 330.809 957.916 322.656 947.282 311.776C936.687 300.912 927.804 287.359 922.564 271.893C917.272 256.484 915.311 239.376 917.506 222.305C919.506 205.193 926.327 188.392 936.564 173.725C937.719 171.857 939.148 170.199 940.536 168.515L944.694 163.481L949.284 158.877C950.794 157.331 952.314 155.799 954.027 154.489C955.687 153.12 957.343 151.755 958.994 150.393C960.61 148.983 962.498 147.947 964.23 146.712C966.015 145.553 967.72 144.273 969.559 143.227C971.426 142.225 973.287 141.225 975.142 140.231C990.091 132.469 1006.49 128.385 1022.48 128.157C1038.47 127.844 1053.99 131.14 1067.68 137.085C1081.4 143.02 1093.32 151.565 1102.81 161.475C1112.32 171.387 1119.39 182.639 1124.2 193.984C1126.78 199.605 1128.28 205.42 1129.91 210.972C1131.27 216.597 1132.1 222.147 1132.53 227.513C1134.28 249.099 1129.19 267.264 1123.43 280.145L1122.86 279.799L1122.9 279.752C1123.01 279.607 1123.22 279.583 1123.37 279.697C1123.42 279.739 1123.46 279.799 1123.48 279.857C1127.23 291.585 1130.11 300.601 1132.07 306.74C1133.01 309.716 1133.73 311.985 1134.23 313.568C1134.71 315.091 1134.92 315.833 1134.92 315.833Z" fill="#1E2E35"/>
<path d="M975.28 238.866L988.152 224.63L1015.46 246.55L1056.03 199.964L1069.29 212.886L1014.84 272.787L975.28 238.866Z" fill="#1E2E35"/>
<path d="M839.725 325.138C844.59 324.53 851.723 323.641 860.986 322.485C861.066 322.477 861.154 322.502 861.214 322.565C869.507 330.924 882.294 340.488 899.975 345.805C904.357 347.218 909.101 347.905 913.954 348.873C916.419 349.09 918.929 349.312 921.479 349.537C922.753 349.697 924.043 349.698 925.346 349.658C926.646 349.642 927.958 349.626 929.281 349.609C939.834 349.284 951.03 347.092 961.915 342.52C964.709 341.35 967.479 340.018 970.209 338.537C969.374 338.214 968.537 337.91 967.703 337.564C955.109 332.334 942.882 324.342 932.458 313.678C922.073 303.029 913.367 289.745 908.23 274.586C903.043 259.484 901.122 242.714 903.273 225.982C905.233 209.209 911.919 192.741 921.953 178.365C923.085 176.534 924.486 174.909 925.846 173.258L929.921 168.324L931.674 166.566C930.669 166.518 929.662 166.449 928.661 166.438C915.133 166.157 902.007 168.924 890.403 173.934C878.775 178.934 868.669 186.148 860.607 194.522C852.521 202.897 846.498 212.414 842.391 222.022C840.179 226.782 838.894 231.713 837.489 236.418C836.307 241.19 835.582 245.898 835.194 250.454C833.619 268.778 837.843 284.256 842.659 295.277C842.709 295.39 842.679 295.53 842.579 295.614C839.274 305.449 836.73 313.022 834.995 318.184C834.125 320.752 833.461 322.712 832.997 324.078C832.543 325.409 832.283 326.11 832.283 326.11C832.283 326.11 832.949 326.006 834.198 325.844C835.485 325.68 837.321 325.445 839.725 325.138Z" fill="#F5F5F5"/>
<path d="M839.724 325.138C839.724 325.138 839.102 325.272 837.859 325.457C836.563 325.646 834.719 325.914 832.308 326.266L832.054 326.304L832.135 326.056C834.211 319.78 837.656 309.366 842.244 295.501L842.352 295.342C842.3 295.32 842.37 295.516 842.294 295.328L842.108 294.892L841.734 294.013C841.49 293.42 841.246 292.821 840.998 292.217C840.502 291.005 840.052 289.749 839.592 288.469C838.688 285.901 837.883 283.188 837.163 280.349C835.74 274.67 834.731 268.45 834.474 261.812C834.192 255.178 834.632 248.129 835.979 240.888C836.604 237.244 837.739 233.624 838.839 229.965C839.912 226.272 841.459 222.6 843.138 218.982C849.858 204.434 861.202 190.44 876.691 180.516C892.063 170.556 911.539 164.764 931.706 165.884L933.232 165.969L932.156 167.049C931.614 167.596 931.01 168.201 930.406 168.806L930.448 168.76C918.144 182.625 908.734 200.19 904.979 219.516C899.958 246.006 905.291 273.277 918.214 294.265C931.052 315.424 950.496 330.378 970.424 337.978L971.728 338.476L970.494 339.064C965.615 341.385 960.916 343.832 955.99 345.374C951.106 347.005 946.215 348.19 941.4 348.978C931.795 350.574 922.39 350.376 913.911 349.358L913.874 349.353L913.858 349.35C910.766 348.726 907.716 348.214 904.763 347.553C901.794 346.926 898.99 345.968 896.286 345.069C890.891 343.166 885.971 340.917 881.582 338.45C872.79 333.51 866.095 327.888 861.139 322.866C861.099 322.61 860.536 322.862 860.134 322.853C859.708 322.904 859.29 322.953 858.878 323.001C858.054 323.1 857.254 323.194 856.479 323.285C854.932 323.468 853.484 323.637 852.138 323.794C849.463 324.102 847.192 324.364 845.335 324.577C843.539 324.772 842.148 324.922 841.154 325.03C840.211 325.125 839.724 325.138 839.724 325.138C839.724 325.138 840.199 325.032 841.136 324.89C842.127 324.75 843.512 324.556 845.302 324.304C847.154 324.054 849.42 323.749 852.088 323.389C853.432 323.212 854.879 323.021 856.423 322.817C857.196 322.716 857.996 322.61 858.819 322.501C859.231 322.448 859.648 322.393 860.072 322.337L860.714 322.253C860.855 322.248 860.852 322.209 861.118 322.228C861.22 322.246 861.323 322.297 861.4 322.376L861.52 322.492C866.5 327.42 873.202 332.944 881.955 337.778C890.708 342.626 901.48 346.594 914.048 348.396L913.996 348.388C918.303 348.753 922.684 349.246 927.22 349.117C931.788 349.088 936.459 348.677 941.223 347.898C945.978 347.101 950.806 345.913 955.622 344.285C960.482 342.748 965.112 340.312 969.922 338.01L969.992 339.096C949.815 331.469 930.096 316.376 917.066 294.965C903.936 273.701 898.522 246.097 903.607 219.254C907.426 199.628 916.955 181.888 929.394 167.888L929.428 167.849L929.436 167.841C930.042 167.234 930.644 166.63 931.19 166.084L931.64 167.249C911.762 166.124 892.566 171.8 877.38 181.588C862.082 191.342 850.852 205.112 844.162 219.461C842.471 223.073 840.96 226.621 839.876 230.288C838.759 233.956 837.63 237.498 837 241.082C835.638 248.234 835.168 255.21 835.41 261.776C835.631 268.348 836.592 274.513 837.966 280.15C838.66 282.969 839.44 285.665 840.318 288.218C840.766 289.49 841.202 290.741 841.683 291.946C841.924 292.549 842.163 293.145 842.4 293.734L842.766 294.61L842.947 295.045C843.034 295.121 843.122 295.702 842.806 295.885L842.914 295.726C838.172 309.614 834.646 320.028 832.431 326.165L832.259 325.954C834.683 325.669 836.536 325.452 837.839 325.298C839.088 325.165 839.724 325.138 839.724 325.138Z" fill="#1E2E35"/>
<path d="M1747.22 341.334H1701.84C1698.56 341.334 1695.9 338.678 1695.9 335.401V140.934C1695.9 137.658 1698.56 135.001 1701.84 135.001H1747.22C1750.5 135.001 1753.15 137.658 1753.15 140.934V335.401C1753.15 338.678 1750.5 341.334 1747.22 341.334Z" fill="#3E5963"/>
<path d="M1567.65 350.094H1522.67C1519.29 350.094 1516.54 347.346 1516.54 343.957V262.562C1516.54 259.173 1519.29 256.425 1522.67 256.425H1567.65C1571.04 256.425 1573.79 259.173 1573.79 262.562V343.957C1573.79 347.346 1571.04 350.094 1567.65 350.094Z" fill="#3E5963"/>
<path d="M1655.7 350.094H1611.57C1607.94 350.094 1605.01 347.158 1605.01 343.537V212.049C1605.01 208.428 1607.94 205.492 1611.57 205.492H1655.7C1659.32 205.492 1662.26 208.428 1662.26 212.049V343.537C1662.26 347.158 1659.32 350.094 1655.7 350.094Z" fill="#3E5963"/>
<path d="M1731.99 66.8206C1732.03 66.8646 1731.56 67.486 1730.61 68.6406C1729.52 69.9366 1728.11 71.5953 1726.36 73.6566C1722.43 78.1633 1716.98 84.414 1710.21 92.1766C1696.13 108.045 1676.6 130.054 1654.06 155.467L1653.43 156.173L1652.64 155.654C1641.61 148.446 1629.75 140.705 1617.51 132.707L1619 132.49C1618.58 132.987 1618.12 133.529 1617.66 134.071C1588.72 168.022 1562.53 198.75 1543.37 221.225L1542.88 221.799L1542.28 221.355C1530.63 212.707 1521.14 205.658 1514.34 200.611C1511.22 198.229 1508.71 196.322 1506.82 194.878C1505.11 193.547 1504.24 192.818 1504.28 192.754C1504.33 192.69 1505.29 193.295 1507.09 194.506C1509.05 195.863 1511.63 197.654 1514.87 199.893C1521.76 204.797 1531.4 211.646 1543.23 220.049L1542.14 220.181C1561.16 197.595 1587.18 166.715 1615.92 132.595C1616.38 132.054 1616.84 131.514 1617.26 131.015L1617.92 130.245L1618.76 130.798C1630.99 138.821 1642.82 146.587 1653.84 153.818L1652.42 154.003C1675.21 128.806 1694.95 106.985 1709.17 91.2513C1716.15 83.6686 1721.76 77.562 1725.81 73.1593C1727.67 71.198 1729.16 69.618 1730.33 68.386C1731.37 67.314 1731.94 66.778 1731.99 66.8206Z" fill="#1E2E35"/>
<path d="M1733.8 110.38C1733.49 110.38 1733.21 105.361 1733.01 97.2146C1732.8 89.0692 1732.67 77.7945 1732.66 65.2825L1733.99 66.4079C1733.63 66.4666 1733.24 66.5319 1732.85 66.5959C1720.25 68.6759 1708.82 70.4332 1700.52 71.5932C1692.23 72.7519 1687.08 73.3132 1687.03 73.0026C1686.98 72.6919 1692.04 71.5679 1700.26 70.0012C1708.49 68.4346 1719.87 66.4252 1732.48 64.3452C1732.87 64.2812 1733.26 64.2159 1733.62 64.1572L1734.94 63.9386V65.2825C1734.94 77.7945 1734.8 89.0692 1734.6 97.2146C1734.39 105.361 1734.11 110.38 1733.8 110.38Z" fill="#1E2E35"/>
</svg>
