<svg width="1662" height="1380" viewBox="0 0 1662 1380" fill="none" xmlns="http://www.w3.org/2000/svg">
<path d="M1335.19 1378.83C1335.19 1379.31 1036.28 1379.71 667.629 1379.71C298.853 1379.71 0 1379.31 0 1378.83C0 1378.34 298.853 1377.95 667.629 1377.95C1036.28 1377.95 1335.19 1378.34 1335.19 1378.83Z" fill="#1E2E35"/>
<path d="M572.747 605.512L584.309 628.942C584.9 630.139 586.043 630.968 587.363 631.16L613.219 634.918C616.545 635.402 617.873 639.488 615.467 641.835L596.757 660.072C595.801 661.003 595.365 662.346 595.591 663.662L600.008 689.414C600.576 692.726 597.099 695.252 594.123 693.688L570.997 681.53C569.816 680.91 568.404 680.91 567.223 681.53L544.096 693.688C541.121 695.252 537.644 692.726 538.212 689.414L542.629 663.662C542.855 662.346 542.419 661.003 541.463 660.072L522.753 641.835C520.347 639.488 521.675 635.402 525 634.918L550.856 631.16C552.177 630.968 553.32 630.139 553.911 628.942L565.473 605.512C566.961 602.498 571.259 602.498 572.747 605.512Z" fill="#E1E1E1"/>
<path d="M467.015 470.082L475.015 486.29C475.423 487.118 476.212 487.693 477.127 487.825L495.014 490.425C497.315 490.758 498.234 493.586 496.568 495.21L483.626 507.826C482.964 508.47 482.663 509.399 482.819 510.309L485.874 528.123C486.267 530.415 483.862 532.163 481.803 531.082L465.804 522.67C464.987 522.241 464.011 522.241 463.194 522.67L447.195 531.082C445.138 532.163 442.731 530.415 443.124 528.123L446.18 510.309C446.336 509.399 446.034 508.47 445.374 507.826L432.43 495.21C430.764 493.586 431.683 490.758 433.986 490.425L451.872 487.825C452.786 487.693 453.575 487.118 453.984 486.29L461.983 470.082C463.012 467.997 465.986 467.997 467.015 470.082Z" fill="#E1E1E1"/>
<path d="M1045.77 51.2745L1051.31 62.5065C1051.59 63.0811 1052.14 63.4785 1052.78 63.5705L1065.17 65.3718C1066.77 65.6038 1067.4 67.5638 1066.25 68.6891L1057.28 77.4318C1056.82 77.8785 1056.61 78.5225 1056.72 79.1518L1058.84 91.4985C1059.11 93.0865 1057.44 94.2985 1056.02 93.5478L1044.93 87.7185C1044.36 87.4211 1043.69 87.4211 1043.12 87.7185L1032.03 93.5478C1030.61 94.2985 1028.94 93.0865 1029.21 91.4985L1031.33 79.1518C1031.44 78.5225 1031.23 77.8785 1030.77 77.4318L1021.8 68.6891C1020.64 67.5638 1021.28 65.6038 1022.88 65.3718L1035.27 63.5705C1035.91 63.4785 1036.45 63.0811 1036.74 62.5065L1042.28 51.2745C1042.99 49.8291 1045.05 49.8291 1045.77 51.2745Z" fill="#E1E1E1"/>
<path d="M1529.76 630.337L1535.31 641.57C1535.59 642.144 1536.14 642.541 1536.77 642.633L1549.17 644.434C1550.76 644.666 1551.4 646.626 1550.24 647.75L1541.27 656.494C1540.81 656.941 1540.61 657.585 1540.71 658.216L1542.83 670.561C1543.1 672.149 1541.44 673.361 1540.01 672.61L1528.92 666.781C1528.36 666.484 1527.68 666.484 1527.11 666.781L1516.03 672.61C1514.6 673.361 1512.93 672.149 1513.21 670.561L1515.32 658.216C1515.43 657.585 1515.22 656.941 1514.76 656.494L1505.79 647.75C1504.64 646.626 1505.28 644.666 1506.87 644.434L1519.27 642.633C1519.9 642.541 1520.45 642.144 1520.73 641.57L1526.27 630.337C1526.99 628.892 1529.05 628.892 1529.76 630.337Z" fill="#E1E1E1"/>
<path d="M1401.6 578.598L1410.74 597.128C1411.21 598.074 1412.11 598.73 1413.16 598.882L1433.61 601.853C1436.24 602.236 1437.29 605.469 1435.38 607.324L1420.59 621.746C1419.83 622.484 1419.49 623.545 1419.67 624.585L1423.16 644.95C1423.61 647.57 1420.86 649.569 1418.5 648.332L1400.21 638.717C1399.28 638.225 1398.16 638.225 1397.23 638.717L1378.94 648.332C1376.59 649.569 1373.84 647.57 1374.29 644.95L1377.78 624.585C1377.96 623.545 1377.61 622.484 1376.86 621.746L1362.06 607.324C1360.16 605.469 1361.21 602.236 1363.84 601.853L1384.29 598.882C1385.33 598.73 1386.23 598.074 1386.7 597.128L1395.85 578.598C1397.02 576.214 1400.42 576.214 1401.6 578.598Z" fill="#E1E1E1"/>
<path d="M469.389 804.998L475.986 818.365C476.322 819.048 476.974 819.521 477.727 819.63L492.478 821.774C494.375 822.049 495.133 824.381 493.761 825.72L483.086 836.124C482.542 836.656 482.293 837.421 482.421 838.172L484.941 852.862C485.265 854.753 483.281 856.194 481.583 855.302L468.39 848.366C467.717 848.012 466.911 848.012 466.237 848.366L453.045 855.302C451.347 856.194 449.363 854.753 449.687 852.862L452.207 838.172C452.335 837.421 452.086 836.656 451.542 836.124L440.867 825.72C439.494 824.381 440.253 822.049 442.15 821.774L456.901 819.63C457.654 819.521 458.306 819.048 458.643 818.365L465.239 804.998C466.087 803.278 468.541 803.278 469.389 804.998Z" fill="#E1E1E1"/>
<path d="M784.519 244.783L748.687 244.975L747.731 66.6782L783.563 66.4875L784.519 244.783Z" fill="#E1E1E1"/>
<path d="M530.628 165.384L437.837 165.88L437.31 67.4496L530.1 66.9522L530.628 165.384Z" fill="#ECECEC"/>
<path d="M622.979 164.889L530.188 165.387L529.66 66.9546L622.452 66.4573L622.979 164.889Z" fill="#F5F5F5"/>
<path d="M437.455 94.6328C499.12 95.1421 560.939 94.7821 622.598 93.7808C623.867 93.7621 623.858 91.8168 622.587 91.8101C560.922 91.4688 499.102 91.7714 437.447 92.9421C436.359 92.9634 436.366 94.6234 437.455 94.6328Z" fill="#E1E1E1"/>
<path d="M548.472 243.956L379.886 244.859L379.457 164.645L548.042 163.741L548.472 243.956Z" fill="#ECECEC"/>
<path d="M716.26 243.057L547.675 243.96L547.244 163.747L715.831 162.844L716.26 243.057Z" fill="#F5F5F5"/>
<path d="M379.576 186.954C491.572 188.222 603.961 187.085 715.95 185.293C717.22 185.272 717.212 183.326 715.94 183.321C603.937 182.729 491.542 182.796 379.566 185.264C378.48 185.288 378.486 186.942 379.576 186.954Z" fill="#E1E1E1"/>
<path d="M969.686 273.597H316.529V244.86H969.686V273.597Z" fill="#E1E1E1"/>
<path d="M449.979 356.736H423.464V258.677H449.979V356.736Z" fill="#E1E1E1"/>
<path d="M845.793 356.736H819.277V258.677H845.793V356.736Z" fill="#E1E1E1"/>
<path d="M819.844 245.22L784.012 245.412L782.699 0.191989L818.531 -7.31385e-06L819.844 245.22Z" fill="#ECECEC"/>
<path d="M875.583 244.371L819.906 244.67L818.842 45.9458L874.518 45.6485L875.583 244.371Z" fill="#F5F5F5"/>
<path d="M874.143 83.9329C874.143 84.4649 861.679 84.8969 846.306 84.8969C830.928 84.8969 818.466 84.4649 818.466 83.9329C818.466 83.4009 830.928 82.9689 846.306 82.9689C861.679 82.9689 874.143 83.4009 874.143 83.9329Z" fill="#E1E1E1"/>
<path d="M874.143 75.5847C874.143 76.1167 861.679 76.5487 846.306 76.5487C830.928 76.5487 818.466 76.1167 818.466 75.5847C818.466 75.0514 830.928 74.6194 846.306 74.6194C861.679 74.6194 874.143 75.0514 874.143 75.5847Z" fill="#E1E1E1"/>
<path d="M874.143 214.473C874.143 215.005 861.679 215.438 846.306 215.438C830.928 215.438 818.466 215.005 818.466 214.473C818.466 213.939 830.928 213.509 846.306 213.509C861.679 213.509 874.143 213.939 874.143 214.473Z" fill="#E1E1E1"/>
<path d="M874.143 206.124C874.143 206.656 861.679 207.088 846.306 207.088C830.928 207.088 818.466 206.656 818.466 206.124C818.466 205.591 830.928 205.159 846.306 205.159C861.679 205.159 874.143 205.591 874.143 206.124Z" fill="#E1E1E1"/>
<path d="M847.201 187.91C846.668 187.91 846.236 167.86 846.236 143.134C846.236 118.399 846.668 98.3535 847.201 98.3535C847.733 98.3535 848.167 118.399 848.167 143.134C848.167 167.86 847.733 187.91 847.201 187.91Z" fill="#E1E1E1"/>
<path d="M935.351 244.445H874.746V94.4473H935.351V244.445Z" fill="#ECECEC"/>
<path d="M810.386 41.8672C810.386 47.5552 805.775 52.1659 800.087 52.1659C794.399 52.1659 789.789 47.5552 789.789 41.8672C789.789 36.1779 794.399 31.5672 800.087 31.5672C805.775 31.5672 810.386 36.1779 810.386 41.8672Z" fill="#E1E1E1"/>
<path d="M803.27 216.07H796.903V70.1916H803.27V216.07Z" fill="#E1E1E1"/>
<path d="M1654.64 516.129H1214.05V121.95H1654.64V516.129Z" fill="#FAFAFA"/>
<path d="M1654.64 516.129C1654.64 516.129 1654.57 513.602 1654.53 508.813C1654.5 503.975 1654.46 496.903 1654.41 487.693C1654.35 469.185 1654.26 442.134 1654.15 407.678C1654.03 338.806 1653.85 240.393 1653.64 121.95L1654.64 122.949C1527.75 123.001 1376.32 123.062 1214.09 123.127H1214.05L1215.22 121.95C1215.17 265.358 1215.13 400.303 1215.08 516.129L1214.05 515.091C1345.49 515.309 1455.5 515.489 1532.72 515.615C1571.35 515.733 1601.77 515.825 1622.59 515.889C1632.97 515.942 1640.94 515.983 1646.39 516.01C1649.05 516.035 1651.09 516.057 1652.52 516.069C1653.91 516.089 1654.64 516.129 1654.64 516.129C1654.64 516.129 1653.99 516.169 1652.64 516.187C1651.24 516.202 1649.24 516.221 1646.62 516.246C1641.22 516.275 1633.31 516.315 1623.03 516.367C1602.25 516.431 1571.92 516.525 1533.38 516.642C1456 516.767 1345.76 516.949 1214.05 517.165L1213.01 517.167V516.129C1212.97 400.303 1212.92 265.358 1212.87 121.95V120.773H1214.05H1214.09C1376.32 120.838 1527.75 120.899 1654.64 120.951H1655.64L1655.64 121.95C1655.42 240.655 1655.25 339.286 1655.12 408.31C1655.01 442.67 1654.93 469.646 1654.87 488.101C1654.82 497.229 1654.78 504.237 1654.75 509.029C1654.71 513.75 1654.64 516.129 1654.64 516.129Z" fill="#E1E1E1"/>
<path d="M1382.99 191.988C1382.99 192.639 1359.8 193.165 1331.2 193.165C1302.58 193.165 1279.4 192.639 1279.4 191.988C1279.4 191.339 1302.58 190.811 1331.2 190.811C1359.8 190.811 1382.99 191.339 1382.99 191.988Z" fill="#E1E1E1"/>
<path d="M1569.67 221.584C1569.67 222.235 1505.96 222.762 1427.39 222.762C1348.79 222.762 1285.09 222.235 1285.09 221.584C1285.09 220.935 1348.79 220.407 1427.39 220.407C1505.96 220.407 1569.67 220.935 1569.67 221.584Z" fill="#E1E1E1"/>
<path d="M1298.72 290.281H1280.16V271.718H1298.72V290.281Z" fill="#E1E1E1"/>
<path d="M1344.41 290.281H1325.85V271.718H1344.41V290.281Z" fill="#E1E1E1"/>
<path d="M1390.94 289.438H1372.38V270.877H1390.94V289.438Z" fill="#E1E1E1"/>
<path d="M1435.79 290.281H1417.23V271.718H1435.79V290.281Z" fill="#E1E1E1"/>
<path d="M1481.48 290.281H1462.92V271.718H1481.48V290.281Z" fill="#E1E1E1"/>
<path d="M1527.18 290.281H1508.61V271.718H1527.18V290.281Z" fill="#E1E1E1"/>
<path d="M1572.87 290.281H1554.3V271.718H1572.87V290.281Z" fill="#ECECEC"/>
<path d="M1298.72 329.742H1280.16V311.181H1298.72V329.742Z" fill="#ECECEC"/>
<path d="M1344.41 329.742H1325.85V311.181H1344.41V329.742Z" fill="#E1E1E1"/>
<path d="M1390.1 329.742H1371.54V311.181H1390.1V329.742Z" fill="#ECECEC"/>
<path d="M1435.79 329.742H1417.23V311.181H1435.79V329.742Z" fill="#E1E1E1"/>
<path d="M1481.48 329.742H1462.92V311.181H1481.48V329.742Z" fill="#E1E1E1"/>
<path d="M1528.02 328.9H1509.46V310.337H1528.02V328.9Z" fill="#E1E1E1"/>
<path d="M1572.87 329.742H1554.3V311.181H1572.87V329.742Z" fill="#E1E1E1"/>
<path d="M1298.72 369.205H1280.16V350.642H1298.72V369.205Z" fill="#E1E1E1"/>
<path d="M1345.25 368.361H1326.69V349.798H1345.25V368.361Z" fill="#E1E1E1"/>
<path d="M1390.1 369.205H1371.54V350.642H1390.1V369.205Z" fill="#E1E1E1"/>
<path d="M1435.79 369.205H1417.23V350.642H1435.79V369.205Z" fill="#ECECEC"/>
<path d="M1481.48 369.205H1462.92V350.642H1481.48V369.205Z" fill="#E1E1E1"/>
<path d="M1527.18 369.205H1508.61V350.642H1527.18V369.205Z" fill="#E1E1E1"/>
<path d="M1572.87 369.205H1554.3V350.642H1572.87V369.205Z" fill="#E1E1E1"/>
<path d="M1298.72 408.666H1280.16V390.104H1298.72V408.666Z" fill="#E1E1E1"/>
<path d="M1344.41 408.666H1325.85V390.104H1344.41V408.666Z" fill="#E1E1E1"/>
<path d="M1390.1 408.666H1371.54V390.104H1390.1V408.666Z" fill="#E1E1E1"/>
<path d="M1436.64 407.824H1418.07V389.261H1436.64V407.824Z" fill="#E1E1E1"/>
<path d="M1481.48 408.666H1462.92V390.104H1481.48V408.666Z" fill="#E1E1E1"/>
<path d="M1527.18 408.666H1508.61V390.104H1527.18V408.666Z" fill="#ECECEC"/>
<path d="M1572.87 408.666H1554.3V390.104H1572.87V408.666Z" fill="#E1E1E1"/>
<path d="M1298.72 448.127H1280.16V429.566H1298.72V448.127Z" fill="#E1E1E1"/>
<path d="M1344.41 448.127H1325.85V429.566H1344.41V448.127Z" fill="#ECECEC"/>
<path d="M1390.1 448.127H1371.54V429.566H1390.1V448.127Z" fill="#E1E1E1"/>
<path d="M1435.79 448.127H1417.23V429.566H1435.79V448.127Z" fill="#E1E1E1"/>
<path d="M1481.48 448.127H1462.92V429.566H1481.48V448.127Z" fill="#E1E1E1"/>
<path d="M1528.02 447.285H1509.46V428.723H1528.02V447.285Z" fill="#E1E1E1"/>
<path d="M1572.87 448.127H1554.3V429.566H1572.87V448.127Z" fill="#E1E1E1"/>
<path d="M374.653 1127.87V1242.65H355.489V1255.11H374.653V1331.92H732.866V1262.03H706.332V1246.8H732.866V1223.96H744.66V1213.58H730.656V1127.87H374.653Z" fill="#ECECEC"/>
<path d="M637.741 1128.21V1330.65H732.866V1260.75H706.332V1246.8L732.866 1247.27V1224.43L744.889 1224.45L744.66 1212.65L730.656 1212.3V1127.87L637.741 1128.21Z" fill="#E1E1E1"/>
<path d="M644.519 1253.46C644.519 1254.16 579.699 1254.73 499.759 1254.73C419.79 1254.73 354.984 1254.16 354.984 1253.46C354.984 1252.75 419.79 1252.19 499.759 1252.19C579.699 1252.19 644.519 1252.75 644.519 1253.46Z" fill="#E1E1E1"/>
<path d="M644.519 1241.8C644.519 1242.5 579.699 1243.07 499.759 1243.07C419.79 1243.07 354.984 1242.5 354.984 1241.8C354.984 1241.1 419.79 1240.53 499.759 1240.53C579.699 1240.53 644.519 1241.1 644.519 1241.8Z" fill="#E1E1E1"/>
<path d="M663.114 1210.42C663.114 1211.12 598.294 1211.69 518.353 1211.69C438.385 1211.69 373.579 1211.12 373.579 1210.42C373.579 1209.72 438.385 1209.15 518.353 1209.15C598.294 1209.15 663.114 1209.72 663.114 1210.42Z" fill="#E1E1E1"/>
<path d="M664.902 1295.93C664.902 1296.63 600.082 1297.2 520.141 1297.2C440.173 1297.2 375.366 1296.63 375.366 1295.93C375.366 1295.22 440.173 1294.65 520.141 1294.65C600.082 1294.65 664.902 1295.22 664.902 1295.93Z" fill="#E1E1E1"/>
<path d="M421.13 936.629V1045.41H402.968V1057.21H421.13V1130.02H760.618V1063.77H735.47V1049.34H760.618V1027.7H771.796V1017.86H758.524V936.629H421.13Z" fill="#F5F5F5"/>
<path d="M670.466 936.945V1128.8H760.619V1062.56H735.471V1049.34L760.619 1049.79V1028.14L772.012 1028.16L771.795 1016.97L758.523 1016.65V936.629L670.466 936.945Z" fill="#E1E1E1"/>
<path d="M676.889 1055.65C676.889 1056.32 615.458 1056.85 539.696 1056.85C463.908 1056.85 402.489 1056.32 402.489 1055.65C402.489 1054.98 463.908 1054.44 539.696 1054.44C615.458 1054.44 676.889 1054.98 676.889 1055.65Z" fill="#E1E1E1"/>
<path d="M676.889 1044.6C676.889 1045.27 615.458 1045.81 539.696 1045.81C463.908 1045.81 402.489 1045.27 402.489 1044.6C402.489 1043.93 463.908 1043.39 539.696 1043.39C615.458 1043.39 676.889 1043.93 676.889 1044.6Z" fill="#E1E1E1"/>
<path d="M694.512 1014.86C694.512 1015.53 633.081 1016.07 557.318 1016.07C481.53 1016.07 420.113 1015.53 420.113 1014.86C420.113 1014.2 481.53 1013.66 557.318 1013.66C633.081 1013.66 694.512 1014.2 694.512 1014.86Z" fill="#E1E1E1"/>
<path d="M696.206 1095.9C696.206 1096.56 634.774 1097.1 559.013 1097.1C483.225 1097.1 421.806 1096.56 421.806 1095.9C421.806 1095.23 483.225 1094.69 559.013 1094.69C634.774 1094.69 696.206 1095.23 696.206 1095.9Z" fill="#E1E1E1"/>
<path d="M1456.88 984.015C1438.32 974.435 1416.45 973.189 1395.84 976.597C1384.76 978.427 1373.22 981.741 1365.68 990.059C1358.15 998.378 1356.72 1013.02 1365.37 1020.16C1370.52 1024.42 1377.7 1025.07 1384.38 1024.99C1400.52 1024.8 1418.43 1021.96 1431.32 1031.67C1438.68 1037.21 1443.57 1046.42 1452.37 1049.14C1460.97 1051.81 1470.68 1046.73 1475.24 1038.96C1479.8 1031.2 1479.95 1021.49 1477.83 1012.74C1477.83 1012.74 1475.59 993.666 1456.88 984.015Z" fill="#ECECEC"/>
<path d="M1499.42 901.894C1488.07 918.11 1466 912.74 1455.77 902.843C1445.54 892.944 1441.21 878.599 1437.28 864.919C1428.28 833.662 1419.22 800.871 1425.9 769.04C1427.9 759.524 1431.46 750.034 1438.15 742.975C1444.83 735.915 1455.12 731.714 1464.52 734.199C1475.65 737.138 1482.56 748.035 1487.56 758.403C1502.25 788.874 1510.03 822.655 1510.14 856.484C1510.2 872.282 1508.34 888.851 1499.42 901.894Z" fill="#ECECEC"/>
<path d="M1530.6 925.162C1518.28 910.531 1515.94 889.191 1521.42 870.863C1526.91 852.534 1539.3 836.942 1553.58 824.211C1570.33 809.286 1590.01 797.672 1611.17 790.232C1619.5 787.304 1628.28 784.994 1637.07 785.832C1645.86 786.67 1654.71 791.163 1658.81 798.982C1664.87 810.542 1659.06 824.562 1652.77 836C1641.7 856.152 1629.04 875.431 1614.95 893.6C1603.61 908.218 1590.62 922.636 1573.34 929.242C1556.06 935.847 1538.12 935.07 1528.96 923.087" fill="#ECECEC"/>
<path d="M1500.19 1146.51C1499.98 1146.52 1499.64 1143.9 1499.16 1139.14C1498.64 1133.78 1497.99 1127.05 1497.21 1119.03C1496.27 1110.57 1495.04 1100.5 1492.68 1089.54C1490.34 1078.6 1486.67 1066.74 1481.96 1054.72C1477.09 1042.77 1471.14 1031.91 1464.19 1023.22C1457.28 1014.5 1449.26 1008.18 1441.71 1004.54C1434.19 1000.82 1427.45 999.316 1422.78 998.646C1418.08 998.164 1415.45 997.793 1415.45 997.584C1415.45 997.374 1418.08 997.34 1422.91 997.469C1427.7 997.788 1434.72 999 1442.65 1002.6C1450.6 1006.13 1459.12 1012.54 1466.36 1021.45C1473.66 1030.32 1479.82 1041.42 1484.78 1053.58C1489.58 1065.82 1493.19 1077.79 1495.43 1088.97C1497.66 1100.12 1498.68 1110.3 1499.35 1118.84C1499.99 1127.38 1500.23 1134.29 1500.35 1139.07C1500.45 1143.85 1500.4 1146.5 1500.19 1146.51Z" fill="#E1E1E1"/>
<path d="M1498.81 1131.04C1498.7 1131.03 1498.64 1129.86 1498.61 1127.62C1498.62 1125.05 1498.62 1121.81 1498.63 1117.84C1498.66 1109.36 1498.65 1097.08 1498.2 1081.91C1497.45 1051.59 1494.84 1018.95 1489.79 972.938C1485.02 929.67 1478.61 879.316 1471.84 846.579C1470.39 839.134 1468.93 832.432 1467.56 826.567C1466.25 820.686 1465.13 815.616 1464.04 811.514C1463.12 807.652 1462.36 804.507 1461.76 802.011C1461.27 799.828 1461.06 798.666 1461.16 798.636C1461.26 798.608 1461.67 799.712 1462.35 801.843C1463.1 804.303 1464.03 807.404 1465.19 811.211C1466.45 815.275 1467.74 820.312 1469.21 826.17C1470.75 832.012 1472.36 838.696 1473.95 846.131C1480.64 875.795 1487.73 917.255 1492.82 963.379C1497.87 1009.49 1500.15 1051.47 1500.35 1081.87C1500.53 1097.07 1500.21 1109.38 1499.82 1117.87C1499.58 1121.84 1499.38 1125.08 1499.22 1127.64C1499.05 1129.87 1498.91 1131.04 1498.81 1131.04Z" fill="#E1E1E1"/>
<path d="M1498.6 1050.06C1498.39 1050.06 1498.43 1046.43 1498.68 1039.85C1499.05 1033.29 1499.95 1023.8 1501.8 1012.18C1503.76 1000.59 1506.5 986.821 1510.8 971.862C1512.67 965.023 1517.05 948.639 1527.66 924.157C1541.65 890.983 1560.64 863.862 1577.17 847.063C1581.05 842.606 1585.37 839.389 1588.82 836.237C1590.61 834.726 1592.19 833.219 1593.79 832.026C1595.41 830.91 1596.92 829.874 1598.31 828.911C1603.75 825.191 1606.8 823.23 1606.91 823.406C1607.4 824.069 1594.73 831.527 1578.73 848.55C1562.79 865.537 1544.32 892.471 1530.45 925.365C1522.72 943.206 1517.32 959.121 1513.5 972.631C1509.08 987.445 1506.14 1001.07 1503.92 1012.55C1501.81 1024.05 1500.59 1033.44 1499.86 1039.95C1499.25 1046.46 1498.81 1050.07 1498.6 1050.06Z" fill="#E1E1E1"/>
<path d="M1576.87 1192.9L1568.76 1304.07H1425.95L1417.84 1192.9H1576.87Z" fill="#E1E1E1"/>
<path d="M1590.66 1192.9H1400.8V1149.09H1590.66V1192.9Z" fill="#E1E1E1"/>
<path d="M1590.66 1299.81V1311.96H1581.74H1403.93V1299.81H1590.66Z" fill="#ECECEC"/>
<path d="M1573 1333.33L1581.74 1311.96H1410.74L1420.94 1333.33H1573Z" fill="#E1E1E1"/>
<path d="M1420.49 1229.23C1420.46 1229.26 1420.68 1229.61 1421.15 1230.26C1421.72 1231.01 1422.42 1231.94 1423.29 1233.09C1425.32 1235.68 1428.1 1239.25 1431.61 1243.73L1431.98 1244.21L1432.33 1243.71C1437.56 1236.48 1444.55 1226.82 1452.77 1215.44H1451.6C1457.68 1224.05 1464.45 1233.64 1471.72 1243.93L1472.35 1244.83L1473.06 1243.99C1480.48 1235.15 1488.55 1225.56 1496.92 1215.59L1495.54 1215.58C1495.96 1216.1 1496.41 1216.66 1496.86 1217.23C1504.26 1226.51 1511.42 1235.49 1518.2 1243.98L1518.91 1244.87L1519.56 1243.94C1526.81 1233.69 1533.58 1224.11 1539.7 1215.46L1538.52 1215.51C1548.45 1226.82 1556.86 1236.4 1563.32 1243.76L1563.76 1244.26L1564.1 1243.7C1567.36 1238.21 1569.97 1233.83 1571.86 1230.66C1572.67 1229.24 1573.33 1228.1 1573.85 1227.18C1574.29 1226.39 1574.5 1225.97 1574.46 1225.94C1574.42 1225.92 1574.14 1226.3 1573.63 1227.05C1573.05 1227.92 1572.32 1229.03 1571.42 1230.39C1569.44 1233.5 1566.7 1237.8 1563.27 1243.19L1564.05 1243.13C1557.69 1235.68 1549.42 1225.98 1539.65 1214.54L1539.04 1213.81L1538.48 1214.59C1532.31 1223.21 1525.48 1232.75 1518.17 1242.95L1519.54 1242.91C1512.78 1234.41 1505.63 1225.41 1498.25 1216.12C1497.8 1215.55 1497.35 1214.99 1496.93 1214.47L1496.26 1213.62L1495.56 1214.45C1487.21 1224.43 1479.17 1234.05 1471.76 1242.9L1473.1 1242.95C1465.75 1232.71 1458.91 1223.17 1452.77 1214.61L1452.18 1213.77L1451.6 1214.61C1443.55 1226.1 1436.71 1235.87 1431.59 1243.18L1432.32 1243.16C1428.67 1238.79 1425.77 1235.31 1423.66 1232.78C1422.72 1231.7 1421.96 1230.81 1421.34 1230.1C1420.81 1229.5 1420.52 1229.21 1420.49 1229.23Z" fill="#F5F5F5"/>
<path d="M1415.85 1192.17C1415.85 1192.66 1451.63 1193.06 1495.76 1193.06C1539.91 1193.06 1575.68 1192.66 1575.68 1192.17C1575.68 1191.68 1539.91 1191.28 1495.76 1191.28C1451.63 1191.28 1415.85 1191.68 1415.85 1192.17Z" fill="#F5F5F5"/>
<path d="M1408.63 1313.15C1408.63 1313.65 1447.52 1314.04 1495.48 1314.04C1543.46 1314.04 1582.34 1313.65 1582.34 1313.15C1582.34 1312.66 1543.46 1312.27 1495.48 1312.27C1447.52 1312.27 1408.63 1312.66 1408.63 1313.15Z" fill="#F5F5F5"/>
<path d="M1058.3 172.477C1059.64 149.019 1074.06 134.589 1094.27 122.612C1114.49 110.635 1140.7 109.445 1161.91 119.545C1176.1 126.3 1188.52 137.836 1204.1 139.845C1229.77 143.157 1254.06 119.377 1279.25 125.316C1294.15 128.832 1305.52 143.747 1304.94 159.052C1304.37 174.357 1291.93 188.383 1276.8 190.773C1293.6 193.209 1303.12 214.467 1296.9 230.272C1290.69 246.076 1273.05 255.244 1256.08 255.612C1239.1 255.981 1222.78 249.052 1208.09 240.528C1193.4 232.004 1179.69 221.752 1164.38 214.42C1149.06 207.091 1131.44 202.807 1115.02 207.175C1092.81 213.089 1077.07 234.064 1071.27 256.312C1065.48 278.56 1067.98 302.061 1071.42 324.792C1074.88 347.523 1079.26 370.448 1077.1 393.337C1076.84 396.024 1076.24 399.1 1073.88 400.404C1070.47 402.287 1066.56 399.063 1064.04 396.081C1035.66 362.428 1013.97 323.144 1000.62 281.188C992.866 256.821 988.592 233.104 997.898 209.287C1007.2 185.469 1038.56 162.799 1058.3 172.477Z" fill="#1E2E35"/>
<path d="M1036.66 285.84L1074.22 517.584C1081.24 560.859 1109.36 602.675 1177.28 588.465C1235.27 571.693 1230.96 529.975 1223.41 478.54C1223.41 478.54 1223.6 480.529 1223.41 478.54C1223.41 478.54 1287.2 461.947 1281.49 397.069C1278.73 365.719 1267.78 301.605 1257.2 243.72C1245.85 181.551 1188.58 138.571 1125.71 144.893L1119.46 145.521C1052.44 156.237 1024.1 219.143 1036.66 285.84Z" fill="#FFC3A3"/>
<path d="M1223.41 478.54C1223.41 478.54 1182.81 485.042 1136.53 462.082C1136.53 462.082 1161.98 510.28 1226.04 497.943L1223.41 478.54Z" fill="#F69F75"/>
<path d="M1235.22 308.622C1235.89 313.49 1232.31 318.067 1227.24 318.855C1222.18 319.638 1217.53 316.341 1216.86 311.471C1216.2 306.603 1219.77 302.018 1224.84 301.233C1229.91 300.445 1234.56 303.753 1235.22 308.622Z" fill="#1E2E35"/>
<path d="M1246.48 276.92C1245.46 278.241 1237.93 273.759 1227.97 274.787C1218.01 275.671 1211.22 281.528 1210.02 280.417C1209.43 279.931 1210.38 277.635 1213.33 274.999C1216.23 272.376 1221.35 269.596 1227.55 268.999C1233.76 268.411 1239.21 270.167 1242.44 272.204C1245.74 274.245 1246.99 276.323 1246.48 276.92Z" fill="#1E2E35"/>
<path d="M1141.93 314.587C1142.59 319.456 1139.02 324.032 1133.95 324.819C1128.89 325.604 1124.23 322.306 1123.57 317.435C1122.91 312.567 1126.48 307.984 1131.55 307.198C1136.62 306.41 1141.27 309.719 1141.93 314.587Z" fill="#1E2E35"/>
<path d="M1148.79 288.619C1147.77 289.942 1140.22 285.46 1130.28 286.487C1120.32 287.371 1113.53 293.228 1112.32 292.116C1111.74 291.63 1112.68 289.336 1115.64 286.7C1118.54 284.076 1123.65 281.296 1129.86 280.696C1136.07 280.11 1141.51 281.867 1144.75 283.902C1148.04 285.944 1149.3 288.023 1148.79 288.619Z" fill="#1E2E35"/>
<path d="M1192.35 358.831C1192.25 358.27 1198.33 356.578 1208.23 354.287C1210.75 353.768 1213.11 353.022 1213.36 351.244C1213.77 349.347 1212.44 346.712 1210.9 343.878C1207.89 337.966 1204.74 331.767 1201.44 325.271C1188.22 298.755 1178.39 276.848 1179.46 276.326C1180.53 275.803 1192.11 296.871 1205.32 323.388C1208.52 329.934 1211.58 336.171 1214.49 342.142C1215.74 344.934 1217.72 348.046 1216.81 351.988C1216.32 353.956 1214.59 355.524 1213 356.126C1211.42 356.788 1209.99 356.959 1208.74 357.162C1198.7 358.718 1192.45 359.394 1192.35 358.831Z" fill="#1E2E35"/>
<path d="M1147.44 249.338C1146.73 252.144 1136.66 251.859 1125.12 254.443C1113.52 256.795 1104.45 261.162 1102.65 258.89C1101.85 257.796 1103.23 255.084 1106.78 252.08C1110.29 249.084 1116.06 245.991 1123 244.506C1129.94 243.034 1136.47 243.502 1140.9 244.804C1145.36 246.102 1147.73 248.01 1147.44 249.338Z" fill="#1E2E35"/>
<path d="M1239.92 248.47C1238.4 250.908 1231.31 249.25 1223.04 249.97C1214.76 250.4 1207.97 253.021 1206.12 250.816C1205.3 249.738 1206.17 247.364 1209.01 244.914C1211.8 242.48 1216.66 240.232 1222.34 239.832C1228.03 239.441 1233.14 240.997 1236.25 243.026C1239.39 245.056 1240.59 247.29 1239.92 248.47Z" fill="#1E2E35"/>
<path d="M1046.78 333.286C1045.63 332.92 1000.93 324.594 1006.8 368.75C1012.67 412.908 1055.79 397.908 1055.7 396.63C1055.61 395.354 1046.78 333.286 1046.78 333.286Z" fill="#FFC3A3"/>
<path d="M1039.99 381.694C1039.78 381.579 1039.29 382.335 1038.07 383.105C1036.88 383.851 1034.75 384.542 1032.34 383.987C1027.44 382.894 1022.53 376.009 1021.26 368.081C1020.61 364.077 1020.95 360.137 1021.95 356.781C1022.87 353.371 1024.66 350.837 1026.95 350.107C1029.22 349.257 1031.06 350.441 1031.77 351.613C1032.53 352.767 1032.36 353.686 1032.61 353.731C1032.75 353.825 1033.46 352.866 1032.86 351.089C1032.56 350.237 1031.9 349.263 1030.75 348.554C1029.58 347.833 1027.96 347.599 1026.35 347.994C1022.98 348.682 1020.33 352.222 1019.22 355.909C1017.94 359.635 1017.47 364.074 1018.19 368.571C1019.66 377.431 1025.32 385.153 1031.95 386.149C1035.16 386.545 1037.63 385.265 1038.83 384.043C1040.05 382.773 1040.15 381.753 1039.99 381.694Z" fill="#F69F75"/>
<path d="M1251.92 183.299C1244.87 171.145 1233.57 161.999 1221.56 154.695C1195.69 138.956 1165.02 130.616 1134.84 133.179C1104.67 135.744 1075.22 149.615 1055.53 172.624C1039.78 191.037 1030.65 214.616 1027.74 238.673C1024.82 262.729 1027.89 287.265 1034.53 310.572C1037.45 320.803 1041.37 331.331 1049.45 338.248C1054.5 342.568 1062.67 344.928 1067.5 340.372C1070.35 337.688 1071.07 333.505 1071.63 329.633C1076.72 294.592 1081.43 256.991 1065.6 225.319C1072.96 213.425 1081.79 202.159 1093.3 194.207C1104.8 186.256 1119.28 181.899 1132.99 184.655C1153.35 188.748 1167.45 206.737 1184.55 218.519C1209 235.356 1241.79 239.353 1269.57 228.887L1251.92 183.299Z" fill="#1E2E35"/>
<path d="M1201.12 385.735C1200.41 389.893 1199.67 394.117 1197.81 397.903C1195.95 401.689 1192.78 405.046 1188.69 406.103C1184.34 407.233 1179.56 405.518 1176.34 402.378C1173.12 399.238 1171.34 394.857 1170.61 390.419C1169.96 386.407 1170.79 381.282 1174.64 379.987C1176.24 379.449 1178 379.745 1179.66 380.047C1187.17 381.405 1194.68 382.765 1202.19 384.123" fill="#F69F75"/>
<path d="M1196.4 404.553C1196.16 403.924 1191.99 406.729 1185.04 405.501C1181.68 404.901 1177.77 403.14 1175.08 399.645C1172.41 396.199 1170.95 391.077 1171.97 386.12C1172.19 384.887 1172.65 383.704 1173.13 382.637C1173.77 381.603 1173.63 381.675 1174.55 381.617C1175.44 381.669 1176.94 382.025 1178.15 382.228C1179.41 382.457 1180.64 382.683 1181.85 382.903C1186.67 383.771 1191.02 384.5 1194.69 385.06C1202.02 386.177 1206.6 386.612 1206.71 386.099C1206.81 385.587 1202.41 384.223 1195.21 382.433C1191.61 381.539 1187.32 380.536 1182.53 379.481C1181.33 379.219 1180.11 378.952 1178.86 378.68C1177.54 378.436 1176.5 378.085 1174.74 377.912C1173.88 377.853 1172.71 377.964 1171.68 378.645C1170.67 379.32 1170.15 380.207 1169.77 380.935C1169.1 382.364 1168.54 383.805 1168.26 385.36C1167 391.548 1168.9 397.705 1172.37 401.84C1175.9 406.064 1180.79 407.833 1184.69 408.156C1188.66 408.525 1191.82 407.576 1193.76 406.623C1195.71 405.648 1196.53 404.743 1196.4 404.553Z" fill="#1E2E35"/>
<path d="M1294.04 134.333C1294.14 134.308 1294.43 135.3 1294.91 137.239C1295.22 139.192 1295.68 142.153 1295.21 145.947C1294.49 153.416 1290.12 164.575 1279.19 173.073C1268.32 181.693 1251.15 185.161 1233.45 182.456C1215.51 180 1197.6 171.387 1178.85 163.673C1160.2 155.953 1140.89 150.751 1123.65 153.909C1106.43 156.832 1093.07 166.743 1084.29 176.435C1075.37 186.237 1070.37 195.975 1067.46 202.779C1064.64 209.667 1063.65 213.704 1063.37 213.627C1063.27 213.603 1063.46 212.584 1063.92 210.657C1064.3 208.709 1065.2 205.932 1066.42 202.364C1069.04 195.348 1073.83 185.291 1082.77 175.069C1091.56 164.979 1105.21 154.501 1123.2 151.285C1141.21 147.848 1161.13 153.216 1179.94 160.995C1198.84 168.785 1216.46 177.312 1233.83 179.821C1251.02 182.587 1267.49 179.421 1277.95 171.444C1288.55 163.539 1293.06 152.965 1294.09 145.799C1295.2 138.461 1293.66 134.375 1294.04 134.333Z" fill="#3E5963"/>
<path d="M1004.09 268.853C1003.78 268.825 1003.79 264.044 1005.82 256.65C1007.76 249.277 1011.97 239.321 1019.21 230.061C1022.79 225.409 1026.8 221.474 1030.7 218.224C1034.61 214.972 1038.85 212.588 1042.82 211.869C1046.77 211.122 1050.08 211.91 1052.04 212.909C1054.02 213.934 1054.76 214.961 1054.64 215.081C1054.52 215.516 1050.41 212.036 1043.26 213.864C1036.32 215.641 1028.52 223.106 1021.49 231.838C1014.51 240.766 1010.16 250.212 1007.77 257.253C1005.3 264.297 1004.57 268.929 1004.09 268.853Z" fill="#3E5963"/>
<path d="M1015.79 307.08C1015.49 307.03 1015.89 302.25 1018.3 294.92C1020.68 287.61 1025.46 277.875 1033.03 268.788C1040.64 259.726 1049.38 253.302 1056.15 249.662C1062.94 245.988 1067.57 244.75 1067.67 245.043C1067.86 245.491 1063.54 247.392 1057.19 251.42C1050.84 255.423 1042.61 261.875 1035.25 270.642C1027.93 279.438 1023.03 288.674 1020.22 295.635C1017.38 302.598 1016.27 307.184 1015.79 307.08Z" fill="#3E5963"/>
<path d="M1253.69 557.143C1253.69 557.143 1301.04 618.229 1312.43 641.178C1323.81 664.127 1405.47 917.643 1405.47 917.643L1370.06 932.527L1253.69 557.143Z" fill="#3E5963"/>
<path d="M1063.15 499.963V469.345L1235.21 525.289L1281.32 599.069L1316.84 702.109L1217.24 552.423L1063.15 499.963Z" fill="#ECECEC"/>
<path d="M1052.93 529.393C1052.93 529.393 979.928 616.723 981.509 673.495C983.065 729.402 1058.89 1069.13 1058.89 1069.13L1040.53 1129.85L1020.66 1332.2H1434.25L1405.47 917.643C1400.88 917.37 1314.79 680.059 1314.79 680.059L1218.59 546.462L1060.15 489.378L1052.93 529.393Z" fill="#3E5963"/>
<path d="M1368.11 818.904C1368.11 818.904 1397.04 817.759 1412.15 824.502C1427.25 831.244 1440.04 827.874 1450.72 848.776C1461.41 869.68 1473.89 879.12 1476.51 910.812C1479.14 942.504 1444.91 1015.89 1422.31 1026.2C1399.71 1036.51 1368.11 818.904 1368.11 818.904Z" fill="#3E5963"/>
<path d="M1044.56 816.024C1044.56 816.024 1213.66 974.747 1235.17 989.927C1256.69 1005.11 1259.87 1101.1 1286.37 1102.92C1312.87 1104.74 1398.72 1041.24 1398.72 1041.24L1144.34 801.598L1044.56 816.024Z" fill="black"/>
<path d="M1282.69 958.145C1282.69 958.145 1245.91 1005.21 1241.7 1017C1237.49 1028.8 1233.4 1036.64 1237.89 1040.57C1242.39 1044.5 1246.29 1044.98 1250.79 1043.26C1256.78 1040.98 1286.34 1001.98 1286.34 1001.98C1286.34 1001.98 1247.13 1057.9 1245.35 1067.55C1243.56 1077.25 1251.25 1081.87 1260.23 1080.19C1269.22 1078.5 1286.34 1053.23 1286.34 1053.23C1286.34 1053.23 1262.08 1081.31 1267.19 1086.08C1272.31 1090.86 1278.21 1091.42 1284.95 1088.05C1291.68 1084.68 1308.82 1062.5 1308.82 1062.5C1308.82 1062.5 1297.02 1075.13 1303.48 1078.22C1309.94 1081.31 1310.5 1081.65 1316.12 1076.99C1321.73 1072.32 1371.31 1023.79 1371.31 1023.79L1339.99 1002.4L1282.69 958.145Z" fill="#FFC3A3"/>
<path d="M1297.77 986.898C1297.95 987.05 1295.67 990.006 1292 994.783C1288.03 999.954 1283.1 1006.37 1277.66 1013.46C1272.02 1020.74 1266.75 1027.21 1262.77 1031.75C1258.8 1036.3 1256.17 1038.97 1256.02 1038.83C1255.84 1038.67 1258.15 1035.74 1261.89 1031.02C1265.9 1025.88 1270.87 1019.51 1276.37 1012.46C1282.01 1005.19 1287.19 998.658 1291.11 994.06C1295.01 989.455 1297.61 986.758 1297.77 986.898Z" fill="#F69F75"/>
<path d="M1323.81 1009.45C1324.15 1009.74 1315.37 1020.66 1304.2 1033.85C1293.03 1047.03 1283.7 1057.49 1283.36 1057.2C1283.02 1056.91 1291.79 1045.98 1302.96 1032.8C1314.13 1019.61 1323.46 1009.16 1323.81 1009.45Z" fill="#F69F75"/>
<path d="M1344.7 1023.58C1345.03 1023.88 1335.83 1034.47 1324.15 1047.22C1312.47 1059.98 1302.73 1070.07 1302.4 1069.77C1302.07 1069.46 1311.27 1058.88 1322.95 1046.12C1334.63 1033.37 1344.36 1023.27 1344.7 1023.58Z" fill="#F69F75"/>
<path d="M1075.3 583.756C1099.05 578.716 1129.22 576.619 1152.18 589.636L1277.65 702.821C1277.65 702.821 1454.49 901.213 1461.43 912.269C1468.38 923.325 1477.69 988.619 1450.9 1021.89C1424.1 1055.16 1394.03 1042.37 1359.64 1034.53C1332.42 1028.32 1142.29 888.616 1064.13 830.587C1037.1 810.519 1017.26 782.101 1008.58 749.577C1003.37 730.08 999.929 707.467 1002.28 685.076" fill="#3E5963"/>
<path d="M1002.28 685.075C1002.28 685.075 1002.24 686.183 1002.08 688.334C1001.92 690.486 1001.76 693.693 1001.71 697.898C1001.66 706.301 1002.27 718.763 1005.39 734.445C1006.99 742.267 1009.03 750.937 1012.26 760.094C1015.44 769.263 1020 778.841 1025.94 788.485C1031.94 798.082 1039.44 807.713 1048.65 816.663C1057.73 825.774 1069.04 833.434 1080.5 842.001C1126.55 875.929 1181.47 916.237 1243.32 959.77C1258.79 970.633 1274.71 981.679 1291.12 992.75C1307.54 1003.77 1324.36 1015.02 1342.12 1025.32C1346.6 1027.81 1351.09 1030.38 1355.82 1032.34C1358.14 1033.37 1360.56 1033.94 1363.15 1034.54L1370.77 1036.38C1380.92 1038.9 1391.16 1041.5 1401.65 1042.49C1412.07 1043.39 1423.03 1042.24 1432.28 1036.91C1441.54 1031.8 1449.32 1023.81 1454.92 1014.66C1463.94 999.057 1467.26 980.927 1467.86 963.359C1468.18 954.535 1467.85 945.723 1466.78 937.065C1466.24 932.735 1465.54 928.446 1464.63 924.219C1463.55 920.089 1462.67 915.722 1460.42 912.269C1455.29 905.523 1449.51 899.017 1444.02 892.543C1438.44 886.101 1432.91 879.706 1427.42 873.365C1416.36 860.743 1405.48 848.33 1394.81 836.147C1351.87 787.638 1312.2 742.822 1277.17 703.25L1277.22 703.299C1225.36 656.374 1182.6 617.685 1151.92 589.925L1151.99 589.973C1140.86 583.718 1129.5 581.53 1119.85 580.593C1110.13 579.743 1101.87 580.213 1095.27 580.814C1088.66 581.455 1083.68 582.298 1080.34 582.863C1078.7 583.165 1077.45 583.393 1076.58 583.554C1075.74 583.705 1075.3 583.755 1075.3 583.755C1075.3 583.755 1076.98 583.337 1080.3 582.659C1083.63 582.027 1088.61 581.117 1095.23 580.41C1101.84 579.743 1110.12 579.206 1119.91 579.999C1129.61 580.882 1141.07 583.018 1152.37 589.299L1152.41 589.319L1152.44 589.349C1183.2 617.017 1226.08 655.575 1278.08 702.342L1278.11 702.366L1278.13 702.393C1313.32 741.825 1353.11 786.534 1395.96 835.133C1406.65 847.309 1417.53 859.715 1428.6 872.33C1434.1 878.671 1439.64 885.065 1445.23 891.507C1450.76 898.035 1456.43 904.373 1461.77 911.398C1462.44 912.27 1462.83 913.389 1463.36 914.377C1463.8 915.406 1464.1 916.459 1464.48 917.502C1465.19 919.594 1465.66 921.737 1466.2 923.867C1467.12 928.158 1467.84 932.497 1468.38 936.871C1469.46 945.617 1469.8 954.503 1469.48 963.417C1468.87 981.155 1465.55 999.511 1456.32 1015.5C1450.54 1024.92 1442.66 1033.01 1433.06 1038.34C1423.48 1043.85 1412.12 1045.03 1401.52 1044.1C1390.83 1043.09 1380.53 1040.46 1370.39 1037.94L1362.79 1036.1C1360.3 1035.53 1357.64 1034.89 1355.21 1033.82C1350.34 1031.79 1345.84 1029.22 1341.33 1026.7C1323.49 1016.35 1306.69 1005.08 1290.25 994.037C1273.84 982.945 1257.92 971.879 1242.46 960.995C1180.64 917.382 1125.79 876.975 1079.81 842.923C1068.41 834.347 1057.06 826.619 1047.93 817.403C1038.68 808.362 1031.17 798.643 1025.17 788.965C1019.23 779.238 1014.69 769.586 1011.52 760.351C1008.33 751.122 1006.32 742.421 1004.77 734.566C1001.74 718.819 1001.22 706.313 1001.38 697.895C1001.59 689.461 1002.28 685.075 1002.28 685.075Z" fill="#1E2E35"/>
<path d="M1320.39 694.602C1320.37 694.625 1320.13 694.469 1319.68 694.144C1319.15 693.753 1318.5 693.266 1317.68 692.662C1315.97 691.305 1313.3 689.474 1310.17 686.746C1303.72 681.504 1294.87 673.358 1284.29 662.956C1273.7 652.557 1261.47 639.808 1247.57 626.002C1240.56 619.158 1233.21 611.96 1225.19 604.96C1217.22 597.92 1208.7 590.884 1199.28 584.7C1195.5 581.957 1191.37 579.865 1187.52 577.517L1186.98 577.189L1187.11 576.622C1187.76 573.777 1188.39 570.974 1189.02 568.228L1189.56 569.173C1151.47 557.181 1117.79 546.577 1093.49 538.929C1081.51 535.084 1071.85 531.984 1065.05 529.804C1061.81 528.732 1059.26 527.886 1057.4 527.27C1056.61 526.992 1055.96 526.764 1055.43 526.58C1054.99 526.416 1054.77 526.32 1054.78 526.296C1054.79 526.27 1055.02 526.318 1055.48 526.434C1056.02 526.581 1056.68 526.761 1057.49 526.984C1059.37 527.534 1061.95 528.289 1065.22 529.246C1072.05 531.316 1081.76 534.257 1093.81 537.905C1118.15 545.424 1151.88 555.848 1190.04 567.637L1190.75 567.856L1190.59 568.584C1189.97 571.332 1189.33 574.136 1188.69 576.981L1188.28 576.088C1192.18 578.457 1196.36 580.582 1200.18 583.345C1209.69 589.592 1218.25 596.68 1226.25 603.765C1234.29 610.816 1241.63 618.053 1248.62 624.94C1262.49 638.825 1274.63 651.652 1285.1 662.14C1295.57 672.634 1304.28 680.886 1310.58 686.264C1313.64 689.06 1316.24 690.965 1317.88 692.404C1318.66 693.06 1319.28 693.588 1319.78 694.01C1320.2 694.38 1320.41 694.58 1320.39 694.602Z" fill="#1E2E35"/>
<path d="M1382.49 822.386C1382.42 822.593 1381.12 820.185 1378.96 816.001C1376.73 811.575 1373.67 805.495 1369.92 798.065C1362.37 782.882 1352.06 761.849 1340.78 738.567C1329.49 715.279 1319.37 694.153 1312.12 678.822C1308.6 671.283 1305.72 665.115 1303.63 660.625C1302.72 658.591 1301.98 656.939 1301.4 655.641C1300.9 654.493 1300.67 653.879 1300.72 653.854C1300.77 653.83 1301.1 654.397 1301.69 655.498C1302.34 656.763 1303.17 658.37 1304.2 660.35C1306.41 664.785 1309.45 670.877 1313.16 678.322C1320.68 693.727 1330.92 714.691 1342.24 737.859C1353.41 761.087 1363.53 782.11 1370.96 797.562C1374.51 805.085 1377.41 811.242 1379.53 815.722C1381.51 819.991 1382.62 822.489 1382.49 822.386Z" fill="#1E2E35"/>
<path d="M1090.19 1164.84C1090.2 1164.82 1090.58 1164.84 1091.31 1164.88C1092.11 1164.94 1093.18 1165.02 1094.54 1165.12C1097.44 1165.36 1101.57 1165.69 1106.89 1166.13C1117.67 1167.06 1133.2 1168.4 1152.53 1170.06C1191.25 1173.52 1245.19 1178.34 1306.39 1183.8L1305.54 1184.8C1302.35 1171.91 1299.01 1158.44 1295.6 1144.71C1294.05 1138.42 1292.5 1132.18 1290.99 1126.1L1291.69 1126.71C1222.92 1118.73 1161.83 1111.64 1119.39 1106.72L1119.93 1106.44C1109.81 1124.37 1102.01 1138.84 1096.92 1148.9C1094.38 1153.93 1092.53 1157.87 1091.42 1160.59C1090.87 1161.95 1090.5 1163.01 1090.34 1163.73C1090.14 1164.46 1090.23 1164.8 1090.19 1164.84C1090.07 1164.9 1090.02 1163.22 1091.14 1160.48C1092.16 1157.71 1093.93 1153.72 1096.4 1148.64C1101.33 1138.48 1108.98 1123.93 1118.99 1105.92L1119.16 1105.6L1119.52 1105.64C1161.97 1110.44 1223.08 1117.33 1291.87 1125.1L1292.43 1125.16L1292.57 1125.71C1294.08 1131.79 1295.62 1138.03 1297.18 1144.32C1300.58 1158.05 1303.91 1171.53 1307.1 1184.41L1307.37 1185.51L1306.25 1185.4C1244.89 1179.66 1190.82 1174.61 1151.99 1170.98C1132.74 1169.11 1117.28 1167.62 1106.53 1166.58C1101.29 1166.05 1097.21 1165.64 1094.35 1165.35C1093.03 1165.2 1091.99 1165.08 1091.22 1165C1090.52 1164.92 1090.17 1164.86 1090.19 1164.84Z" fill="#1E2E35"/>
<path d="M1095.79 1165.36L1103.18 1184.6L1306.32 1196.72V1184.6L1095.79 1165.36Z" fill="black"/>
<path d="M816.485 197.347C815.859 186.493 806.837 177.386 796.466 174.118C786.095 170.85 774.755 172.503 764.435 175.926C741.926 183.391 723.011 198.701 704.643 213.701C676.147 236.974 648.467 268.914 637.582 304.061C629.385 330.531 627.013 347.826 635.431 375.97C642.879 400.871 648.777 425.021 647.297 445.846C644.958 478.778 640.962 486.525 632.505 518.837C627.213 539.053 645.223 591.894 645.223 591.894L759.133 548.321C799.799 529.207 887.335 493.553 887.335 493.553L816.485 197.347Z" fill="#1E2E35"/>
<path d="M752.436 583.575C752.612 555.872 752.889 536.59 752.872 536.788C752.872 536.788 703.142 525.314 693.122 454.371C688.141 419.09 685.54 363.006 689.32 315.9C692.724 273.502 721.74 221.908 763.954 227.108L895.441 262.755C908.265 264.334 912.556 275.268 912.08 288.183L913.044 294.25L903.41 496.762L907.557 582.899C905.876 621.38 867.798 656.371 829.321 658.135C786.741 660.086 752.164 626.199 752.436 583.575Z" fill="#C06C63"/>
<path d="M719.094 372.377C718.842 377.165 722.69 381.328 727.686 381.682C732.672 382.036 736.928 378.452 737.179 373.662C737.431 368.873 733.584 364.706 728.598 364.352C723.6 363.997 719.346 367.589 719.094 372.377Z" fill="#1E2E35"/>
<path d="M707.16 347.795C708.264 348.997 715.227 344.029 724.99 344.222C734.746 344.274 741.824 349.421 742.904 348.245C743.435 347.723 742.324 345.567 739.243 343.242C736.211 340.927 731.01 338.638 724.927 338.559C718.846 338.487 713.691 340.639 710.711 342.881C707.668 345.133 706.615 347.255 707.16 347.795Z" fill="#1E2E35"/>
<path d="M810.471 371.301C810.217 376.09 814.067 380.253 819.061 380.606C824.048 380.96 828.304 377.376 828.555 372.585C828.805 367.798 824.959 363.63 819.972 363.276C814.975 362.921 810.721 366.513 810.471 371.301Z" fill="#1E2E35"/>
<path d="M800.803 347.518C801.911 348.719 808.881 343.751 818.637 343.946C828.39 343.998 835.473 349.143 836.551 347.967C837.079 347.446 835.982 345.291 832.889 342.966C829.857 340.65 824.657 338.361 818.574 338.281C812.493 338.21 807.338 340.363 804.358 342.602C801.323 344.854 800.262 346.978 800.803 347.518Z" fill="#1E2E35"/>
<path d="M761.602 421.362C761.658 420.809 755.604 419.656 745.791 418.229C743.303 417.929 740.951 417.393 740.562 415.685C740.003 413.873 741.094 411.204 742.351 408.322C744.799 402.329 747.362 396.048 750.052 389.465C760.754 362.61 768.548 340.51 767.463 340.089C766.379 339.668 756.82 361.093 746.119 387.946C743.542 394.57 741.074 400.884 738.727 406.925C737.734 409.741 736.058 412.929 737.266 416.688C737.904 418.562 739.711 419.945 741.303 420.404C742.894 420.918 744.295 420.969 745.527 421.064C755.415 421.768 761.555 421.918 761.602 421.362Z" fill="#1E2E35"/>
<path d="M752.872 536.788C752.872 536.788 800.417 540.675 848.059 513.14C848.059 513.14 823.299 562.666 752.603 554.83L752.872 536.788Z" fill="#934D44"/>
<path d="M797.665 312.994C798.807 315.578 808.449 313.657 819.971 314.251C831.51 314.615 840.957 317.33 842.309 314.85C842.909 313.666 841.131 311.286 837.23 308.975C833.359 306.667 827.299 304.638 820.385 304.343C813.47 304.063 807.263 305.582 803.215 307.562C799.137 309.539 797.166 311.766 797.665 312.994Z" fill="#1E2E35"/>
<path d="M704.416 317.312C706.412 319.564 714.408 317.4 723.978 317.456C733.548 317.228 741.624 319.25 743.53 316.962C744.366 315.85 743.128 313.607 739.622 311.447C736.169 309.295 730.365 307.484 723.786 307.539C717.208 307.603 711.476 309.516 708.109 311.73C704.689 313.951 703.54 316.215 704.416 317.312Z" fill="#1E2E35"/>
<path d="M763.919 445.429C766.125 441.345 774.237 435.529 782.85 436.762L782.847 436.763C783.087 436.758 783.322 436.755 783.531 436.771C787.595 437.071 791.613 439.546 793.049 443.358C794.363 446.846 793.343 450.941 791.017 453.851C788.689 456.763 785.222 458.595 781.626 459.575C776.987 460.839 771.721 460.702 767.735 458.014C763.749 455.326 761.637 449.659 763.919 445.429Z" fill="#934D44"/>
<path d="M791.242 430.635C790.758 430.556 790.161 433.103 788.353 436.733C786.584 440.347 783.341 445.039 778.356 448.511C773.364 451.976 767.836 453.383 763.832 453.783C759.8 454.213 757.205 453.887 757.11 454.368C757.012 454.735 759.521 455.887 763.918 456.028C768.254 456.196 774.549 455.023 780.17 451.12C785.785 447.211 789.076 441.719 790.428 437.596C791.826 433.424 791.621 430.671 791.242 430.635Z" fill="#1E2E35"/>
<path d="M687.519 397.592L672.852 338.278C659.689 320.108 669.965 290.47 679.304 270.069C688.644 249.666 706.433 234.042 726.235 223.492C746.036 212.94 767.917 206.984 789.703 201.609C781.625 228.05 761.253 253.584 737.42 267.596C737.42 267.596 701.289 292.274 694.777 321.389C687.659 353.209 687.519 397.592 687.519 397.592Z" fill="#1E2E35"/>
<path d="M769.804 239.079L873.026 301.117C873.026 301.117 876.218 348.142 895.024 393.941C914.072 377.651 925.84 409.042 931.556 384.913C931.854 383.655 926.316 435.534 906.36 437.157L903.077 493.553L1001.53 469.345C1001.53 469.345 996.234 400.963 979.433 359.482C968.984 333.683 963.457 312.061 953.141 286.207C945.333 266.639 931.47 237.401 921.049 223.478C898.669 193.583 815.866 192.263 815.866 192.263C779.36 200.881 803.936 196.773 773.206 218.281L762.701 246.491" fill="#1E2E35"/>
<path d="M895.01 393.55C894.938 378.642 910.889 367.812 924.439 374.54C931.878 378.234 937.851 386.152 938.069 401.972C938.647 444.16 895.362 436.082 895.27 434.874C895.214 434.124 895.093 411.007 895.01 393.55Z" fill="#C06C63"/>
<path d="M908.184 418.7C908.373 418.563 908.941 419.204 910.216 419.755C911.457 420.291 913.584 420.644 915.815 419.788C920.335 418.086 924.063 410.955 924.167 403.348C924.224 399.507 923.353 395.863 921.927 392.856C920.572 389.79 918.508 387.662 916.215 387.298C913.933 386.815 912.332 388.18 911.821 389.375C911.261 390.562 911.547 391.402 911.32 391.478C911.201 391.584 910.388 390.783 910.709 389.036C910.876 388.196 911.367 387.194 912.364 386.368C913.385 385.531 914.896 385.09 916.492 385.236C919.811 385.411 922.836 388.362 924.407 391.66C926.159 394.975 927.228 399.068 927.164 403.383C927.005 411.888 922.679 419.908 916.488 421.759C913.475 422.578 910.939 421.719 909.623 420.742C908.276 419.718 908.037 418.78 908.184 418.7Z" fill="#934D44"/>
<path d="M819.01 192.156C819.094 192.221 818.476 193.133 817.23 194.693C815.947 196.216 814.012 198.353 811.5 200.861C806.496 205.902 799.286 212.533 791.3 219.808C783.306 227.08 776.119 233.702 771.02 238.604C765.914 243.494 762.887 246.654 762.7 246.49C762.618 246.416 763.279 245.538 764.552 244.013C765.811 242.473 767.756 240.358 770.207 237.79C775.118 232.662 782.204 225.884 790.204 218.606C798.046 211.501 805.136 205.076 810.702 200.034C815.948 195.282 818.826 192.016 819.01 192.156Z" fill="#3E5963"/>
<path d="M704.183 227.913C704.113 227.848 705.045 226.649 706.927 224.656C708.801 222.656 711.665 219.892 715.506 216.827C723.151 210.72 735.017 203.516 749.611 199.648C756.863 197.719 764.41 197.243 770.766 199.373C777.109 201.376 781.955 205.76 783.893 210.464C785.887 215.156 785.426 219.488 784.494 222.08C784.047 223.408 783.467 224.336 783.062 224.937C782.617 225.519 782.365 225.803 782.319 225.769C782.167 225.677 783.189 224.485 783.889 221.892C784.601 219.361 784.841 215.263 782.843 210.933C780.915 206.628 776.333 202.621 770.311 200.801C764.301 198.868 757.11 199.337 750.019 201.22C735.706 205.015 723.942 211.935 716.207 217.737C708.442 223.585 704.407 228.137 704.183 227.913Z" fill="#3E5963"/>
<path d="M680.56 270.354C680.482 270.274 681.446 269.196 683.26 267.32C685.078 265.448 687.741 262.772 691.125 259.555C697.91 253.19 707.56 244.39 720.096 237.342C726.373 233.923 732.709 231.067 738.96 230.054C745.162 228.955 751.146 230.006 755.261 232.506C759.428 234.943 761.769 238.29 762.757 240.74C763.232 241.988 763.464 242.998 763.542 243.688C763.612 244.383 763.62 244.746 763.564 244.752C763.406 244.782 763.272 243.311 762.18 241C761.06 238.732 758.708 235.69 754.698 233.508C750.734 231.276 745.158 230.41 739.213 231.53C733.252 232.571 727.069 235.394 720.885 238.762C708.56 245.688 698.868 254.268 691.902 260.4C688.626 263.346 685.878 265.818 683.698 267.778C681.75 269.512 680.638 270.435 680.56 270.354Z" fill="#3E5963"/>
<path d="M927.696 438.985C927.973 447.126 921.6 453.95 913.459 454.229C905.319 454.508 898.493 448.133 898.215 439.992C897.937 431.852 904.311 425.026 912.452 424.748C920.593 424.47 927.417 430.844 927.696 438.985Z" fill="#3E5963"/>
<path d="M657.271 860.652C653.732 863.01 614.809 872.446 605.373 897.216C595.937 921.985 545.863 972.337 582.105 1021.47L657.271 979.78V860.652Z" fill="#2894E5"/>
<path d="M657.193 860.792C656.448 861.231 654.647 861.89 652.205 862.78C640.515 867.044 613.144 877.038 605.447 897.243C603.308 902.855 599.113 909.736 594.257 917.698C586.116 931.051 575.981 947.668 571.521 965.474C569.076 975.242 568.551 984.247 569.921 993.004C571.475 1002.93 575.581 1012.48 582.128 1021.37L657.193 979.735V860.792ZM582.081 1021.57L582.041 1021.52C575.457 1012.59 571.327 1003 569.768 993.03C568.393 984.25 568.919 975.226 571.369 965.438C575.837 947.607 585.977 930.978 594.124 917.616C598.976 909.659 603.167 902.788 605.3 897.188C613.024 876.916 640.443 866.907 652.151 862.634C654.727 861.691 656.588 861.015 657.228 860.588L657.348 860.506V979.827L657.309 979.848L582.081 1021.57Z" fill="#2894E5"/>
<path d="M743.968 655.34L750.126 570.355L904.833 505.804L910.328 537.516L804.937 591.143L743.968 655.34Z" fill="#E1E1E1"/>
<path d="M910.328 518.802C910.328 518.802 815.551 557.144 773.514 594.6C733.976 629.829 651.768 768.666 642.963 806.529C634.158 844.39 635.883 949.142 635.883 949.142C635.883 949.142 635.668 1057.21 635.668 1059.85C635.668 1062.49 567.868 1236.83 580.195 1331.92H966.74C966.74 1331.92 978.187 1198.09 951.772 1146.14C925.356 1094.19 924.476 1104.75 924.476 1104.75C924.476 1104.75 940.326 1087.14 938.564 1071.29C936.803 1055.44 927.118 1042.24 927.118 1042.24L994.916 830.913C994.916 830.913 1001.96 724.372 983.47 653.05C966.135 586.185 959.684 589.968 938.007 568.586C937.542 568.126 938.296 569.173 938.007 568.586L918.307 552.425L910.328 518.802Z" fill="#43A0F5"/>
<path d="M657.271 1164.84C656.059 1160.28 686.54 1106.18 686.54 1106.18L861.245 1135.51L873.405 1184.6L657.271 1164.84Z" fill="#43A0F5"/>
<path d="M657.271 1164.84C657.287 1164.82 657.669 1164.84 658.401 1164.89C659.201 1164.94 660.269 1165.02 661.629 1165.12C664.533 1165.36 668.679 1165.69 673.995 1166.13C684.796 1167.06 700.34 1168.4 719.68 1170.07C758.429 1173.53 812.364 1178.34 873.479 1183.8L872.625 1184.8C869.675 1172.9 866.581 1160.42 863.432 1147.72C862.427 1143.66 861.427 1139.62 860.457 1135.71L861.111 1136.31C791.476 1124.51 729.389 1113.99 686.451 1106.71L687.012 1106.45C676.903 1124.36 669.107 1138.82 664.015 1148.89C661.473 1153.92 659.615 1157.86 658.511 1160.59C657.956 1161.95 657.588 1163.01 657.424 1163.73C657.224 1164.46 657.317 1164.81 657.271 1164.84C657.155 1164.9 657.107 1163.21 658.227 1160.48C659.245 1157.7 661.023 1153.71 663.485 1148.63C668.423 1138.46 676.075 1123.91 686.067 1105.91L686.251 1105.58L686.629 1105.65C729.591 1112.79 791.709 1123.12 861.38 1134.71L861.905 1134.8L862.035 1135.32C863.004 1139.23 864.004 1143.27 865.011 1147.33C868.153 1160.03 871.24 1172.51 874.185 1184.41L874.457 1185.51L873.332 1185.4C812.061 1179.67 757.989 1174.62 719.141 1170.98C699.881 1169.12 684.4 1167.63 673.643 1166.59C668.396 1166.05 664.305 1165.64 661.44 1165.35C660.117 1165.2 659.081 1165.09 658.304 1165C657.604 1164.92 657.255 1164.86 657.271 1164.84Z" fill="#1E2E35"/>
<path d="M619.748 1080.9L623.651 1112.55C651.512 1132.28 690.914 1128.52 720.707 1111.85C750.499 1095.18 772.619 1067.81 793.056 1040.47C855.002 957.588 908.972 868.081 945.782 771.379C849.754 886.668 716.708 966.395 619.748 1080.9Z" fill="black"/>
<path d="M931.84 608.256C964.283 634.075 992.554 714.852 942.338 784.685C942.338 784.685 722.882 1082.42 686.539 1106.18C650.196 1129.94 601.274 1115.96 587.296 1081.02C573.318 1046.07 578.908 1012.53 598.478 988.764C618.047 965.001 746.644 738.557 746.644 738.557C746.644 738.557 775.982 633.592 825.95 603.124" fill="#43A0F5"/>
<path d="M825.949 603.124C825.949 603.124 825.199 603.683 823.695 604.712C822.15 605.684 819.997 607.337 817.205 609.563C811.677 614.075 804.185 621.627 796.058 632.647C779.886 654.708 761.541 690.779 747.162 738.703L747.141 738.771L747.111 738.823C718.882 788.503 683.658 850.332 642.651 919.729C632.318 937.032 621.729 954.868 610.313 972.827C607.341 977.253 604.621 981.844 601.321 986.175C599.735 988.397 598.117 990.541 596.481 992.648C594.866 994.783 593.421 997.057 592.009 999.347C589.218 1003.96 587.009 1008.93 585.105 1014.03C583.381 1019.19 582.005 1024.51 581.234 1029.97C579.741 1040.87 580.171 1052.17 582.649 1063.13C583.261 1065.87 583.913 1068.61 584.787 1071.3C585.529 1074.03 586.565 1076.67 587.535 1079.33C588.507 1082 589.89 1084.45 591.078 1087.02L593.395 1090.57C594.147 1091.77 594.923 1092.96 595.898 1094C603.055 1102.79 612.817 1109.64 623.813 1113.25C634.747 1116.95 646.69 1118.14 658.274 1116.23C668.942 1114.48 679.197 1110.32 687.858 1104.15C696.187 1097.51 703.323 1089.34 710.483 1081.51C724.663 1065.61 738.03 1049.4 751.042 1033.38C777.007 1001.29 801.459 969.852 824.605 939.793C847.737 909.723 869.514 880.991 889.807 854.036C899.925 840.537 909.695 827.5 919.089 814.968C923.767 808.688 928.35 802.536 932.837 796.515C937.259 790.451 941.879 784.709 945.577 778.599C953.714 766.82 959.021 754.112 963.013 741.917C963.865 738.813 964.703 735.752 965.53 732.736C966.366 729.723 966.661 726.637 967.241 723.664C968.517 717.715 968.59 711.811 969.097 706.156C969.83 683.396 965.141 663.945 959.37 649.085C953.534 634.149 946.322 623.78 940.857 617.415C939.451 615.848 938.338 614.341 937.159 613.259C935.993 612.176 935.009 611.264 934.207 610.521C932.626 609.047 931.839 608.256 931.839 608.256C931.839 608.256 932.695 608.959 934.318 610.396C935.137 611.125 936.142 612.021 937.334 613.084C938.535 614.152 939.673 615.644 941.103 617.2C946.671 623.521 954.003 633.881 959.958 648.851C965.846 663.745 970.655 683.277 970.005 706.188C969.518 711.88 969.462 717.825 968.201 723.819C967.627 726.816 967.339 729.925 966.507 732.963C965.685 736.004 964.85 739.089 964.002 742.22C960.021 754.519 954.706 767.336 946.537 779.231C942.809 785.419 938.213 791.155 933.803 797.231C929.33 803.263 924.759 809.427 920.095 815.717C910.725 828.268 900.978 841.325 890.886 854.845C870.635 881.839 848.897 910.605 825.791 940.707C802.674 970.796 778.242 1002.26 752.279 1034.39C739.266 1050.42 725.899 1066.65 711.687 1082.59C708.158 1086.59 704.485 1090.5 700.766 1094.39C696.97 1098.22 693.223 1102.11 688.823 1105.45C679.897 1111.82 669.458 1116.04 658.531 1117.84C646.685 1119.78 634.475 1118.58 623.281 1114.79C612.029 1111.09 602.003 1104.06 594.635 1095.01C593.635 1093.94 592.835 1092.71 592.058 1091.48L589.673 1087.81C588.447 1085.18 587.017 1082.61 586.033 1079.91C585.049 1077.21 584.002 1074.53 583.25 1071.77C582.365 1069.04 581.702 1066.26 581.081 1063.47C578.573 1052.34 578.134 1040.84 579.662 1029.74C580.451 1024.19 581.855 1018.77 583.617 1013.51C585.559 1008.31 587.818 1003.25 590.665 998.544C592.103 996.211 593.579 993.895 595.227 991.721C596.911 989.556 598.543 987.396 600.081 985.239C603.311 981.012 606.061 976.388 609.017 971.995C620.425 954.083 631.034 936.257 641.382 918.976C682.461 849.644 717.806 787.883 746.178 738.293L746.127 738.413C760.687 690.388 779.213 654.341 795.589 632.301C803.815 621.297 811.406 613.781 817.014 609.329C819.847 607.135 822.034 605.517 823.611 604.584C825.146 603.596 825.949 603.124 825.949 603.124Z" fill="#1E2E35"/>
<path d="M729.17 833.604C729.17 833.604 723.523 818.818 712.24 816.862C700.958 814.908 679.114 816.985 679.114 816.985C679.114 816.985 669.491 824.22 669.582 834.152C669.672 844.082 671.614 851.029 671.614 851.029C671.614 851.029 663.704 840.382 653.32 850.47C642.935 860.558 633.796 880.992 633.796 880.992C633.796 880.992 619.968 885.418 614.7 892.129C609.432 898.84 606.323 909.708 606.323 909.708C606.323 909.708 595 916.596 596.771 931.296C598.54 945.996 611.436 952.176 611.436 952.176C611.436 952.176 652.656 982.562 657.707 978.64C662.758 974.718 673.058 968.506 658.22 955.38C643.383 942.253 634.102 933.981 634.102 933.981L641.088 923.197C641.088 923.197 681.435 950.928 687.903 949.596C694.371 948.265 705.391 948.042 700.879 938.09C696.366 928.14 658.623 899.101 658.623 899.101L663.102 883.538C663.102 883.538 706.704 913.086 713.868 908.357C721.031 903.628 727.395 901.424 720.147 891.692C712.899 881.961 681.375 858.692 681.375 858.692L694.284 846.642C694.284 846.642 724.735 851.813 729.17 833.604Z" fill="#C06C63"/>
<path d="M918.307 552.424C918.313 552.452 917.945 552.56 917.224 552.757C916.423 552.969 915.363 553.249 914.019 553.604C911.204 554.352 907.044 555.431 901.723 556.944C891.093 559.98 875.699 564.489 857.345 571.824C852.764 573.664 848.003 575.699 843.148 578.028C840.713 579.181 838.24 580.375 835.791 581.725C834.567 582.395 833.287 583.016 832.076 583.74C830.913 584.527 829.676 585.213 828.541 586.099C819.367 593.093 811.013 602.413 802.383 612.18C785.283 631.945 767.836 654.84 749.956 679.153C732.105 703.511 715.589 727.073 700.803 748.661C693.416 759.46 686.469 769.771 680.059 779.479C673.616 789.176 667.812 798.295 663.48 807.173C654.7 824.871 649.533 840.088 646.101 850.583C644.409 855.848 643.191 859.967 642.375 862.763C641.989 864.097 641.685 865.149 641.455 865.945C641.241 866.661 641.127 867.027 641.099 867.021C641.072 867.015 641.133 866.635 641.293 865.905C641.485 865.097 641.737 864.031 642.059 862.677C642.773 859.849 643.896 855.697 645.497 850.395C648.751 839.82 653.759 824.517 662.451 806.661C666.74 797.7 672.545 788.455 678.932 778.739C685.299 768.991 692.208 758.645 699.565 747.817C714.292 726.172 730.779 702.569 748.645 678.192C766.543 653.857 784.039 630.967 801.253 611.195C809.957 601.416 818.34 592.113 827.745 585.011C828.908 584.113 830.208 583.393 831.417 582.589C832.663 581.855 833.94 581.243 835.183 580.573C837.66 579.225 840.156 578.039 842.612 576.895C847.511 574.581 852.307 572.569 856.919 570.756C875.395 563.532 890.861 559.187 901.557 556.333C906.911 554.912 911.099 553.931 913.941 553.285C915.303 552.996 916.375 552.768 917.187 552.596C917.92 552.452 918.301 552.397 918.307 552.424Z" fill="#1E2E35"/>
<path d="M893.773 1086.01C893.715 1086.1 891.999 1085.13 888.943 1083.28C885.873 1081.45 881.547 1078.63 876.313 1074.97C865.841 1067.66 851.956 1056.66 838.107 1042.91C824.28 1029.13 813.204 1015.31 805.844 1004.87C802.156 999.66 799.304 995.348 797.464 992.288C795.6 989.243 794.616 987.533 794.711 987.473C794.805 987.413 795.971 989.009 797.993 991.941C799.992 994.888 802.98 999.089 806.773 1004.2C814.345 1014.42 825.499 1028.05 839.253 1041.76C853.029 1055.44 866.721 1066.52 876.985 1074.03C882.112 1077.8 886.329 1080.76 889.287 1082.75C892.231 1084.75 893.832 1085.91 893.773 1086.01Z" fill="#1E2E35"/>
<path d="M662.876 1165.36L668.162 1184.6L865.998 1183.93L662.876 1165.36Z" fill="black"/>
</svg>
