<svg width="1147" height="734" viewBox="0 0 1147 734" fill="none" xmlns="http://www.w3.org/2000/svg">
<path d="M61.3174 732.255H113.417V511.934H61.3174V732.255Z" fill="#ECECEC"/>
<path d="M87.8706 557.892H103.705V527.377H87.8706V557.892Z" fill="white"/>
<path d="M95.3429 557.892C95.4602 557.892 95.5549 551.06 95.5549 542.636C95.5549 534.207 95.4602 527.377 95.3429 527.377C95.2255 527.377 95.1309 534.207 95.1309 542.636C95.1309 551.06 95.2255 557.892 95.3429 557.892Z" fill="#E1E1E1"/>
<path d="M87.8716 537.979C87.8716 538.096 91.4169 538.191 95.7889 538.191C100.162 538.191 103.706 538.096 103.706 537.979C103.706 537.863 100.162 537.767 95.7889 537.767C91.4169 537.767 87.8716 537.863 87.8716 537.979Z" fill="#E1E1E1"/>
<path d="M87.7881 548.892C87.7881 549.008 91.3628 549.104 95.7708 549.104C100.18 549.104 103.753 549.008 103.753 548.892C103.753 548.775 100.18 548.68 95.7708 548.68C91.3628 548.68 87.7881 548.775 87.7881 548.892Z" fill="#E1E1E1"/>
<path d="M87.8708 597.75H103.706V567.236H87.8708V597.75Z" fill="white"/>
<path d="M95.3429 597.751C95.4602 597.751 95.5549 590.919 95.5549 582.495C95.5549 574.066 95.4602 567.236 95.3429 567.236C95.2255 567.236 95.1309 574.066 95.1309 582.495C95.1309 590.919 95.2255 597.751 95.3429 597.751Z" fill="#E1E1E1"/>
<path d="M87.8716 577.838C87.8716 577.955 91.4169 578.05 95.7889 578.05C100.162 578.05 103.706 577.955 103.706 577.838C103.706 577.72 100.162 577.626 95.7889 577.626C91.4169 577.626 87.8716 577.72 87.8716 577.838Z" fill="#E1E1E1"/>
<path d="M87.7881 588.75C87.7881 588.868 91.3628 588.962 95.7708 588.962C100.18 588.962 103.753 588.868 103.753 588.75C103.753 588.634 100.18 588.538 95.7708 588.538C91.3628 588.538 87.7881 588.634 87.7881 588.75Z" fill="#E1E1E1"/>
<path d="M87.8708 637.609H103.706V607.095H87.8708V637.609Z" fill="white"/>
<path d="M95.3429 637.609C95.4602 637.609 95.5549 630.777 95.5549 622.352C95.5549 613.924 95.4602 607.095 95.3429 607.095C95.2255 607.095 95.1309 613.924 95.1309 622.352C95.1309 630.777 95.2255 637.609 95.3429 637.609Z" fill="#E1E1E1"/>
<path d="M87.8716 617.696C87.8716 617.812 91.4169 617.908 95.7889 617.908C100.162 617.908 103.706 617.812 103.706 617.696C103.706 617.579 100.162 617.484 95.7889 617.484C91.4169 617.484 87.8716 617.579 87.8716 617.696Z" fill="#E1E1E1"/>
<path d="M87.7881 628.609C87.7881 628.727 91.3628 628.821 95.7708 628.821C100.18 628.821 103.753 628.727 103.753 628.609C103.753 628.493 100.18 628.397 95.7708 628.397C91.3628 628.397 87.7881 628.493 87.7881 628.609Z" fill="#E1E1E1"/>
<path d="M87.8708 677.468H103.706V646.953H87.8708V677.468Z" fill="white"/>
<path d="M95.3429 677.468C95.4602 677.468 95.5549 670.636 95.5549 662.211C95.5549 653.783 95.4602 646.954 95.3429 646.954C95.2255 646.954 95.1309 653.783 95.1309 662.211C95.1309 670.636 95.2255 677.468 95.3429 677.468Z" fill="#E1E1E1"/>
<path d="M87.8716 657.555C87.8716 657.671 91.4169 657.767 95.7889 657.767C100.162 657.767 103.706 657.671 103.706 657.555C103.706 657.438 100.162 657.343 95.7889 657.343C91.4169 657.343 87.8716 657.438 87.8716 657.555Z" fill="#E1E1E1"/>
<path d="M87.7881 668.468C87.7881 668.584 91.3628 668.68 95.7708 668.68C100.18 668.68 103.753 668.584 103.753 668.468C103.753 668.35 100.18 668.256 95.7708 668.256C91.3628 668.256 87.7881 668.35 87.7881 668.468Z" fill="#E1E1E1"/>
<path d="M39.1602 732.255H77.1202V511.934H39.1602V732.255Z" fill="#E1E1E1"/>
<path d="M49.4976 557.892H65.3322V527.377H49.4976V557.892Z" fill="white"/>
<path d="M56.9693 557.892C57.0867 557.892 57.1813 551.06 57.1813 542.636C57.1813 534.207 57.0867 527.377 56.9693 527.377C56.852 527.377 56.7573 534.207 56.7573 542.636C56.7573 551.06 56.852 557.892 56.9693 557.892Z" fill="#E1E1E1"/>
<path d="M49.498 537.979C49.498 538.096 53.0434 538.191 57.4154 538.191C61.7887 538.191 65.3327 538.096 65.3327 537.979C65.3327 537.863 61.7887 537.767 57.4154 537.767C53.0434 537.767 49.498 537.863 49.498 537.979Z" fill="#E1E1E1"/>
<path d="M49.4146 548.892C49.4146 549.008 52.9892 549.104 57.3972 549.104C61.8065 549.104 65.3799 549.008 65.3799 548.892C65.3799 548.775 61.8065 548.68 57.3972 548.68C52.9892 548.68 49.4146 548.775 49.4146 548.892Z" fill="#E1E1E1"/>
<path d="M49.4976 598.077H65.3322V567.563H49.4976V598.077Z" fill="white"/>
<path d="M56.9693 598.078C57.0867 598.078 57.1813 591.246 57.1813 582.822C57.1813 574.394 57.0867 567.563 56.9693 567.563C56.852 567.563 56.7573 574.394 56.7573 582.822C56.7573 591.246 56.852 598.078 56.9693 598.078Z" fill="#E1E1E1"/>
<path d="M49.498 578.164C49.498 578.282 53.0434 578.376 57.4154 578.376C61.7887 578.376 65.3327 578.282 65.3327 578.164C65.3327 578.048 61.7887 577.952 57.4154 577.952C53.0434 577.952 49.498 578.048 49.498 578.164Z" fill="#E1E1E1"/>
<path d="M49.4146 589.078C49.4146 589.194 52.9892 589.29 57.3972 589.29C61.8065 589.29 65.3799 589.194 65.3799 589.078C65.3799 588.961 61.8065 588.866 57.3972 588.866C52.9892 588.866 49.4146 588.961 49.4146 589.078Z" fill="#E1E1E1"/>
<path d="M49.4976 638.264H65.3322V607.749H49.4976V638.264Z" fill="white"/>
<path d="M56.9693 638.263C57.0867 638.263 57.1813 631.431 57.1813 623.007C57.1813 614.579 57.0867 607.749 56.9693 607.749C56.852 607.749 56.7573 614.579 56.7573 623.007C56.7573 631.431 56.852 638.263 56.9693 638.263Z" fill="#E1E1E1"/>
<path d="M49.498 618.35C49.498 618.467 53.0434 618.562 57.4154 618.562C61.7887 618.562 65.3327 618.467 65.3327 618.35C65.3327 618.234 61.7887 618.138 57.4154 618.138C53.0434 618.138 49.498 618.234 49.498 618.35Z" fill="#E1E1E1"/>
<path d="M49.4146 629.264C49.4146 629.38 52.9892 629.476 57.3972 629.476C61.8065 629.476 65.3799 629.38 65.3799 629.264C65.3799 629.146 61.8065 629.052 57.3972 629.052C52.9892 629.052 49.4146 629.146 49.4146 629.264Z" fill="#E1E1E1"/>
<path d="M49.4976 678.449H65.3322V647.934H49.4976V678.449Z" fill="white"/>
<path d="M56.9693 678.449C57.0867 678.449 57.1813 671.617 57.1813 663.193C57.1813 654.765 57.0867 647.934 56.9693 647.934C56.852 647.934 56.7573 654.765 56.7573 663.193C56.7573 671.617 56.852 678.449 56.9693 678.449Z" fill="#E1E1E1"/>
<path d="M49.498 658.536C49.498 658.653 53.0434 658.748 57.4154 658.748C61.7887 658.748 65.3327 658.653 65.3327 658.536C65.3327 658.42 61.7887 658.324 57.4154 658.324C53.0434 658.324 49.498 658.42 49.498 658.536Z" fill="#E1E1E1"/>
<path d="M49.4146 669.449C49.4146 669.565 52.9892 669.661 57.3972 669.661C61.8065 669.661 65.3799 669.565 65.3799 669.449C65.3799 669.332 61.8065 669.237 57.3972 669.237C52.9892 669.237 49.4146 669.332 49.4146 669.449Z" fill="#E1E1E1"/>
<path d="M87.8708 717.326H103.706V686.812H87.8708V717.326Z" fill="white"/>
<path d="M95.3429 717.326C95.4602 717.326 95.5549 710.494 95.5549 702.07C95.5549 693.642 95.4602 686.812 95.3429 686.812C95.2255 686.812 95.1309 693.642 95.1309 702.07C95.1309 710.494 95.2255 717.326 95.3429 717.326Z" fill="#E1E1E1"/>
<path d="M87.8716 697.413C87.8716 697.53 91.4169 697.625 95.7889 697.625C100.162 697.625 103.706 697.53 103.706 697.413C103.706 697.297 100.162 697.201 95.7889 697.201C91.4169 697.201 87.8716 697.297 87.8716 697.413Z" fill="#E1E1E1"/>
<path d="M87.7881 708.327C87.7881 708.443 91.3628 708.539 95.7708 708.539C100.18 708.539 103.753 708.443 103.753 708.327C103.753 708.209 100.18 708.115 95.7708 708.115C91.3628 708.115 87.7881 708.209 87.7881 708.327Z" fill="#E1E1E1"/>
<path d="M49.4976 718.634H65.3322V688.12H49.4976V718.634Z" fill="white"/>
<path d="M56.9693 718.634C57.0867 718.634 57.1813 711.802 57.1813 703.378C57.1813 694.95 57.0867 688.12 56.9693 688.12C56.852 688.12 56.7573 694.95 56.7573 703.378C56.7573 711.802 56.852 718.634 56.9693 718.634Z" fill="#E1E1E1"/>
<path d="M49.498 698.721C49.498 698.838 53.0434 698.933 57.4154 698.933C61.7887 698.933 65.3327 698.838 65.3327 698.721C65.3327 698.605 61.7887 698.509 57.4154 698.509C53.0434 698.509 49.498 698.605 49.498 698.721Z" fill="#E1E1E1"/>
<path d="M49.4146 709.635C49.4146 709.751 52.9892 709.847 57.3972 709.847C61.8065 709.847 65.3799 709.751 65.3799 709.635C65.3799 709.519 61.8065 709.423 57.3972 709.423C52.9892 709.423 49.4146 709.519 49.4146 709.635Z" fill="#E1E1E1"/>
<path d="M617.076 577.113H678.372V317.899H617.076V577.113Z" fill="#ECECEC"/>
<path d="M648.317 371.969H666.948V336.068H648.317V371.969Z" fill="white"/>
<path d="M657.108 371.969C657.245 371.969 657.357 363.931 657.357 354.019C657.357 344.103 657.245 336.067 657.108 336.067C656.971 336.067 656.859 344.103 656.859 354.019C656.859 363.931 656.971 371.969 657.108 371.969Z" fill="#E1E1E1"/>
<path d="M648.317 348.54C648.317 348.678 652.488 348.789 657.632 348.789C662.779 348.789 666.948 348.678 666.948 348.54C666.948 348.402 662.779 348.29 657.632 348.29C652.488 348.29 648.317 348.402 648.317 348.54Z" fill="#E1E1E1"/>
<path d="M648.219 361.38C648.219 361.517 652.425 361.629 657.61 361.629C662.799 361.629 667.003 361.517 667.003 361.38C667.003 361.241 662.799 361.13 657.61 361.13C652.425 361.13 648.219 361.241 648.219 361.38Z" fill="#E1E1E1"/>
<path d="M648.317 418.863H666.948V382.962H648.317V418.863Z" fill="white"/>
<path d="M657.108 418.863C657.245 418.863 657.357 410.826 657.357 400.914C657.357 390.998 657.245 382.962 657.108 382.962C656.971 382.962 656.859 390.998 656.859 400.914C656.859 410.826 656.971 418.863 657.108 418.863Z" fill="#E1E1E1"/>
<path d="M648.317 395.435C648.317 395.573 652.488 395.685 657.632 395.685C662.779 395.685 666.948 395.573 666.948 395.435C666.948 395.298 662.779 395.186 657.632 395.186C652.488 395.186 648.317 395.298 648.317 395.435Z" fill="#E1E1E1"/>
<path d="M648.219 408.274C648.219 408.413 652.425 408.523 657.61 408.523C662.799 408.523 667.003 408.413 667.003 408.274C667.003 408.137 662.799 408.025 657.61 408.025C652.425 408.025 648.219 408.137 648.219 408.274Z" fill="#E1E1E1"/>
<path d="M648.317 465.759H666.948V429.857H648.317V465.759Z" fill="white"/>
<path d="M657.108 465.759C657.245 465.759 657.357 457.721 657.357 447.809C657.357 437.893 657.245 429.857 657.108 429.857C656.971 429.857 656.859 437.893 656.859 447.809C656.859 457.721 656.971 465.759 657.108 465.759Z" fill="#E1E1E1"/>
<path d="M648.317 442.33C648.317 442.468 652.488 442.579 657.632 442.579C662.779 442.579 666.948 442.468 666.948 442.33C666.948 442.192 662.779 442.08 657.632 442.08C652.488 442.08 648.317 442.192 648.317 442.33Z" fill="#E1E1E1"/>
<path d="M648.219 455.17C648.219 455.307 652.425 455.419 657.61 455.419C662.799 455.419 667.003 455.307 667.003 455.17C667.003 455.032 662.799 454.92 657.61 454.92C652.425 454.92 648.219 455.032 648.219 455.17Z" fill="#E1E1E1"/>
<path d="M648.317 512.653H666.948V476.752H648.317V512.653Z" fill="white"/>
<path d="M657.108 512.653C657.245 512.653 657.357 504.616 657.357 494.704C657.357 484.788 657.245 476.752 657.108 476.752C656.971 476.752 656.859 484.788 656.859 494.704C656.859 504.616 656.971 512.653 657.108 512.653Z" fill="#E1E1E1"/>
<path d="M648.317 489.225C648.317 489.362 652.488 489.474 657.632 489.474C662.779 489.474 666.948 489.362 666.948 489.225C666.948 489.087 662.779 488.975 657.632 488.975C652.488 488.975 648.317 489.087 648.317 489.225Z" fill="#E1E1E1"/>
<path d="M648.219 502.064C648.219 502.203 652.425 502.313 657.61 502.313C662.799 502.313 667.003 502.203 667.003 502.064C667.003 501.927 662.799 501.815 657.61 501.815C652.425 501.815 648.219 501.927 648.219 502.064Z" fill="#E1E1E1"/>
<path d="M591.008 577.113H635.67V317.899H591.008V577.113Z" fill="#E1E1E1"/>
<path d="M603.171 371.969H621.802V336.068H603.171V371.969Z" fill="white"/>
<path d="M611.961 371.969C612.098 371.969 612.21 363.931 612.21 354.019C612.21 344.103 612.098 336.067 611.961 336.067C611.823 336.067 611.711 344.103 611.711 354.019C611.711 363.931 611.823 371.969 611.961 371.969Z" fill="#E1E1E1"/>
<path d="M603.17 348.54C603.17 348.678 607.341 348.789 612.485 348.789C617.63 348.789 621.801 348.678 621.801 348.54C621.801 348.402 617.63 348.29 612.485 348.29C607.341 348.29 603.17 348.402 603.17 348.54Z" fill="#E1E1E1"/>
<path d="M603.072 361.38C603.072 361.517 607.278 361.629 612.463 361.629C617.652 361.629 621.856 361.517 621.856 361.38C621.856 361.241 617.652 361.13 612.463 361.13C607.278 361.13 603.072 361.241 603.072 361.38Z" fill="#E1E1E1"/>
<path d="M603.171 419.248H621.802V383.347H603.171V419.248Z" fill="white"/>
<path d="M611.961 419.248C612.098 419.248 612.21 411.211 612.21 401.299C612.21 391.383 612.098 383.347 611.961 383.347C611.823 383.347 611.711 391.383 611.711 401.299C611.711 411.211 611.823 419.248 611.961 419.248Z" fill="#E1E1E1"/>
<path d="M603.17 395.82C603.17 395.957 607.341 396.069 612.485 396.069C617.63 396.069 621.801 395.957 621.801 395.82C621.801 395.683 617.63 395.571 612.485 395.571C607.341 395.571 603.17 395.683 603.17 395.82Z" fill="#E1E1E1"/>
<path d="M603.072 408.659C603.072 408.798 607.278 408.908 612.463 408.908C617.652 408.908 621.856 408.798 621.856 408.659C621.856 408.522 617.652 408.41 612.463 408.41C607.278 408.41 603.072 408.522 603.072 408.659Z" fill="#E1E1E1"/>
<path d="M603.171 466.527H621.802V430.626H603.171V466.527Z" fill="white"/>
<path d="M611.961 466.528C612.098 466.528 612.21 458.491 612.21 448.579C612.21 438.663 612.098 430.627 611.961 430.627C611.823 430.627 611.711 438.663 611.711 448.579C611.711 458.491 611.823 466.528 611.961 466.528Z" fill="#E1E1E1"/>
<path d="M603.17 443.099C603.17 443.238 607.341 443.349 612.485 443.349C617.63 443.349 621.801 443.238 621.801 443.099C621.801 442.962 617.63 442.85 612.485 442.85C607.341 442.85 603.17 442.962 603.17 443.099Z" fill="#E1E1E1"/>
<path d="M603.072 455.939C603.072 456.076 607.278 456.188 612.463 456.188C617.652 456.188 621.856 456.076 621.856 455.939C621.856 455.802 617.652 455.69 612.463 455.69C607.278 455.69 603.072 455.802 603.072 455.939Z" fill="#E1E1E1"/>
<path d="M603.171 513.808H621.802V477.907H603.171V513.808Z" fill="white"/>
<path d="M611.961 513.808C612.098 513.808 612.21 505.77 612.21 495.858C612.21 485.942 612.098 477.906 611.961 477.906C611.823 477.906 611.711 485.942 611.711 495.858C611.711 505.77 611.823 513.808 611.961 513.808Z" fill="#E1E1E1"/>
<path d="M603.17 490.379C603.17 490.516 607.341 490.628 612.485 490.628C617.63 490.628 621.801 490.516 621.801 490.379C621.801 490.24 617.63 490.13 612.485 490.13C607.341 490.13 603.17 490.24 603.17 490.379Z" fill="#E1E1E1"/>
<path d="M603.072 503.218C603.072 503.356 607.278 503.468 612.463 503.468C617.652 503.468 621.856 503.356 621.856 503.218C621.856 503.081 617.652 502.969 612.463 502.969C607.278 502.969 603.072 503.081 603.072 503.218Z" fill="#E1E1E1"/>
<path d="M648.317 559.548H666.948V523.647H648.317V559.548Z" fill="white"/>
<path d="M657.108 559.548C657.245 559.548 657.357 551.511 657.357 541.599C657.357 531.683 657.245 523.647 657.108 523.647C656.971 523.647 656.859 531.683 656.859 541.599C656.859 551.511 656.971 559.548 657.108 559.548Z" fill="#E1E1E1"/>
<path d="M648.317 536.119C648.317 536.258 652.488 536.369 657.632 536.369C662.779 536.369 666.948 536.258 666.948 536.119C666.948 535.982 662.779 535.87 657.632 535.87C652.488 535.87 648.317 535.982 648.317 536.119Z" fill="#E1E1E1"/>
<path d="M648.219 548.959C648.219 549.096 652.425 549.208 657.61 549.208C662.799 549.208 667.003 549.096 667.003 548.959C667.003 548.82 662.799 548.71 657.61 548.71C652.425 548.71 648.219 548.82 648.219 548.959Z" fill="#E1E1E1"/>
<path d="M603.171 561.087H621.802V525.186H603.171V561.087Z" fill="white"/>
<path d="M611.961 561.087C612.098 561.087 612.21 553.05 612.21 543.138C612.21 533.222 612.098 525.186 611.961 525.186C611.823 525.186 611.711 533.222 611.711 543.138C611.711 553.05 611.823 561.087 611.961 561.087Z" fill="#E1E1E1"/>
<path d="M603.17 537.658C603.17 537.797 607.341 537.908 612.485 537.908C617.63 537.908 621.801 537.797 621.801 537.658C621.801 537.521 617.63 537.409 612.485 537.409C607.341 537.409 603.17 537.521 603.17 537.658Z" fill="#E1E1E1"/>
<path d="M603.072 550.498C603.072 550.636 607.278 550.748 612.463 550.748C617.652 550.748 621.856 550.636 621.856 550.498C621.856 550.36 617.652 550.249 612.463 550.249C607.278 550.249 603.072 550.36 603.072 550.498Z" fill="#E1E1E1"/>
<path d="M618.056 732.255H679.352V473.041H618.056V732.255Z" fill="#ECECEC"/>
<path d="M649.297 527.111H667.928V491.21H649.297V527.111Z" fill="white"/>
<path d="M658.088 527.112C658.225 527.112 658.337 519.075 658.337 509.162C658.337 499.246 658.225 491.211 658.088 491.211C657.95 491.211 657.838 499.246 657.838 509.162C657.838 519.075 657.95 527.112 658.088 527.112Z" fill="#E1E1E1"/>
<path d="M649.297 503.683C649.297 503.822 653.468 503.933 658.612 503.933C663.758 503.933 667.928 503.822 667.928 503.683C667.928 503.546 663.758 503.434 658.612 503.434C653.468 503.434 649.297 503.546 649.297 503.683Z" fill="#E1E1E1"/>
<path d="M649.199 516.523C649.199 516.66 653.405 516.772 658.591 516.772C663.779 516.772 667.983 516.66 667.983 516.523C667.983 516.384 663.779 516.274 658.591 516.274C653.405 516.274 649.199 516.384 649.199 516.523Z" fill="#E1E1E1"/>
<path d="M649.297 574.007H667.928V538.105H649.297V574.007Z" fill="white"/>
<path d="M658.088 574.007C658.225 574.007 658.337 565.97 658.337 556.058C658.337 546.142 658.225 538.106 658.088 538.106C657.95 538.106 657.838 546.142 657.838 556.058C657.838 565.97 657.95 574.007 658.088 574.007Z" fill="#E1E1E1"/>
<path d="M649.297 550.578C649.297 550.716 653.468 550.828 658.612 550.828C663.758 550.828 667.928 550.716 667.928 550.578C667.928 550.44 663.758 550.329 658.612 550.329C653.468 550.329 649.297 550.44 649.297 550.578Z" fill="#E1E1E1"/>
<path d="M649.199 563.418C649.199 563.555 653.405 563.667 658.591 563.667C663.779 563.667 667.983 563.555 667.983 563.418C667.983 563.28 663.779 563.168 658.591 563.168C653.405 563.168 649.199 563.28 649.199 563.418Z" fill="#E1E1E1"/>
<path d="M649.297 620.901H667.928V585H649.297V620.901Z" fill="white"/>
<path d="M658.088 620.901C658.225 620.901 658.337 612.864 658.337 602.952C658.337 593.036 658.225 585 658.088 585C657.95 585 657.838 593.036 657.838 602.952C657.838 612.864 657.95 620.901 658.088 620.901Z" fill="#E1E1E1"/>
<path d="M649.297 597.473C649.297 597.61 653.468 597.722 658.612 597.722C663.758 597.722 667.928 597.61 667.928 597.473C667.928 597.336 663.758 597.224 658.612 597.224C653.468 597.224 649.297 597.336 649.297 597.473Z" fill="#E1E1E1"/>
<path d="M649.199 610.312C649.199 610.45 653.405 610.562 658.591 610.562C663.779 610.562 667.983 610.45 667.983 610.312C667.983 610.175 663.779 610.063 658.591 610.063C653.405 610.063 649.199 610.175 649.199 610.312Z" fill="#E1E1E1"/>
<path d="M649.297 667.797H667.928V631.896H649.297V667.797Z" fill="white"/>
<path d="M658.088 667.796C658.225 667.796 658.337 659.759 658.337 649.847C658.337 639.931 658.225 631.895 658.088 631.895C657.95 631.895 657.838 639.931 657.838 649.847C657.838 659.759 657.95 667.796 658.088 667.796Z" fill="#E1E1E1"/>
<path d="M649.297 644.367C649.297 644.506 653.468 644.617 658.612 644.617C663.758 644.617 667.928 644.506 667.928 644.367C667.928 644.23 663.758 644.118 658.612 644.118C653.468 644.118 649.297 644.23 649.297 644.367Z" fill="#E1E1E1"/>
<path d="M649.199 657.207C649.199 657.345 653.405 657.457 658.591 657.457C663.779 657.457 667.983 657.345 667.983 657.207C667.983 657.07 663.779 656.958 658.591 656.958C653.405 656.958 649.199 657.07 649.199 657.207Z" fill="#E1E1E1"/>
<path d="M591.988 732.255H636.65V473.041H591.988V732.255Z" fill="#E1E1E1"/>
<path d="M604.15 527.111H622.78V491.21H604.15V527.111Z" fill="white"/>
<path d="M612.94 527.112C613.078 527.112 613.19 519.075 613.19 509.162C613.19 499.246 613.078 491.211 612.94 491.211C612.803 491.211 612.691 499.246 612.691 509.162C612.691 519.075 612.803 527.112 612.94 527.112Z" fill="#E1E1E1"/>
<path d="M604.15 503.683C604.15 503.822 608.321 503.933 613.465 503.933C618.611 503.933 622.781 503.822 622.781 503.683C622.781 503.546 618.611 503.434 613.465 503.434C608.321 503.434 604.15 503.546 604.15 503.683Z" fill="#E1E1E1"/>
<path d="M604.052 516.523C604.052 516.66 608.257 516.772 613.444 516.772C618.632 516.772 622.836 516.66 622.836 516.523C622.836 516.384 618.632 516.274 613.444 516.274C608.257 516.274 604.052 516.384 604.052 516.523Z" fill="#E1E1E1"/>
<path d="M604.149 574.392H622.78V538.491H604.149V574.392Z" fill="white"/>
<path d="M612.94 574.392C613.078 574.392 613.19 566.354 613.19 556.441C613.19 546.526 613.078 538.49 612.94 538.49C612.803 538.49 612.691 546.526 612.691 556.441C612.691 566.354 612.803 574.392 612.94 574.392Z" fill="#E1E1E1"/>
<path d="M604.15 550.963C604.15 551.1 608.321 551.212 613.465 551.212C618.611 551.212 622.781 551.1 622.781 550.963C622.781 550.824 618.611 550.714 613.465 550.714C608.321 550.714 604.15 550.824 604.15 550.963Z" fill="#E1E1E1"/>
<path d="M604.052 563.802C604.052 563.94 608.257 564.052 613.444 564.052C618.632 564.052 622.836 563.94 622.836 563.802C622.836 563.665 618.632 563.553 613.444 563.553C608.257 563.553 604.052 563.665 604.052 563.802Z" fill="#E1E1E1"/>
<path d="M604.149 621.67H622.78V585.769H604.149V621.67Z" fill="white"/>
<path d="M612.94 621.671C613.078 621.671 613.19 613.634 613.19 603.722C613.19 593.806 613.078 585.77 612.94 585.77C612.803 585.77 612.691 593.806 612.691 603.722C612.691 613.634 612.803 621.671 612.94 621.671Z" fill="#E1E1E1"/>
<path d="M604.15 598.242C604.15 598.38 608.321 598.492 613.465 598.492C618.611 598.492 622.781 598.38 622.781 598.242C622.781 598.105 618.611 597.993 613.465 597.993C608.321 597.993 604.15 598.105 604.15 598.242Z" fill="#E1E1E1"/>
<path d="M604.052 611.082C604.052 611.22 608.257 611.331 613.444 611.331C618.632 611.331 622.836 611.22 622.836 611.082C622.836 610.944 618.632 610.832 613.444 610.832C608.257 610.832 604.052 610.944 604.052 611.082Z" fill="#E1E1E1"/>
<path d="M604.149 668.95H622.78V633.049H604.149V668.95Z" fill="white"/>
<path d="M612.94 668.951C613.078 668.951 613.19 660.913 613.19 651C613.19 641.085 613.078 633.049 612.94 633.049C612.803 633.049 612.691 641.085 612.691 651C612.691 660.913 612.803 668.951 612.94 668.951Z" fill="#E1E1E1"/>
<path d="M604.15 645.522C604.15 645.66 608.321 645.771 613.465 645.771C618.611 645.771 622.781 645.66 622.781 645.522C622.781 645.384 618.611 645.272 613.465 645.272C608.321 645.272 604.15 645.384 604.15 645.522Z" fill="#E1E1E1"/>
<path d="M604.052 658.362C604.052 658.499 608.257 658.611 613.444 658.611C618.632 658.611 622.836 658.499 622.836 658.362C622.836 658.223 618.632 658.112 613.444 658.112C608.257 658.112 604.052 658.223 604.052 658.362Z" fill="#E1E1E1"/>
<path d="M649.297 714.69H667.928V678.789H649.297V714.69Z" fill="white"/>
<path d="M658.088 714.691C658.225 714.691 658.337 706.654 658.337 696.742C658.337 686.826 658.225 678.79 658.088 678.79C657.95 678.79 657.838 686.826 657.838 696.742C657.838 706.654 657.95 714.691 658.088 714.691Z" fill="#E1E1E1"/>
<path d="M649.297 691.262C649.297 691.4 653.468 691.512 658.612 691.512C663.758 691.512 667.928 691.4 667.928 691.262C667.928 691.124 663.758 691.013 658.612 691.013C653.468 691.013 649.297 691.124 649.297 691.262Z" fill="#E1E1E1"/>
<path d="M649.199 704.102C649.199 704.24 653.405 704.351 658.591 704.351C663.779 704.351 667.983 704.24 667.983 704.102C667.983 703.964 663.779 703.852 658.591 703.852C653.405 703.852 649.199 703.964 649.199 704.102Z" fill="#E1E1E1"/>
<path d="M604.149 716.23H622.78V680.329H604.149V716.23Z" fill="white"/>
<path d="M612.94 716.23C613.078 716.23 613.19 708.193 613.19 698.281C613.19 688.365 613.078 680.329 612.94 680.329C612.803 680.329 612.691 688.365 612.691 698.281C612.691 708.193 612.803 716.23 612.94 716.23Z" fill="#E1E1E1"/>
<path d="M604.15 692.801C604.15 692.939 608.321 693.051 613.465 693.051C618.611 693.051 622.781 692.939 622.781 692.801C622.781 692.663 618.611 692.552 613.465 692.552C608.321 692.552 604.15 692.663 604.15 692.801Z" fill="#E1E1E1"/>
<path d="M604.052 705.641C604.052 705.778 608.257 705.89 613.444 705.89C618.632 705.89 622.836 705.778 622.836 705.641C622.836 705.503 618.632 705.391 613.444 705.391C608.257 705.391 604.052 705.503 604.052 705.641Z" fill="#E1E1E1"/>
<path d="M136.785 731.886H228.337V321.882H136.785V731.886Z" fill="#ECECEC"/>
<path d="M183.448 402.642H211.273V349.021H183.448V402.642Z" fill="white"/>
<path d="M196.577 402.642C196.782 402.642 196.949 390.637 196.949 375.833C196.949 361.022 196.782 349.021 196.577 349.021C196.372 349.021 196.205 361.022 196.205 375.833C196.205 390.637 196.372 402.642 196.577 402.642Z" fill="#E1E1E1"/>
<path d="M183.448 367.649C183.448 367.854 189.678 368.021 197.36 368.021C205.046 368.021 211.274 367.854 211.274 367.649C211.274 367.444 205.046 367.277 197.36 367.277C189.678 367.277 183.448 367.444 183.448 367.649Z" fill="#E1E1E1"/>
<path d="M183.302 386.826C183.302 387.032 189.583 387.198 197.328 387.198C205.078 387.198 211.356 387.032 211.356 386.826C211.356 386.621 205.078 386.454 197.328 386.454C189.583 386.454 183.302 386.621 183.302 386.826Z" fill="#E1E1E1"/>
<path d="M183.448 472.684H211.274V419.062H183.448V472.684Z" fill="white"/>
<path d="M196.577 472.683C196.782 472.683 196.949 460.679 196.949 445.874C196.949 431.063 196.782 419.062 196.577 419.062C196.372 419.062 196.205 431.063 196.205 445.874C196.205 460.679 196.372 472.683 196.577 472.683Z" fill="#E1E1E1"/>
<path d="M183.448 437.691C183.448 437.896 189.678 438.062 197.36 438.062C205.046 438.062 211.274 437.896 211.274 437.691C211.274 437.485 205.046 437.319 197.36 437.319C189.678 437.319 183.448 437.485 183.448 437.691Z" fill="#E1E1E1"/>
<path d="M183.302 456.867C183.302 457.073 189.583 457.239 197.328 457.239C205.078 457.239 211.356 457.073 211.356 456.867C211.356 456.662 205.078 456.495 197.328 456.495C189.583 456.495 183.302 456.662 183.302 456.867Z" fill="#E1E1E1"/>
<path d="M183.448 542.724H211.274V489.103H183.448V542.724Z" fill="white"/>
<path d="M196.577 542.724C196.782 542.724 196.949 530.72 196.949 515.915C196.949 501.105 196.782 489.103 196.577 489.103C196.372 489.103 196.205 501.105 196.205 515.915C196.205 530.72 196.372 542.724 196.577 542.724Z" fill="#E1E1E1"/>
<path d="M183.448 507.732C183.448 507.937 189.678 508.104 197.36 508.104C205.046 508.104 211.274 507.937 211.274 507.732C211.274 507.526 205.046 507.36 197.36 507.36C189.678 507.36 183.448 507.526 183.448 507.732Z" fill="#E1E1E1"/>
<path d="M183.302 526.909C183.302 527.114 189.583 527.281 197.328 527.281C205.078 527.281 211.356 527.114 211.356 526.909C211.356 526.703 205.078 526.537 197.328 526.537C189.583 526.537 183.302 526.703 183.302 526.909Z" fill="#E1E1E1"/>
<path d="M183.448 612.767H211.274V559.146H183.448V612.767Z" fill="white"/>
<path d="M196.577 612.766C196.782 612.766 196.949 600.762 196.949 585.956C196.949 571.146 196.782 559.144 196.577 559.144C196.372 559.144 196.205 571.146 196.205 585.956C196.205 600.762 196.372 612.766 196.577 612.766Z" fill="#E1E1E1"/>
<path d="M183.448 577.773C183.448 577.978 189.678 578.145 197.36 578.145C205.046 578.145 211.274 577.978 211.274 577.773C211.274 577.567 205.046 577.401 197.36 577.401C189.678 577.401 183.448 577.567 183.448 577.773Z" fill="#E1E1E1"/>
<path d="M183.302 596.95C183.302 597.155 189.583 597.322 197.328 597.322C205.078 597.322 211.356 597.155 211.356 596.95C211.356 596.744 205.078 596.578 197.328 596.578C189.583 596.578 183.302 596.744 183.302 596.95Z" fill="#E1E1E1"/>
<path d="M97.8521 731.886H164.557V321.882H97.8521V731.886Z" fill="#E1E1E1"/>
<path d="M116.016 402.642H143.843V349.021H116.016V402.642Z" fill="white"/>
<path d="M129.146 402.642C129.351 402.642 129.518 390.637 129.518 375.833C129.518 361.022 129.351 349.021 129.146 349.021C128.94 349.021 128.774 361.022 128.774 375.833C128.774 390.637 128.94 402.642 129.146 402.642Z" fill="#E1E1E1"/>
<path d="M116.017 367.649C116.017 367.854 122.246 368.021 129.929 368.021C137.614 368.021 143.843 367.854 143.843 367.649C143.843 367.444 137.614 367.277 129.929 367.277C122.246 367.277 116.017 367.444 116.017 367.649Z" fill="#E1E1E1"/>
<path d="M115.87 386.826C115.87 387.032 122.151 387.198 129.897 387.198C137.646 387.198 143.925 387.032 143.925 386.826C143.925 386.621 137.646 386.454 129.897 386.454C122.151 386.454 115.87 386.621 115.87 386.826Z" fill="#E1E1E1"/>
<path d="M116.016 473.259H143.843V419.637H116.016V473.259Z" fill="white"/>
<path d="M129.146 473.258C129.351 473.258 129.518 461.254 129.518 446.448C129.518 431.638 129.351 419.636 129.146 419.636C128.94 419.636 128.774 431.638 128.774 446.448C128.774 461.254 128.94 473.258 129.146 473.258Z" fill="#E1E1E1"/>
<path d="M116.017 438.265C116.017 438.47 122.246 438.637 129.929 438.637C137.614 438.637 143.843 438.47 143.843 438.265C143.843 438.059 137.614 437.893 129.929 437.893C122.246 437.893 116.017 438.059 116.017 438.265Z" fill="#E1E1E1"/>
<path d="M115.87 457.442C115.87 457.647 122.151 457.814 129.897 457.814C137.646 457.814 143.925 457.647 143.925 457.442C143.925 457.237 137.646 457.07 129.897 457.07C122.151 457.07 115.87 457.237 115.87 457.442Z" fill="#E1E1E1"/>
<path d="M116.016 543.875H143.843V490.251H116.016V543.875Z" fill="white"/>
<path d="M129.146 543.874C129.351 543.874 129.518 531.87 129.518 517.065C129.518 502.254 129.351 490.251 129.146 490.251C128.94 490.251 128.774 502.254 128.774 517.065C128.774 531.87 128.94 543.874 129.146 543.874Z" fill="#E1E1E1"/>
<path d="M116.017 508.881C116.017 509.086 122.246 509.253 129.929 509.253C137.614 509.253 143.843 509.086 143.843 508.881C143.843 508.676 137.614 508.509 129.929 508.509C122.246 508.509 116.017 508.676 116.017 508.881Z" fill="#E1E1E1"/>
<path d="M115.87 528.058C115.87 528.263 122.151 528.43 129.897 528.43C137.646 528.43 143.925 528.263 143.925 528.058C143.925 527.852 137.646 527.686 129.897 527.686C122.151 527.686 115.87 527.852 115.87 528.058Z" fill="#E1E1E1"/>
<path d="M116.016 614.49H143.843V560.869H116.016V614.49Z" fill="white"/>
<path d="M129.146 614.49C129.351 614.49 129.518 602.486 129.518 587.68C129.518 572.87 129.351 560.868 129.146 560.868C128.94 560.868 128.774 572.87 128.774 587.68C128.774 602.486 128.94 614.49 129.146 614.49Z" fill="#E1E1E1"/>
<path d="M116.017 579.497C116.017 579.702 122.246 579.869 129.929 579.869C137.614 579.869 143.843 579.702 143.843 579.497C143.843 579.291 137.614 579.125 129.929 579.125C122.246 579.125 116.017 579.291 116.017 579.497Z" fill="#E1E1E1"/>
<path d="M115.87 598.674C115.87 598.879 122.151 599.046 129.897 599.046C137.646 599.046 143.925 598.879 143.925 598.674C143.925 598.469 137.646 598.302 129.897 598.302C122.151 598.302 115.87 598.469 115.87 598.674Z" fill="#E1E1E1"/>
<path d="M183.448 682.806H211.274V629.185H183.448V682.806Z" fill="white"/>
<path d="M196.577 682.807C196.782 682.807 196.949 670.803 196.949 655.997C196.949 641.187 196.782 629.185 196.577 629.185C196.372 629.185 196.205 641.187 196.205 655.997C196.205 670.803 196.372 682.807 196.577 682.807Z" fill="#E1E1E1"/>
<path d="M183.448 647.814C183.448 648.019 189.678 648.187 197.36 648.187C205.046 648.187 211.274 648.019 211.274 647.814C211.274 647.608 205.046 647.442 197.36 647.442C189.678 647.442 183.448 647.608 183.448 647.814Z" fill="#E1E1E1"/>
<path d="M183.302 666.991C183.302 667.196 189.583 667.363 197.328 667.363C205.078 667.363 211.356 667.196 211.356 666.991C211.356 666.785 205.078 666.619 197.328 666.619C189.583 666.619 183.302 666.785 183.302 666.991Z" fill="#E1E1E1"/>
<path d="M116.016 685.105H143.843V631.484H116.016V685.105Z" fill="white"/>
<path d="M129.146 685.105C129.351 685.105 129.518 673.101 129.518 658.296C129.518 643.485 129.351 631.484 129.146 631.484C128.94 631.484 128.774 643.485 128.774 658.296C128.774 673.101 128.94 685.105 129.146 685.105Z" fill="#E1E1E1"/>
<path d="M116.017 650.112C116.017 650.318 122.246 650.484 129.929 650.484C137.614 650.484 143.843 650.318 143.843 650.112C143.843 649.907 137.614 649.74 129.929 649.74C122.246 649.74 116.017 649.907 116.017 650.112Z" fill="#E1E1E1"/>
<path d="M115.87 669.29C115.87 669.495 122.151 669.662 129.897 669.662C137.646 669.662 143.925 669.495 143.925 669.29C143.925 669.084 137.646 668.918 129.897 668.918C122.151 668.918 115.87 669.084 115.87 669.29Z" fill="#E1E1E1"/>
<path d="M997.821 732.437H1084.86V364.371H997.821V732.437Z" fill="#ECECEC"/>
<path d="M1042.18 441.148H1068.64V390.17H1042.18V441.148Z" fill="white"/>
<path d="M1054.66 441.147C1054.86 441.147 1055.02 429.734 1055.02 415.661C1055.02 401.581 1054.86 390.17 1054.66 390.17C1054.47 390.17 1054.31 401.581 1054.31 415.661C1054.31 429.734 1054.47 441.147 1054.66 441.147Z" fill="#E1E1E1"/>
<path d="M1042.18 407.881C1042.18 408.077 1048.11 408.235 1055.41 408.235C1062.72 408.235 1068.64 408.077 1068.64 407.881C1068.64 407.686 1062.72 407.527 1055.41 407.527C1048.11 407.527 1042.18 407.686 1042.18 407.881Z" fill="#E1E1E1"/>
<path d="M1042.04 426.112C1042.04 426.307 1048.01 426.466 1055.38 426.466C1062.74 426.466 1068.72 426.307 1068.72 426.112C1068.72 425.916 1062.74 425.758 1055.38 425.758C1048.01 425.758 1042.04 425.916 1042.04 426.112Z" fill="#E1E1E1"/>
<path d="M1042.18 507.736H1068.64V456.759H1042.18V507.736Z" fill="white"/>
<path d="M1054.66 507.735C1054.86 507.735 1055.02 496.322 1055.02 482.247C1055.02 468.167 1054.86 456.758 1054.66 456.758C1054.47 456.758 1054.31 468.167 1054.31 482.247C1054.31 496.322 1054.47 507.735 1054.66 507.735Z" fill="#E1E1E1"/>
<path d="M1042.18 474.468C1042.18 474.663 1048.11 474.822 1055.41 474.822C1062.72 474.822 1068.64 474.663 1068.64 474.468C1068.64 474.272 1062.72 474.114 1055.41 474.114C1048.11 474.114 1042.18 474.272 1042.18 474.468Z" fill="#E1E1E1"/>
<path d="M1042.04 492.699C1042.04 492.894 1048.01 493.053 1055.38 493.053C1062.74 493.053 1068.72 492.894 1068.72 492.699C1068.72 492.505 1062.74 492.345 1055.38 492.345C1048.01 492.345 1042.04 492.505 1042.04 492.699Z" fill="#E1E1E1"/>
<path d="M1042.18 574.322H1068.64V523.345H1042.18V574.322Z" fill="white"/>
<path d="M1054.66 574.322C1054.86 574.322 1055.02 562.909 1055.02 548.834C1055.02 534.756 1054.86 523.345 1054.66 523.345C1054.47 523.345 1054.31 534.756 1054.31 548.834C1054.31 562.909 1054.47 574.322 1054.66 574.322Z" fill="#E1E1E1"/>
<path d="M1042.18 541.056C1042.18 541.251 1048.11 541.409 1055.41 541.409C1062.72 541.409 1068.64 541.251 1068.64 541.056C1068.64 540.861 1062.72 540.703 1055.41 540.703C1048.11 540.703 1042.18 540.861 1042.18 541.056Z" fill="#E1E1E1"/>
<path d="M1042.04 559.287C1042.04 559.481 1048.01 559.64 1055.38 559.64C1062.74 559.64 1068.72 559.481 1068.72 559.287C1068.72 559.092 1062.74 558.933 1055.38 558.933C1048.01 558.933 1042.04 559.092 1042.04 559.287Z" fill="#E1E1E1"/>
<path d="M1042.18 640.91H1068.64V589.932H1042.18V640.91Z" fill="white"/>
<path d="M1054.66 640.91C1054.86 640.91 1055.02 629.497 1055.02 615.422C1055.02 601.342 1054.86 589.931 1054.66 589.931C1054.47 589.931 1054.31 601.342 1054.31 615.422C1054.31 629.497 1054.47 640.91 1054.66 640.91Z" fill="#E1E1E1"/>
<path d="M1042.18 607.643C1042.18 607.838 1048.11 607.998 1055.41 607.998C1062.72 607.998 1068.64 607.838 1068.64 607.643C1068.64 607.448 1062.72 607.29 1055.41 607.29C1048.11 607.29 1042.18 607.448 1042.18 607.643Z" fill="#E1E1E1"/>
<path d="M1042.04 625.874C1042.04 626.069 1048.01 626.229 1055.38 626.229C1062.74 626.229 1068.72 626.069 1068.72 625.874C1068.72 625.679 1062.74 625.521 1055.38 625.521C1048.01 625.521 1042.04 625.679 1042.04 625.874Z" fill="#E1E1E1"/>
<path d="M960.807 732.437H1024.22V364.371H960.807V732.437Z" fill="#E1E1E1"/>
<path d="M978.076 441.148H1004.53V390.17H978.076V441.148Z" fill="white"/>
<path d="M990.558 441.147C990.754 441.147 990.911 429.734 990.911 415.661C990.911 401.581 990.754 390.17 990.558 390.17C990.363 390.17 990.204 401.581 990.204 415.661C990.204 429.734 990.363 441.147 990.558 441.147Z" fill="#E1E1E1"/>
<path d="M978.076 407.881C978.076 408.077 983.999 408.235 991.303 408.235C998.61 408.235 1004.53 408.077 1004.53 407.881C1004.53 407.686 998.61 407.527 991.303 407.527C983.999 407.527 978.076 407.686 978.076 407.881Z" fill="#E1E1E1"/>
<path d="M977.937 426.112C977.937 426.307 983.908 426.466 991.272 426.466C998.638 426.466 1004.61 426.307 1004.61 426.112C1004.61 425.916 998.638 425.758 991.272 425.758C983.908 425.758 977.937 425.916 977.937 426.112Z" fill="#E1E1E1"/>
<path d="M978.076 508.281H1004.53V457.304H978.076V508.281Z" fill="white"/>
<path d="M990.558 508.281C990.754 508.281 990.911 496.868 990.911 482.793C990.911 468.713 990.754 457.304 990.558 457.304C990.363 457.304 990.204 468.713 990.204 482.793C990.204 496.868 990.363 508.281 990.558 508.281Z" fill="#E1E1E1"/>
<path d="M978.076 475.015C978.076 475.209 983.999 475.368 991.303 475.368C998.61 475.368 1004.53 475.209 1004.53 475.015C1004.53 474.82 998.61 474.66 991.303 474.66C983.999 474.66 978.076 474.82 978.076 475.015Z" fill="#E1E1E1"/>
<path d="M977.937 493.246C977.937 493.44 983.908 493.599 991.272 493.599C998.638 493.599 1004.61 493.44 1004.61 493.246C1004.61 493.051 998.638 492.892 991.272 492.892C983.908 492.892 977.937 493.051 977.937 493.246Z" fill="#E1E1E1"/>
<path d="M978.076 575.414H1004.53V524.437H978.076V575.414Z" fill="white"/>
<path d="M990.558 575.415C990.754 575.415 990.911 564.002 990.911 549.927C990.911 535.848 990.754 524.438 990.558 524.438C990.363 524.438 990.204 535.848 990.204 549.927C990.204 564.002 990.363 575.415 990.558 575.415Z" fill="#E1E1E1"/>
<path d="M978.076 542.148C978.076 542.343 983.999 542.503 991.303 542.503C998.61 542.503 1004.53 542.343 1004.53 542.148C1004.53 541.954 998.61 541.795 991.303 541.795C983.999 541.795 978.076 541.954 978.076 542.148Z" fill="#E1E1E1"/>
<path d="M977.937 560.379C977.937 560.574 983.908 560.734 991.272 560.734C998.638 560.734 1004.61 560.574 1004.61 560.379C1004.61 560.185 998.638 560.026 991.272 560.026C983.908 560.026 977.937 560.185 977.937 560.379Z" fill="#E1E1E1"/>
<path d="M978.076 642.549H1004.53V591.572H978.076V642.549Z" fill="white"/>
<path d="M990.558 642.549C990.754 642.549 990.911 631.135 990.911 617.061C990.911 602.981 990.754 591.571 990.558 591.571C990.363 591.571 990.204 602.981 990.204 617.061C990.204 631.135 990.363 642.549 990.558 642.549Z" fill="#E1E1E1"/>
<path d="M978.076 609.282C978.076 609.477 983.999 609.636 991.303 609.636C998.61 609.636 1004.53 609.477 1004.53 609.282C1004.53 609.088 998.61 608.928 991.303 608.928C983.999 608.928 978.076 609.088 978.076 609.282Z" fill="#E1E1E1"/>
<path d="M977.937 627.513C977.937 627.708 983.908 627.867 991.272 627.867C998.638 627.867 1004.61 627.708 1004.61 627.513C1004.61 627.319 998.638 627.16 991.272 627.16C983.908 627.16 977.937 627.319 977.937 627.513Z" fill="#E1E1E1"/>
<path d="M1042.18 707.497H1068.64V656.52H1042.18V707.497Z" fill="white"/>
<path d="M1054.66 707.498C1054.86 707.498 1055.02 696.084 1055.02 682.01C1055.02 667.93 1054.86 656.52 1054.66 656.52C1054.47 656.52 1054.31 667.93 1054.31 682.01C1054.31 696.084 1054.47 707.498 1054.66 707.498Z" fill="#E1E1E1"/>
<path d="M1042.18 674.23C1042.18 674.426 1048.11 674.585 1055.41 674.585C1062.72 674.585 1068.64 674.426 1068.64 674.23C1068.64 674.036 1062.72 673.877 1055.41 673.877C1048.11 673.877 1042.18 674.036 1042.18 674.23Z" fill="#E1E1E1"/>
<path d="M1042.04 692.462C1042.04 692.657 1048.01 692.815 1055.38 692.815C1062.74 692.815 1068.72 692.657 1068.72 692.462C1068.72 692.267 1062.74 692.109 1055.38 692.109C1048.01 692.109 1042.04 692.267 1042.04 692.462Z" fill="#E1E1E1"/>
<path d="M978.076 709.683H1004.53V658.705H978.076V709.683Z" fill="white"/>
<path d="M990.558 709.683C990.754 709.683 990.911 698.269 990.911 684.195C990.911 670.116 990.754 658.705 990.558 658.705C990.363 658.705 990.204 670.116 990.204 684.195C990.204 698.269 990.363 709.683 990.558 709.683Z" fill="#E1E1E1"/>
<path d="M978.076 676.416C978.076 676.611 983.999 676.771 991.303 676.771C998.61 676.771 1004.53 676.611 1004.53 676.416C1004.53 676.221 998.61 676.063 991.303 676.063C983.999 676.063 978.076 676.221 978.076 676.416Z" fill="#E1E1E1"/>
<path d="M977.937 694.648C977.937 694.842 983.908 695.001 991.272 695.001C998.638 695.001 1004.61 694.842 1004.61 694.648C1004.61 694.453 998.638 694.293 991.272 694.293C983.908 694.293 977.937 694.453 977.937 694.648Z" fill="#E1E1E1"/>
<path d="M1094.18 732.255H1146.28V511.934H1094.18V732.255Z" fill="#ECECEC"/>
<path d="M1120.74 557.892H1136.57V527.377H1120.74V557.892Z" fill="white"/>
<path d="M1128.21 557.892C1128.33 557.892 1128.42 551.06 1128.42 542.636C1128.42 534.207 1128.33 527.377 1128.21 527.377C1128.09 527.377 1128 534.207 1128 542.636C1128 551.06 1128.09 557.892 1128.21 557.892Z" fill="#E1E1E1"/>
<path d="M1120.74 537.979C1120.74 538.096 1124.28 538.191 1128.65 538.191C1133.03 538.191 1136.57 538.096 1136.57 537.979C1136.57 537.863 1133.03 537.767 1128.65 537.767C1124.28 537.767 1120.74 537.863 1120.74 537.979Z" fill="#E1E1E1"/>
<path d="M1120.65 548.892C1120.65 549.008 1124.23 549.104 1128.63 549.104C1133.05 549.104 1136.62 549.008 1136.62 548.892C1136.62 548.775 1133.05 548.68 1128.63 548.68C1124.23 548.68 1120.65 548.775 1120.65 548.892Z" fill="#E1E1E1"/>
<path d="M1120.74 597.75H1136.57V567.236H1120.74V597.75Z" fill="white"/>
<path d="M1128.21 597.751C1128.33 597.751 1128.42 590.919 1128.42 582.495C1128.42 574.066 1128.33 567.236 1128.21 567.236C1128.09 567.236 1128 574.066 1128 582.495C1128 590.919 1128.09 597.751 1128.21 597.751Z" fill="#E1E1E1"/>
<path d="M1120.74 577.838C1120.74 577.955 1124.28 578.05 1128.65 578.05C1133.03 578.05 1136.57 577.955 1136.57 577.838C1136.57 577.72 1133.03 577.626 1128.65 577.626C1124.28 577.626 1120.74 577.72 1120.74 577.838Z" fill="#E1E1E1"/>
<path d="M1120.65 588.75C1120.65 588.868 1124.23 588.962 1128.63 588.962C1133.05 588.962 1136.62 588.868 1136.62 588.75C1136.62 588.634 1133.05 588.538 1128.63 588.538C1124.23 588.538 1120.65 588.634 1120.65 588.75Z" fill="#E1E1E1"/>
<path d="M1120.74 637.609H1136.57V607.095H1120.74V637.609Z" fill="white"/>
<path d="M1128.21 637.609C1128.33 637.609 1128.42 630.777 1128.42 622.352C1128.42 613.924 1128.33 607.095 1128.21 607.095C1128.09 607.095 1128 613.924 1128 622.352C1128 630.777 1128.09 637.609 1128.21 637.609Z" fill="#E1E1E1"/>
<path d="M1120.74 617.696C1120.74 617.812 1124.28 617.908 1128.65 617.908C1133.03 617.908 1136.57 617.812 1136.57 617.696C1136.57 617.579 1133.03 617.484 1128.65 617.484C1124.28 617.484 1120.74 617.579 1120.74 617.696Z" fill="#E1E1E1"/>
<path d="M1120.65 628.609C1120.65 628.727 1124.23 628.821 1128.63 628.821C1133.05 628.821 1136.62 628.727 1136.62 628.609C1136.62 628.493 1133.05 628.397 1128.63 628.397C1124.23 628.397 1120.65 628.493 1120.65 628.609Z" fill="#E1E1E1"/>
<path d="M1120.74 677.468H1136.57V646.953H1120.74V677.468Z" fill="white"/>
<path d="M1128.21 677.468C1128.33 677.468 1128.42 670.636 1128.42 662.211C1128.42 653.783 1128.33 646.954 1128.21 646.954C1128.09 646.954 1128 653.783 1128 662.211C1128 670.636 1128.09 677.468 1128.21 677.468Z" fill="#E1E1E1"/>
<path d="M1120.74 657.555C1120.74 657.671 1124.28 657.767 1128.65 657.767C1133.03 657.767 1136.57 657.671 1136.57 657.555C1136.57 657.438 1133.03 657.343 1128.65 657.343C1124.28 657.343 1120.74 657.438 1120.74 657.555Z" fill="#E1E1E1"/>
<path d="M1120.65 668.468C1120.65 668.584 1124.23 668.68 1128.63 668.68C1133.05 668.68 1136.62 668.584 1136.62 668.468C1136.62 668.35 1133.05 668.256 1128.63 668.256C1124.23 668.256 1120.65 668.35 1120.65 668.468Z" fill="#E1E1E1"/>
<path d="M1072.03 732.255H1109.99V511.934H1072.03V732.255Z" fill="#E1E1E1"/>
<path d="M1082.36 557.892H1098.2V527.377H1082.36V557.892Z" fill="white"/>
<path d="M1089.83 557.892C1089.95 557.892 1090.05 551.06 1090.05 542.636C1090.05 534.207 1089.95 527.377 1089.83 527.377C1089.72 527.377 1089.62 534.207 1089.62 542.636C1089.62 551.06 1089.72 557.892 1089.83 557.892Z" fill="#E1E1E1"/>
<path d="M1082.36 537.979C1082.36 538.096 1085.91 538.191 1090.28 538.191C1094.65 538.191 1098.2 538.096 1098.2 537.979C1098.2 537.863 1094.65 537.767 1090.28 537.767C1085.91 537.767 1082.36 537.863 1082.36 537.979Z" fill="#E1E1E1"/>
<path d="M1082.28 548.892C1082.28 549.008 1085.85 549.104 1090.26 549.104C1094.67 549.104 1098.25 549.008 1098.25 548.892C1098.25 548.775 1094.67 548.68 1090.26 548.68C1085.85 548.68 1082.28 548.775 1082.28 548.892Z" fill="#E1E1E1"/>
<path d="M1082.36 598.077H1098.2V567.563H1082.36V598.077Z" fill="white"/>
<path d="M1089.83 598.078C1089.95 598.078 1090.05 591.246 1090.05 582.822C1090.05 574.394 1089.95 567.563 1089.83 567.563C1089.72 567.563 1089.62 574.394 1089.62 582.822C1089.62 591.246 1089.72 598.078 1089.83 598.078Z" fill="#E1E1E1"/>
<path d="M1082.36 578.164C1082.36 578.282 1085.91 578.376 1090.28 578.376C1094.65 578.376 1098.2 578.282 1098.2 578.164C1098.2 578.048 1094.65 577.952 1090.28 577.952C1085.91 577.952 1082.36 578.048 1082.36 578.164Z" fill="#E1E1E1"/>
<path d="M1082.28 589.078C1082.28 589.194 1085.85 589.29 1090.26 589.29C1094.67 589.29 1098.25 589.194 1098.25 589.078C1098.25 588.961 1094.67 588.866 1090.26 588.866C1085.85 588.866 1082.28 588.961 1082.28 589.078Z" fill="#E1E1E1"/>
<path d="M1082.36 638.264H1098.2V607.749H1082.36V638.264Z" fill="white"/>
<path d="M1089.83 638.263C1089.95 638.263 1090.05 631.431 1090.05 623.007C1090.05 614.579 1089.95 607.749 1089.83 607.749C1089.72 607.749 1089.62 614.579 1089.62 623.007C1089.62 631.431 1089.72 638.263 1089.83 638.263Z" fill="#E1E1E1"/>
<path d="M1082.36 618.35C1082.36 618.467 1085.91 618.562 1090.28 618.562C1094.65 618.562 1098.2 618.467 1098.2 618.35C1098.2 618.234 1094.65 618.138 1090.28 618.138C1085.91 618.138 1082.36 618.234 1082.36 618.35Z" fill="#E1E1E1"/>
<path d="M1082.28 629.264C1082.28 629.38 1085.85 629.476 1090.26 629.476C1094.67 629.476 1098.25 629.38 1098.25 629.264C1098.25 629.146 1094.67 629.052 1090.26 629.052C1085.85 629.052 1082.28 629.146 1082.28 629.264Z" fill="#E1E1E1"/>
<path d="M1082.36 678.449H1098.2V647.934H1082.36V678.449Z" fill="white"/>
<path d="M1089.83 678.449C1089.95 678.449 1090.05 671.617 1090.05 663.193C1090.05 654.765 1089.95 647.934 1089.83 647.934C1089.72 647.934 1089.62 654.765 1089.62 663.193C1089.62 671.617 1089.72 678.449 1089.83 678.449Z" fill="#E1E1E1"/>
<path d="M1082.36 658.536C1082.36 658.653 1085.91 658.748 1090.28 658.748C1094.65 658.748 1098.2 658.653 1098.2 658.536C1098.2 658.42 1094.65 658.324 1090.28 658.324C1085.91 658.324 1082.36 658.42 1082.36 658.536Z" fill="#E1E1E1"/>
<path d="M1082.28 669.449C1082.28 669.565 1085.85 669.661 1090.26 669.661C1094.67 669.661 1098.25 669.565 1098.25 669.449C1098.25 669.332 1094.67 669.237 1090.26 669.237C1085.85 669.237 1082.28 669.332 1082.28 669.449Z" fill="#E1E1E1"/>
<path d="M1120.74 717.326H1136.57V686.812H1120.74V717.326Z" fill="white"/>
<path d="M1128.21 717.326C1128.33 717.326 1128.42 710.494 1128.42 702.07C1128.42 693.642 1128.33 686.812 1128.21 686.812C1128.09 686.812 1128 693.642 1128 702.07C1128 710.494 1128.09 717.326 1128.21 717.326Z" fill="#E1E1E1"/>
<path d="M1120.74 697.413C1120.74 697.53 1124.28 697.625 1128.65 697.625C1133.03 697.625 1136.57 697.53 1136.57 697.413C1136.57 697.297 1133.03 697.201 1128.65 697.201C1124.28 697.201 1120.74 697.297 1120.74 697.413Z" fill="#E1E1E1"/>
<path d="M1120.65 708.327C1120.65 708.443 1124.23 708.539 1128.63 708.539C1133.05 708.539 1136.62 708.443 1136.62 708.327C1136.62 708.209 1133.05 708.115 1128.63 708.115C1124.23 708.115 1120.65 708.209 1120.65 708.327Z" fill="#E1E1E1"/>
<path d="M1082.36 718.634H1098.2V688.12H1082.36V718.634Z" fill="white"/>
<path d="M1089.83 718.634C1089.95 718.634 1090.05 711.802 1090.05 703.378C1090.05 694.95 1089.95 688.12 1089.83 688.12C1089.72 688.12 1089.62 694.95 1089.62 703.378C1089.62 711.802 1089.72 718.634 1089.83 718.634Z" fill="#E1E1E1"/>
<path d="M1082.36 698.721C1082.36 698.838 1085.91 698.933 1090.28 698.933C1094.65 698.933 1098.2 698.838 1098.2 698.721C1098.2 698.605 1094.65 698.509 1090.28 698.509C1085.91 698.509 1082.36 698.605 1082.36 698.721Z" fill="#E1E1E1"/>
<path d="M1082.28 709.635C1082.28 709.751 1085.85 709.847 1090.26 709.847C1094.67 709.847 1098.25 709.751 1098.25 709.635C1098.25 709.519 1094.67 709.423 1090.26 709.423C1085.85 709.423 1082.28 709.519 1082.28 709.635Z" fill="#E1E1E1"/>
<path d="M702.87 104.331C703.69 98.3761 695.287 93.4787 688.973 92.9694C685.962 92.7267 682.834 93.1881 679.981 92.1921C673.801 90.0387 671.331 82.0534 665.301 79.5107C660.793 77.6081 655.602 79.3014 651.231 81.5014C646.859 83.7014 642.541 86.4694 637.657 86.7827C633.41 87.0534 628.797 85.4787 625.081 87.5534C622.311 89.1001 620.861 92.2907 618.309 94.1734C615.811 96.0161 612.554 96.4054 609.455 96.5734C606.358 96.7427 603.15 96.7747 600.329 98.0654C597.507 99.3574 595.173 102.34 595.759 105.387L702.87 104.331Z" fill="#ECECEC"/>
<path d="M943.599 25.6452C944.419 19.6905 936.017 14.7932 929.702 14.2838C926.69 14.0412 923.563 14.5025 920.71 13.5065C914.53 11.3532 912.061 3.36784 906.03 0.825172C901.522 -1.0775 896.331 0.615838 891.961 2.81584C887.589 5.01584 883.27 7.78384 878.386 8.09717C874.139 8.36784 869.526 6.79317 865.81 8.86784C863.041 10.4145 861.59 13.6052 859.038 15.4878C856.541 17.3305 853.283 17.7198 850.185 17.8878C847.087 18.0572 843.879 18.0892 841.058 19.3798C838.237 20.6718 835.902 23.6545 836.489 26.7012L943.599 25.6452Z" fill="#ECECEC"/>
<path d="M107.201 269.573C108.021 263.618 99.6187 258.721 93.304 258.212C90.2933 257.969 87.1653 258.43 84.312 257.436C78.132 255.281 75.6627 247.296 69.632 244.753C65.124 242.85 59.9333 244.545 55.5627 246.744C51.192 248.944 46.872 251.712 41.988 252.025C37.7413 252.296 33.128 250.721 29.412 252.796C26.6427 254.342 25.192 257.534 22.64 259.416C20.1427 261.258 16.8853 261.648 13.7867 261.817C10.6893 261.985 7.48133 262.017 4.66 263.308C1.83866 264.6 -0.494674 267.582 0.090659 270.629L107.201 269.573Z" fill="#ECECEC"/>
<path d="M454.608 38.7709C455.603 31.5482 445.411 25.6082 437.752 24.9922C434.1 24.6962 430.307 25.2549 426.847 24.0496C419.351 21.4376 416.356 11.7522 409.042 8.66692C403.574 6.36025 397.279 8.41358 391.978 11.0816C386.676 13.7509 381.438 17.1082 375.514 17.4869C370.363 17.8176 364.768 15.9069 360.26 18.4229C356.902 20.2989 355.143 24.1682 352.047 26.4522C349.018 28.6869 345.067 29.1589 341.31 29.3629C337.552 29.5669 333.662 29.6056 330.24 31.1722C326.818 32.7389 323.987 36.3576 324.698 40.0522L454.608 38.7709Z" fill="#E1E1E1"/>
<path d="M1143.5 303.216C1144.5 295.994 1134.3 290.054 1126.65 289.438C1122.99 289.142 1119.2 289.7 1115.74 288.495C1108.24 285.883 1105.25 276.198 1097.94 273.112C1092.47 270.807 1086.17 272.859 1080.87 275.527C1075.57 278.196 1070.33 281.554 1064.41 281.932C1059.26 282.263 1053.66 280.352 1049.15 282.868C1045.8 284.744 1044.04 288.614 1040.94 290.898C1037.91 293.131 1033.96 293.604 1030.2 293.808C1026.45 294.012 1022.56 294.051 1019.13 295.618C1015.71 297.184 1012.88 300.803 1013.59 304.498L1143.5 303.216Z" fill="#E1E1E1"/>
<path d="M1142.66 732.255C1142.66 732.255 1141.68 732.286 1139.76 732.301C1137.82 732.311 1134.97 732.326 1131.24 732.346C1123.73 732.366 1112.68 732.394 1098.46 732.43C1069.99 732.463 1028.81 732.513 977.935 732.573C876.151 732.607 735.567 732.653 580.293 732.705C424.965 732.653 284.366 732.607 182.582 732.573C131.703 732.513 90.53 732.463 62.0606 732.43C47.8406 732.394 36.7966 732.366 29.2939 732.346C25.5566 732.326 22.7046 732.311 20.7726 732.301C18.8526 732.286 17.8687 732.255 17.8687 732.255C17.8687 732.255 18.8526 732.225 20.7726 732.209C22.7046 732.199 25.5566 732.185 29.2939 732.165C36.7966 732.145 47.8406 732.117 62.0606 732.081C90.53 732.047 131.703 731.998 182.582 731.938C284.366 731.903 424.965 731.858 580.293 731.806C735.567 731.858 876.151 731.903 977.935 731.938C1028.81 731.998 1069.99 732.047 1098.46 732.081C1112.68 732.117 1123.73 732.145 1131.24 732.165C1134.97 732.185 1137.82 732.199 1139.76 732.209C1141.68 732.225 1142.66 732.255 1142.66 732.255Z" fill="#1E2E35"/>
<path d="M480.692 169.417H384.63V113.035H480.692V169.417Z" fill="#E1E1E1"/>
<path d="M435.18 167.536H339.118V111.153H435.18V167.536Z" fill="#ECECEC"/>
<path d="M622.202 187.783H205.287V165.066H622.202V187.783Z" fill="#E1E1E1"/>
<path d="M486.799 114.343H329.239V102.116H486.799V114.343Z" fill="#E1E1E1"/>
<path d="M520.525 732.255L227.354 731.886L226.855 187.783H520.525V732.255Z" fill="#ECECEC"/>
<path d="M291.296 282.914H257.551V222.23H291.296V282.914Z" fill="#3E5963"/>
<path d="M291.296 370.687H257.551V310.002H291.296V370.687Z" fill="#3E5963"/>
<path d="M291.296 458.46H257.551V397.776H291.296V458.46Z" fill="#3E5963"/>
<path d="M291.296 546.232H257.551V485.548H291.296V546.232Z" fill="#3E5963"/>
<path d="M291.296 627.834H257.551V567.15H291.296V627.834Z" fill="#3E5963"/>
<path d="M485.435 282.914H451.689V222.23H485.435V282.914Z" fill="#3E5963"/>
<path d="M389.631 167.973H358.959V128.35H389.631V167.973Z" fill="#3E5963"/>
<path d="M485.435 370.687H451.689V310.002H485.435V370.687Z" fill="#3E5963"/>
<path d="M485.435 458.46H451.689V397.776H485.435V458.46Z" fill="#3E5963"/>
<path d="M485.435 546.232H451.689V485.548H485.435V546.232Z" fill="#3E5963"/>
<path d="M485.435 627.834H451.689V567.15H485.435V627.834Z" fill="#3E5963"/>
<path d="M419.943 732.255H320.446V187.783H419.943V732.255Z" fill="#3E5963"/>
<path d="M419.943 356.389L320.446 439.293V469.584L419.943 385.32V356.389Z" fill="white"/>
<path d="M419.943 197.965L320.446 280.871V311.16L419.943 226.896V197.965Z" fill="white"/>
<path d="M419.943 423.253L320.446 506.159V567.149L419.943 483.211V423.253Z" fill="white"/>
<path d="M602.636 731.789H520.525V182.741H602.636V731.789Z" fill="#E1E1E1"/>
<path d="M604.014 731.789C603.766 731.789 603.295 621.062 602.963 484.504C602.631 347.897 602.563 237.192 602.811 237.192C603.059 237.19 603.53 347.896 603.862 484.501C604.194 621.06 604.262 731.789 604.014 731.789Z" fill="#1E2E35"/>
<path d="M581.867 282.914H548.122V222.23H581.867V282.914Z" fill="#1E2E35"/>
<path d="M581.867 370.687H548.122V310.002H581.867V370.687Z" fill="#1E2E35"/>
<path d="M581.867 458.46H548.122V397.776H581.867V458.46Z" fill="#1E2E35"/>
<path d="M581.867 546.232H548.122V485.548H581.867V546.232Z" fill="#1E2E35"/>
<path d="M581.867 627.834H548.122V567.15H581.867V627.834Z" fill="#1E2E35"/>
<path d="M581.867 713.3H548.122V652.616H581.867V713.3Z" fill="#1E2E35"/>
<path d="M426.565 640.544H312.259V629.125H426.565V640.544Z" fill="#ECECEC"/>
<path d="M419.943 293.238H320.446V286.602H419.943V293.238Z" fill="#1E2E35"/>
<path d="M419.943 389.238H320.446V382.602H419.943V389.238Z" fill="#1E2E35"/>
<path d="M419.161 564.476H319.664V557.84H419.161V564.476Z" fill="#1E2E35"/>
<path d="M423.716 480.808H324.219V474.172H423.716V480.808Z" fill="#1E2E35"/>
<path d="M400.2 498.7C400.362 498.89 385.511 511.866 367.035 527.682C348.552 543.503 333.443 556.171 333.282 555.982C333.12 555.794 347.967 542.819 366.45 526.999C384.927 511.183 400.039 498.512 400.2 498.7Z" fill="#1E2E35"/>
<path d="M401.053 557.644C401.214 557.833 386.364 570.809 367.888 586.625C349.405 602.446 334.296 615.114 334.134 614.925C333.973 614.737 348.82 601.762 367.304 585.942C385.78 570.126 400.892 557.456 401.053 557.644Z" fill="#1E2E35"/>
<path d="M399.842 411.701C400.002 411.89 389.106 421.414 375.506 432.973C361.901 444.534 350.746 453.75 350.585 453.561C350.425 453.372 361.319 443.849 374.923 432.288C388.523 420.73 399.682 411.512 399.842 411.701Z" fill="#1E2E35"/>
<path d="M372.624 422.519C372.792 422.702 368.568 426.847 363.192 431.777C357.815 436.707 353.32 440.555 353.152 440.373C352.986 440.19 357.207 436.046 362.586 431.114C367.962 426.186 372.456 422.337 372.624 422.519Z" fill="#1E2E35"/>
<path d="M338.062 351.569C337.914 351.37 352.873 339.953 371.47 326.069C390.074 312.181 405.272 301.087 405.42 301.287C405.568 301.485 390.612 312.902 372.008 326.789C353.41 340.673 338.21 351.767 338.062 351.569Z" fill="#1E2E35"/>
<path d="M358.677 342.925C358.612 342.816 359.945 341.884 362.122 340.42C364.569 338.769 367.442 336.833 370.617 334.693C373.768 332.515 376.618 330.544 379.046 328.865C381.204 327.371 382.557 326.469 382.634 326.569C382.708 326.665 381.489 327.747 379.424 329.376C377.358 331.005 374.44 333.171 371.124 335.435C367.809 337.697 364.729 339.628 362.46 340.957C360.192 342.288 358.74 343.029 358.677 342.925Z" fill="#1E2E35"/>
<path d="M403.103 207.921C403.122 207.945 402.893 208.169 402.438 208.57C401.899 209.032 401.233 209.604 400.419 210.3C398.545 211.857 396.003 213.969 392.906 216.541C386.461 221.874 377.73 229.1 368.082 237.082C358.471 245.117 349.777 252.386 343.358 257.753C340.265 260.328 337.725 262.442 335.851 264.002C335.019 264.673 334.337 265.226 333.785 265.672C333.306 266.045 333.045 266.23 333.025 266.206C333.005 266.184 333.226 265.952 333.667 265.534C334.189 265.054 334.835 264.461 335.623 263.737C337.45 262.122 339.927 259.934 342.946 257.269C349.163 251.848 357.829 244.444 367.507 236.392C377.185 228.344 386.043 221.173 392.506 216.048C395.678 213.566 398.281 211.529 400.201 210.026C401.055 209.384 401.758 208.856 402.325 208.429C402.817 208.073 403.083 207.896 403.103 207.921Z" fill="#1E2E35"/>
<path d="M373.538 220.366C373.691 220.56 370.553 223.274 366.53 226.423C362.506 229.575 359.121 231.97 358.967 231.775C358.815 231.579 361.951 228.867 365.977 225.716C369.999 222.566 373.385 220.171 373.538 220.366Z" fill="#1E2E35"/>
<path d="M281.395 335.13C281.565 335.312 278.439 338.498 274.415 342.249C270.39 346 266.991 348.892 266.822 348.71C266.653 348.529 269.778 345.342 273.803 341.592C277.826 337.842 281.226 334.949 281.395 335.13Z" fill="#1E2E35"/>
<path d="M477.649 421.945C477.832 422.113 474.66 425.85 470.565 430.292C466.468 434.734 463.001 438.198 462.819 438.03C462.636 437.862 465.808 434.125 469.904 429.682C473.999 425.241 477.467 421.777 477.649 421.945Z" fill="#1E2E35"/>
<path d="M284.201 505.184C284.379 505.357 280.892 509.204 276.416 513.773C271.938 518.345 268.166 521.909 267.988 521.736C267.811 521.561 271.296 517.716 275.775 513.145C280.251 508.574 284.024 505.01 284.201 505.184Z" fill="#1E2E35"/>
<path d="M471.671 582.288C471.85 582.46 468.831 585.882 464.931 589.93C461.028 593.979 457.722 597.122 457.543 596.95C457.364 596.776 460.382 593.355 464.284 589.307C468.184 585.259 471.492 582.116 471.671 582.288Z" fill="#1E2E35"/>
<path d="M471.09 592.219C471.27 592.39 469.273 594.775 466.629 597.546C463.985 600.317 461.697 602.423 461.518 602.251C461.338 602.081 463.336 599.695 465.98 596.925C468.622 594.155 470.91 592.049 471.09 592.219Z" fill="#1E2E35"/>
<path d="M485.435 715.843H451.689V655.159H485.435V715.843Z" fill="#3E5963"/>
<path d="M291.05 714.833H257.304V654.149H291.05V714.833Z" fill="#3E5963"/>
<path d="M330.167 731.922L419.967 658.405L419.945 639.83L406.162 640.219L320.523 715.598L320.713 731.89" fill="white"/>
<path d="M350.518 731.947L358.794 732.075L419.991 678.778L419.922 674.927L419.947 670.702L350.518 731.947Z" fill="white"/>
<path d="M369.413 732.074C369.165 732.074 368.963 713.06 368.963 689.61C368.963 666.154 369.165 647.144 369.413 647.144C369.661 647.144 369.862 666.154 369.862 689.61C369.862 713.06 369.661 732.074 369.413 732.074Z" fill="#1E2E35"/>
<path d="M364.499 705.093H358.523V684.49H364.499V705.093Z" fill="#ECECEC"/>
<path d="M379.665 705.093H373.689V684.49H379.665V705.093Z" fill="#ECECEC"/>
<path d="M622.733 187.784C622.733 188.032 529.277 188.233 414.02 188.233C298.723 188.233 205.287 188.032 205.287 187.784C205.287 187.536 298.723 187.335 414.02 187.335C529.277 187.335 622.733 187.536 622.733 187.784Z" fill="#1E2E35"/>
<path d="M622.733 165.505C622.733 165.753 529.277 165.954 414.02 165.954C298.723 165.954 205.287 165.753 205.287 165.505C205.287 165.257 298.723 165.055 414.02 165.055C529.277 165.055 622.733 165.257 622.733 165.505Z" fill="#1E2E35"/>
<path d="M487.996 114.342C487.996 114.591 452.572 114.791 408.884 114.791C365.182 114.791 329.766 114.591 329.766 114.342C329.766 114.094 365.182 113.892 408.884 113.892C452.572 113.892 487.996 114.094 487.996 114.342Z" fill="#1E2E35"/>
<path d="M227.354 731.887C227.106 731.887 226.66 610.693 226.359 461.227C226.056 311.709 226.014 190.54 226.262 190.54C226.51 190.539 226.955 311.707 227.258 461.225C227.559 610.692 227.602 731.887 227.354 731.887Z" fill="#1E2E35"/>
<path d="M242.1 76.5218L173.845 53.6271L106.254 76.2138C97.6251 80.0205 90.0571 82.2991 90.0571 89.8085V127.192C90.0571 153.155 97.3398 178.882 112.322 201.595C124.93 220.708 144.453 240.388 174.509 252.896C202.137 244.514 222.76 222.167 235.368 203.054C250.352 180.34 257.633 154.614 257.633 128.651V95.0325C257.633 84.3258 251.56 79.0965 242.1 76.5218Z" fill="#3F8E68"/>
<path d="M173.845 66.2452L115.803 85.6412C115.035 85.9839 114.206 86.3386 113.395 86.6852C107.261 89.3052 102.417 91.3746 102.417 96.5519V128.807C102.417 151.581 109.01 173.615 121.485 192.524C134.565 212.353 152.386 227.096 174.463 236.345C200.302 228.379 217.962 206.279 226.205 193.783C238.679 174.873 245.273 152.84 245.273 130.065V101.06C245.273 93.1026 241.217 88.2919 232.507 85.9212L232.459 85.9079L173.845 66.2452ZM174.371 238.177L174.086 238.057C151.557 228.681 133.374 213.68 120.045 193.475C107.383 174.281 100.691 151.92 100.691 128.807V96.5519C100.691 90.2346 106.265 87.8546 112.717 85.0972C113.522 84.7532 114.346 84.4026 115.182 84.0332L173.846 64.4252L232.985 84.2639C242.414 86.8372 246.998 92.3319 246.998 101.06V130.065C246.998 153.179 240.307 175.541 227.646 194.733C219.243 207.471 201.187 230.04 174.667 238.087L174.371 238.177Z" fill="white"/>
<path d="M251.033 67.1029C251.033 67.1029 252.654 67.4189 255.598 68.5669C257.07 69.1323 258.85 69.9896 260.766 71.3096C262.65 72.6429 264.719 74.4936 266.198 77.1736C267.709 79.8229 268.634 83.1843 268.742 86.8989C268.835 90.6029 268.787 94.6136 268.815 98.9469C268.818 107.612 268.902 117.515 268.833 128.546C268.734 139.584 267.289 151.746 264.085 164.499C260.818 177.228 255.606 190.514 248.027 203.454C240.411 216.346 230.739 229.086 218.667 240.451C206.627 251.748 191.91 261.7 174.722 266.976L174.571 267.023L174.429 266.963C168.471 264.42 162.522 261.579 156.697 258.302C150.899 254.978 145.211 251.27 139.733 247.142C128.753 238.911 118.737 228.874 110.102 217.536C100.798 205.302 93.4192 191.91 88.2605 178.026C83.0859 164.147 80.0765 149.82 79.0752 135.759C78.5365 128.722 78.6899 121.767 78.6672 114.95C78.6712 108.124 78.6739 101.406 78.6779 94.8003C78.6805 91.4989 78.6819 88.2256 78.6845 84.9829C78.7045 83.3696 78.6019 81.7496 78.8845 80.0816C79.1592 78.4363 79.8779 76.8563 80.9352 75.5883C83.0539 73.0216 85.9605 71.4829 88.7619 70.1176C91.6005 68.7803 94.4645 67.6283 97.2525 66.4003L97.2685 66.3923L97.2859 66.3869C126.298 56.7296 152.114 48.1349 173.753 40.9323L173.846 40.9016L173.939 40.9323C198.145 49.1123 217.418 55.6256 230.665 60.1029C237.259 62.3496 242.349 64.0843 245.813 65.2656C247.518 65.8549 248.819 66.3069 249.717 66.6176C250.593 66.9256 251.033 67.1029 251.033 67.1029C251.033 67.1029 250.575 66.9789 249.693 66.6976C248.789 66.4043 247.481 65.9789 245.765 65.4229C242.29 64.2749 237.185 62.5909 230.57 60.4069C217.302 55.9896 197.997 49.5616 173.753 41.4896H173.939C152.317 48.743 126.521 57.3963 97.5312 67.1203L97.5645 67.1069C94.7659 68.3469 91.9032 69.5029 89.1005 70.8283C86.3352 72.1763 83.5192 73.7003 81.5605 76.0896C80.5792 77.2696 79.9325 78.7056 79.6805 80.2256C79.4219 81.7269 79.5139 83.3603 79.4979 84.9829C79.5005 88.2256 79.5019 91.4989 79.5045 94.8003C79.5085 101.406 79.5112 108.124 79.5152 114.95C79.5445 121.78 79.3979 128.707 79.9392 135.696C80.9445 149.679 83.9459 163.919 89.0952 177.715C94.2285 191.516 101.565 204.826 110.818 216.992C119.403 228.266 129.358 238.244 140.27 246.431C145.715 250.538 151.369 254.226 157.131 257.535C162.923 260.796 168.839 263.626 174.763 266.159L174.47 266.144C191.497 260.93 206.119 251.074 218.106 239.852C230.122 228.568 239.779 215.888 247.381 203.074C254.943 190.211 260.159 177 263.443 164.334C266.666 151.644 268.142 139.536 268.278 128.536C268.317 117.519 268.353 107.612 268.383 98.9469C268.375 94.6203 268.446 90.5883 268.375 86.9123C268.29 83.2416 267.402 79.9349 265.938 77.3216C264.506 74.6763 262.485 72.8349 260.634 71.4936C258.753 70.1696 256.995 69.2963 255.541 68.7083C254.09 68.1029 252.954 67.7203 252.186 67.4856C251.418 67.2443 251.033 67.1029 251.033 67.1029Z" fill="#3F8E68"/>
<path d="M171.607 182.151L133.063 149.91L144.315 136.461L170.161 158.081L209.738 115.95L222.518 127.955L171.607 182.151Z" fill="white"/>
<path d="M954.52 186.898L966.642 166.261C962.267 153.375 961.284 139.161 964.54 124.922C973.903 83.974 1014.69 58.37 1055.64 67.7327C1096.58 77.0953 1122.19 117.879 1112.82 158.827C1103.46 199.774 1062.68 225.379 1021.73 216.017C1004.63 212.107 990.224 202.706 979.906 190.115L979.924 190.154L954.52 186.898Z" fill="white"/>
<path d="M954.52 186.898C954.52 186.898 955.104 186.954 956.207 187.083C957.331 187.217 958.956 187.411 961.092 187.666C965.39 188.189 971.714 188.958 979.948 189.961L979.746 190.235L979.728 190.197L979.096 188.834L980.058 189.991C986.331 197.555 996.114 206.397 1010.19 212.065C1013.68 213.481 1017.42 214.689 1021.38 215.597C1025.37 216.315 1029.49 217.211 1033.82 217.349C1042.44 217.903 1051.72 217.006 1060.93 214.147C1070.12 211.307 1079.23 206.513 1087.26 199.759C1095.28 193.026 1102.22 184.323 1107.03 174.181C1111.9 164.07 1114.4 152.466 1114.21 140.655C1113.98 128.867 1111.14 116.735 1105.14 105.971C1104.37 104.614 1103.61 103.258 1102.85 101.906C1102 100.606 1101.09 99.3552 1100.21 98.0805C1098.56 95.4619 1096.4 93.2445 1094.46 90.8805C1093.49 89.6939 1092.31 88.7192 1091.24 87.6312C1090.12 86.6005 1089.12 85.4472 1087.92 84.5259C1086.74 83.5805 1085.56 82.6392 1084.38 81.6992C1083.78 81.2419 1083.22 80.7312 1082.6 80.3205L1080.71 79.0965C1070.75 72.4419 1059.48 68.3565 1048.23 66.8659C1036.96 65.3965 1025.76 66.6565 1015.68 69.8832C1005.59 73.1139 996.604 78.3365 989.254 84.6739C981.882 91.0112 976.15 98.4499 972.024 106.102C971.524 107.067 971.027 108.027 970.534 108.978L969.798 110.399L969.206 111.871C968.431 113.834 967.67 115.762 966.923 117.658C965.838 121.585 964.596 125.331 964.022 129.078C961.412 144.057 963.73 157.001 966.822 166.199L966.85 166.283L966.806 166.357C962.842 173.005 959.794 178.117 957.719 181.594C956.686 183.318 955.896 184.633 955.351 185.543C954.815 186.433 954.52 186.898 954.52 186.898C954.52 186.898 954.755 186.462 955.259 185.582C955.782 184.673 956.536 183.361 957.527 181.638C959.57 178.106 962.572 172.915 966.479 166.165L966.462 166.321C963.283 157.103 960.874 144.085 963.439 128.978C964.004 125.201 965.239 121.419 966.319 117.455C967.067 115.541 967.828 113.593 968.602 111.613L969.194 110.125L969.932 108.689C970.427 107.727 970.924 106.758 971.427 105.781C975.564 98.0472 981.331 90.5205 988.762 84.1032C996.17 77.6859 1005.23 72.3899 1015.44 69.1072C1025.62 65.8272 1036.94 64.5379 1048.34 66.0112C1059.72 67.5072 1071.13 71.6299 1081.21 78.3579L1083.11 79.5965C1083.75 80.0112 1084.31 80.5285 1084.92 80.9899C1086.11 81.9405 1087.3 82.8925 1088.5 83.8485C1089.72 84.7805 1090.74 85.9472 1091.87 86.9899C1092.94 88.0899 1094.14 89.0765 1095.12 90.2779C1097.09 92.6672 1099.27 94.9125 1100.94 97.5605C1101.83 98.8485 1102.76 100.115 1103.61 101.431C1104.38 102.799 1105.15 104.17 1105.93 105.545C1112 116.437 1114.88 128.713 1115.1 140.642C1115.29 152.594 1112.74 164.326 1107.81 174.547C1102.93 184.802 1095.91 193.594 1087.78 200.386C1079.66 207.198 1070.45 212.025 1061.15 214.871C1051.85 217.737 1042.47 218.618 1033.78 218.031C1029.4 217.878 1025.25 216.962 1021.23 216.222C1017.25 215.291 1013.48 214.061 1009.96 212.618C995.802 206.847 986.002 197.89 979.755 190.239L980.084 190.034L980.102 190.073L980.248 190.395L979.899 190.349C971.618 189.233 965.258 188.377 960.936 187.795C958.83 187.506 957.226 187.286 956.116 187.134C955.042 186.985 954.52 186.898 954.52 186.898Z" fill="#1E2E35"/>
<path d="M1061.26 173.679H1005.99V118.409H1061.26V173.679Z" fill="#E1E1E1"/>
<path d="M1061.26 173.679C1061.25 173.671 1061.24 173.578 1061.24 173.4C1061.23 173.187 1061.22 172.934 1061.21 172.622C1061.2 171.888 1061.19 170.894 1061.17 169.624C1061.14 166.963 1061.11 163.162 1061.07 158.351C1061.02 148.651 1060.95 134.894 1060.87 118.41L1061.26 118.798C1045.18 118.815 1026.22 118.836 1005.99 118.858C1005.89 118.954 1006.84 118.012 1006.44 118.419V118.434V118.463V118.522V118.64V118.878V119.351V120.298L1006.44 122.183C1006.44 123.438 1006.44 124.688 1006.44 125.931C1006.43 128.419 1006.43 130.883 1006.43 133.32C1006.43 138.196 1006.42 142.967 1006.42 147.607C1006.4 156.884 1006.39 165.642 1006.38 173.679L1005.99 173.29C1022.47 173.372 1036.23 173.44 1045.93 173.488C1050.74 173.531 1054.54 173.566 1057.2 173.59C1058.47 173.608 1059.47 173.623 1060.2 173.635C1060.51 173.644 1060.76 173.651 1060.98 173.656C1061.16 173.664 1061.25 173.671 1061.26 173.679C1061.27 173.694 1060.94 173.707 1060.28 173.723C1059.57 173.734 1058.6 173.748 1057.36 173.767C1054.72 173.791 1050.95 173.826 1046.18 173.87C1036.42 173.918 1022.58 173.986 1005.99 174.068H1005.6L1005.6 173.679C1005.58 165.642 1005.57 156.884 1005.55 147.607C1005.55 142.967 1005.55 138.196 1005.54 133.32C1005.54 130.883 1005.54 128.419 1005.54 125.931C1005.54 124.688 1005.54 123.438 1005.54 122.183V120.298V119.351V118.878V118.64V118.522V118.463V118.434V118.419C1005.14 118.815 1006.08 117.86 1005.99 117.959C1026.22 117.982 1045.18 118.003 1061.26 118.02H1061.65L1061.64 118.41C1061.56 134.996 1061.5 148.839 1061.45 158.599C1061.4 163.372 1061.37 167.144 1061.35 169.786C1061.33 171.022 1061.31 171.992 1061.3 172.707C1061.29 173.362 1061.27 173.694 1061.26 173.679Z" fill="#1E2E35"/>
<path d="M1042.43 166.248L1009.2 138.458L1018.9 126.866L1041.18 145.5L1075.29 109.188L1086.31 119.534L1042.43 166.248Z" fill="#3E5963"/>
<path d="M802.073 377.458L761.216 350.141C747.61 346.937 732.34 356.682 729.513 370.37C715.997 367.542 701.669 377 697.014 390.001C692.36 403.001 696.444 418.141 705.412 428.642C714.38 439.142 727.589 445.368 741.133 448.056C760.62 451.924 783.404 447.664 795.074 431.588C806.032 416.493 804.293 395.978 802.073 377.458Z" fill="#1E2E35"/>
<path d="M977.287 346.447C977.167 332.651 968.5 319.286 955.955 313.547C960.62 297.23 965.776 280.088 962.163 263.506C953.999 226.04 920.233 220.891 903.264 221.142L847.452 256.755C832.523 273.696 851.277 366.614 858.005 388.168C864.735 409.723 883.261 427.18 905.177 432.619C920.776 436.491 938.612 434.024 950.517 423.227C962.424 412.43 966.209 392.547 956.532 379.714C968.976 373.756 977.408 360.243 977.287 346.447Z" fill="#1E2E35"/>
<path d="M690.723 502.298L695.889 731.07L1000.82 732.271C1000.82 732.271 978.2 411.137 971.613 407.999C966.696 405.658 906.457 385.897 906.457 385.897L879.661 378.101L768.916 399.343L728.753 408.139L690.723 502.298Z" fill="#3E5963"/>
<path d="M708.395 464.083C708.395 463.486 737.526 406.219 737.526 406.219C708.986 409.22 683.498 419.298 666.931 441.026C659.229 451.13 655.766 466.455 651.93 477.374C649.33 484.774 632.254 584.344 632.254 584.344L699.906 612.062L708.395 464.083Z" fill="#3E5963"/>
<path d="M815.872 547.846L752.055 400.627C728.801 405.846 702.663 411.706 686.001 422.435L694.807 530.655L693.524 732.264L815.677 732.904L823.204 589.428L815.872 547.846Z" fill="#3F8E68"/>
<path d="M978.571 585.372L965.416 403.529L891.339 379.801L815.678 546.613V732.904L1002.65 732.28L978.571 585.372Z" fill="#3F8E68"/>
<path d="M978.571 585.373C978.571 585.373 978.746 586.246 979.043 587.957C979.336 589.682 979.768 592.225 980.334 595.553C981.451 602.246 983.095 612.093 985.211 624.767C989.407 650.157 995.475 686.869 1002.97 732.227L1003.03 732.602L1002.65 732.603C950.528 732.807 886.719 733.055 815.679 733.333L815.25 733.334V732.905C815.243 687.277 815.236 637.615 815.228 586.067C815.23 572.763 815.23 559.585 815.23 546.613V546.515L815.27 546.429C842.524 486.383 868.174 429.873 890.976 379.637L891.123 379.313L891.462 379.422C918.002 387.941 942.74 395.882 965.523 403.195L965.75 403.267L965.767 403.503C969.731 459.205 972.967 504.662 975.212 536.21C976.312 551.971 977.168 564.255 977.751 572.615C978.031 576.779 978.244 579.962 978.388 582.122C978.527 584.267 978.571 585.373 978.571 585.373C978.571 585.373 978.456 584.277 978.284 582.134C978.116 579.978 977.87 576.798 977.547 572.639C976.92 564.283 976 552.006 974.819 536.253C972.502 504.706 969.16 459.251 965.067 403.554L965.31 403.863C942.518 396.578 917.77 388.667 891.219 380.179L891.703 379.966C868.927 430.215 843.308 486.738 816.086 546.798L816.126 546.613C816.126 559.585 816.127 572.763 816.127 586.067C816.12 637.615 816.112 687.277 816.106 732.905L815.676 732.477C886.716 732.279 950.526 732.101 1002.65 731.957L1002.33 732.333C994.956 686.949 988.984 650.217 984.855 624.814C982.814 612.127 981.228 602.274 980.15 595.574C979.623 592.242 979.222 589.697 978.948 587.967C978.683 586.254 978.571 585.373 978.571 585.373Z" fill="#1E2E35"/>
<path d="M958.426 614.908H695.89V580.583H958.426V614.908Z" fill="white"/>
<path d="M966.694 406.123C966.694 406.123 983.771 405.928 1008.49 450.354C1036.25 500.23 1053.99 563.542 1053.99 563.542L985.643 600.846L966.694 406.123Z" fill="#3E5963"/>
<path d="M710.981 411.228L718.411 732.28L747.652 732.438L737.525 403.689C737.525 403.689 715.575 408.835 710.981 411.228Z" fill="white"/>
<path d="M918.11 388.376L909.166 732.437H947.385L949.167 398.737L918.11 388.376Z" fill="white"/>
<path d="M839.715 480.248C841.032 493.769 849.119 506.461 860.816 513.369C866.388 516.661 872.743 518.738 877.624 522.986C882.328 527.081 885.228 532.813 888.012 538.394C908.715 579.894 929.464 621.5 945.444 665.038C949.019 674.777 952.408 684.72 958.128 693.374C963.848 702.029 972.314 709.412 982.5 711.378C992.686 713.345 1004.47 708.653 1008.52 699.105L879.583 458.501L839.715 480.248Z" fill="black"/>
<path d="M815.678 546.613C815.678 546.613 815.715 547.757 815.734 549.989C815.746 552.241 815.765 555.552 815.789 559.872C815.813 568.561 815.847 581.292 815.891 597.536C815.93 630.05 815.985 676.617 816.05 732.905V733.278L815.675 733.277C778.717 733.078 737.499 732.857 693.321 732.621L692.889 732.618L692.891 732.186C693.115 695.965 693.359 656.901 693.61 616.522C693.803 586.626 693.991 557.453 694.173 529.42L694.174 529.457C691.134 491.509 688.257 455.581 685.603 422.469L685.583 422.224L685.789 422.098C696.621 415.462 708.245 411.385 719.445 407.985C730.689 404.633 741.671 402.092 752.191 399.73L752.474 399.668L752.589 399.933C771.962 444.866 787.767 481.526 798.737 506.972C804.191 519.677 808.441 529.58 811.335 536.324C812.763 539.678 813.855 542.244 814.598 543.989C815.329 545.72 815.678 546.613 815.678 546.613C815.678 546.613 815.261 545.733 814.497 544.01C813.731 542.272 812.606 539.713 811.135 536.368C808.199 529.637 803.887 519.753 798.355 507.072C787.323 481.669 771.429 445.07 751.946 400.212L752.345 400.414C741.834 402.792 730.869 405.348 719.661 408.706C708.499 412.11 696.927 416.194 686.214 422.774L686.399 422.404C689.077 455.516 691.982 491.441 695.051 529.388L695.053 529.406V529.425C694.878 557.46 694.695 586.632 694.509 616.528C694.245 656.908 693.991 695.972 693.755 732.192L693.326 731.757C737.505 732.037 778.722 732.298 815.681 732.533L815.306 732.905C815.373 676.617 815.426 630.05 815.465 597.536C815.509 581.304 815.543 568.585 815.567 559.902C815.591 555.578 815.61 552.264 815.622 550.01C815.641 547.773 815.678 546.613 815.678 546.613Z" fill="#1E2E35"/>
<path d="M711.158 214.308C707.129 207.935 706.74 199.424 710.17 192.711C713.601 185.998 720.728 181.326 728.253 180.859L762.752 185.91C759.404 205.339 756.057 224.77 752.709 244.199C751.749 249.778 750.622 255.7 746.742 259.822C743.068 263.724 737.457 265.308 732.097 265.27C720.41 265.186 709.124 257.562 704.682 246.751C700.241 235.942 702.906 222.584 711.158 214.308Z" fill="#1E2E35"/>
<path d="M815.678 438.342C844.497 438.28 875.658 407.919 876.221 379.104L879.299 221.204C881.691 174.651 856.593 134.454 809.989 133.352L805.677 133.502C762.275 135.008 727.293 169.576 725.306 212.958C723.457 253.32 725.042 289.767 726.058 311.351C728.162 356.035 769.91 363.172 769.91 363.172C770.01 363.174 766.315 402.502 772.457 414.103C786.213 440.084 797.163 437.855 815.678 438.342Z" fill="#FFC3A3"/>
<path d="M769.564 363.227C769.564 363.227 797.798 363.903 827.17 343.999C827.17 343.999 813.834 377.845 769.089 375.368L769.564 363.227Z" fill="#F69F75"/>
<path d="M745.805 248.787C745.802 252.163 748.659 254.949 752.183 255.015C755.702 255.081 758.563 252.406 758.563 249.031C758.567 245.655 755.711 242.867 752.193 242.799C748.667 242.731 745.807 245.413 745.805 248.787Z" fill="#1E2E35"/>
<path d="M736.373 230.275C737.193 231.079 741.905 227.331 748.775 227.111C755.634 226.794 760.799 230.153 761.515 229.286C761.867 228.901 761.009 227.425 758.759 225.903C756.543 224.387 752.803 222.967 748.525 223.134C744.246 223.307 740.702 225.006 738.689 226.69C736.634 228.385 735.969 229.914 736.373 230.275Z" fill="#1E2E35"/>
<path d="M808.34 248.789C808.337 252.164 811.193 254.949 814.719 255.014C818.236 255.084 821.097 252.408 821.1 249.03C821.101 245.656 818.245 242.868 814.727 242.8C811.201 242.733 808.343 245.414 808.34 248.789Z" fill="#1E2E35"/>
<path d="M803.758 230.719C804.58 231.523 809.298 227.778 816.164 227.556C823.021 227.239 828.186 230.599 828.904 229.73C829.254 229.346 828.405 227.871 826.145 226.35C823.929 224.832 820.19 223.412 815.913 223.579C811.634 223.751 808.089 225.452 806.076 227.135C804.025 228.83 803.358 230.36 803.758 230.719Z" fill="#1E2E35"/>
<path d="M780.948 284.36C780.967 283.968 776.671 283.379 769.721 282.733C767.96 282.615 766.288 282.324 765.951 281.136C765.493 279.884 766.163 277.967 766.941 275.896C768.444 271.593 770.015 267.084 771.665 262.359C778.209 243.089 782.881 227.273 782.104 227.015C781.324 226.759 775.389 242.167 768.845 261.435C767.275 266.187 765.771 270.713 764.343 275.045C763.748 277.061 762.685 279.363 763.672 281.961C764.189 283.255 765.511 284.164 766.644 284.425C767.781 284.729 768.769 284.716 769.639 284.737C776.615 284.869 780.935 284.751 780.948 284.36Z" fill="#1E2E35"/>
<path d="M787.254 309.417C788.83 311.035 790.995 311.791 793.227 311.843C795.631 311.899 797.767 310.705 799.475 309.137C802.452 306.401 803.015 301.981 802.452 298.202C802.35 297.518 802.092 296.926 801.76 296.391C801.73 296.045 801.668 295.702 801.539 295.378C800.74 293.378 799.15 291.65 797.095 290.867C794.946 290.049 792.822 289.975 790.598 290.562C786.963 291.519 784.45 295.163 783.916 298.697C783.324 302.621 784.464 306.553 787.254 309.417Z" fill="#F69F75"/>
<path d="M803.583 290.483C802.51 290.163 800.78 297.421 793.347 301.107C785.923 304.813 778.375 302.169 778.076 303.17C777.87 303.602 779.47 304.987 782.715 305.849C785.894 306.715 790.818 306.79 795.364 304.537C799.902 302.271 802.528 298.439 803.48 295.519C804.475 292.549 804.09 290.558 803.583 290.483Z" fill="#1E2E35"/>
<path d="M801.991 206.994C802.734 208.838 809.562 207.715 817.654 208.407C825.762 208.935 832.343 211.07 833.354 209.358C833.803 208.539 832.608 206.822 829.918 205.104C827.252 203.39 823.036 201.818 818.179 201.447C813.323 201.086 808.918 202.008 806.026 203.304C803.107 204.598 801.668 206.118 801.991 206.994Z" fill="#1E2E35"/>
<path d="M738.195 204.896C739.457 206.414 744.135 204.63 749.821 204.356C755.499 203.884 760.367 205.04 761.419 203.369C761.877 202.561 761.065 201.024 758.908 199.62C756.784 198.221 753.271 197.138 749.365 197.392C745.459 197.652 742.12 199.184 740.195 200.85C738.24 202.524 737.636 204.153 738.195 204.896Z" fill="#1E2E35"/>
<path d="M877.666 253.527C878.417 253.169 908.066 243.376 908.152 273.971C908.234 304.567 877.501 298.34 877.445 297.463C877.39 296.585 877.666 253.527 877.666 253.527Z" fill="#FFC3A3"/>
<path d="M886.76 285.846C886.893 285.747 887.295 286.218 888.196 286.627C889.075 287.027 890.587 287.3 892.18 286.699C895.408 285.504 898.116 280.364 898.251 274.848C898.32 272.066 897.728 269.415 896.737 267.223C895.796 264.987 894.344 263.427 892.716 263.142C891.096 262.772 889.947 263.75 889.575 264.612C889.167 265.468 889.363 266.079 889.2 266.132C889.116 266.21 888.543 265.622 888.785 264.356C888.912 263.748 889.267 263.026 889.984 262.436C890.717 261.838 891.796 261.53 892.929 261.65C895.289 261.806 897.42 263.971 898.511 266.378C899.732 268.795 900.46 271.774 900.381 274.9C900.203 281.066 897.063 286.844 892.644 288.134C890.492 288.703 888.695 288.058 887.767 287.339C886.817 286.584 886.653 285.902 886.76 285.846Z" fill="#F69F75"/>
<path d="M839.559 180.7C843.173 177.109 848.448 175.797 853.507 175.183C866.681 173.583 880.296 175.784 892.296 181.455C898.599 184.433 904.673 188.575 908.075 194.66C911.476 200.745 911.525 209.089 906.729 214.149C915.512 219.503 919.341 231.705 915.191 241.116C911.041 250.527 899.449 255.929 889.573 253.056C888.5 263.195 877.123 269.061 868.517 263.592C866.413 262.256 864.528 260.575 863.012 258.633C857.151 251.124 856.563 236.88 858.181 227.495C852.055 227.559 846.272 224.023 842.503 219.191C838.735 214.359 836.752 208.361 835.571 202.348C834.095 194.84 834.132 186.092 839.559 180.7Z" fill="#1E2E35"/>
<path d="M850.683 99.684C852.768 100.117 902.95 115.013 913.168 153.809C923.387 192.605 918.875 204.011 918.875 204.011C918.875 204.011 921.711 206.003 923.89 208.937C925.843 211.569 921.952 223.321 915.392 221.529C867.095 196.196 808.344 190.06 742.59 187.732L692.387 183.765C678.21 184.464 673.519 180.401 679.688 177.265C684.418 174.861 725.407 161.488 725.407 161.488L733.632 156.291L756.296 128.901C756.296 128.901 754 124.728 759.295 121.731C764.59 118.735 809.508 91.136 850.683 99.684Z" fill="#3F8E68"/>
<path d="M895.721 125.149C895.721 125.149 841.405 112.624 816.039 122.812C817.021 122.396 818.004 121.98 818.987 121.565C811.016 124.456 803.048 127.347 795.079 130.237C791.041 131.703 786.328 133.112 782.668 130.867C782.668 130.867 795.813 120.544 819.299 114.303C842.783 108.061 879.479 107.14 895.721 125.149Z" fill="black"/>
<path d="M896.501 125.491C896.501 125.491 894.962 124.045 891.795 121.941C888.641 119.841 883.862 117.023 877.471 114.665C871.115 112.257 863.154 110.327 854.167 109.733C845.233 109.131 835.093 109.713 825.309 113.416C820.414 115.196 815.883 117.487 811.537 119.7C807.229 121.992 802.975 123.979 799.09 126.285C795.237 128.587 791.683 130.937 787.986 132.332C784.323 133.899 780.607 133.924 777.235 133.767C763.73 133.057 755.63 129.716 756.297 128.901C756.295 128.868 756.418 129.491 757.303 130.037C758.165 130.555 759.526 131.184 761.354 131.708C764.999 132.787 770.41 133.925 777.205 134.364C780.555 134.571 784.485 134.564 788.238 132.988C792.034 131.585 795.65 129.223 799.487 126.956C803.319 124.704 807.611 122.715 811.914 120.439C816.258 118.239 820.766 115.968 825.599 114.211C835.25 110.557 845.24 109.959 854.118 110.512C863.027 111.057 870.931 112.909 877.264 115.227C883.631 117.495 888.42 120.213 891.616 122.217C893.215 123.227 894.427 124.057 895.228 124.651C896.044 125.223 896.501 125.491 896.501 125.491Z" fill="#1E2E35"/>
<path d="M916.895 169.972C907.058 169.252 899.76 166.203 890.13 163.42C879.868 160.454 869.672 157.967 859.564 154.514C851.894 151.892 842.78 149.398 838.062 143.416C837.052 147.447 838.03 151.227 840.832 154.296C843.635 157.364 853.108 161.426 857.038 162.78C879.431 170.504 894.952 175.723 918.51 178.935C918.466 176.482 916.895 169.972 916.895 169.972Z" fill="black"/>
<path d="M911.856 149.556C917.912 152.673 921.616 154.751 921.445 160.073C921.304 164.503 920.048 169.852 915.641 170.336C914.299 170.485 912.956 170.127 911.651 169.773C889.305 163.711 866.959 157.647 844.612 151.584C842.345 150.969 839.887 150.223 838.561 148.284C836.521 145.303 838.417 140.925 841.533 139.097C844.649 137.271 848.48 137.304 852.088 137.477C872.599 138.456 892.34 143.169 911.856 149.556Z" fill="#3F8E68"/>
<path d="M839.54 149.349C839.65 149.281 838.403 148.523 837.91 146.265C837.432 144.148 837.967 140.315 841.267 137.877C844.638 135.613 849.786 135.121 855.132 135.759C860.564 136.392 866.538 137.169 872.764 138.197C885.235 140.208 896.323 143.108 904.099 145.924C908.004 147.285 911.088 148.592 913.218 149.499C914.088 149.883 914.892 150.236 915.658 150.573C916.22 150.811 916.522 150.923 916.535 150.896C916.548 150.871 916.271 150.708 915.732 150.42C914.987 150.037 914.204 149.635 913.355 149.2C911.262 148.197 908.202 146.801 904.304 145.361C896.544 142.389 885.412 139.38 872.902 137.363C866.652 136.331 860.671 135.576 855.215 134.983C849.77 134.388 844.482 134.908 840.914 137.393C837.418 140.093 836.996 144.137 837.588 146.341C837.882 147.496 838.416 148.279 838.822 148.743C839.262 149.181 839.527 149.368 839.54 149.349Z" fill="#1E2E35"/>
<path d="M749.183 137.497L791.989 139.431L787.581 151.237L741.167 147.184L749.183 137.497Z" fill="white"/>
<path d="M811.332 179.701C811.378 179.471 792.5 175.491 769.172 170.811C745.836 166.13 726.888 162.523 726.843 162.753C726.796 162.981 745.67 166.961 769.006 171.642C792.334 176.321 811.286 179.93 811.332 179.701Z" fill="#1E2E35"/>
<path d="M757.062 400.628L769.135 378.817L815.678 438.342L880.539 358.284L890.026 382.696L839.715 470.713L818.369 441.78L813.305 442.518L795.695 473.109L757.062 400.628Z" fill="#E1E1E1"/>
<path d="M857.697 444.267C857.746 444.304 857.245 445.079 856.313 446.474C855.383 447.868 854.038 449.891 852.433 452.439C849.215 457.527 845.018 464.778 841.162 473.295L840.821 474.047L840.373 473.346C839.946 472.679 839.491 471.966 839.031 471.247C833.561 462.976 827.961 455.907 824.195 450.583C822.293 447.934 820.799 445.755 819.811 444.222C818.823 442.686 818.319 441.811 818.367 441.779C818.422 441.743 819.025 442.552 820.099 444.023C821.279 445.607 822.831 447.69 824.706 450.206C828.597 455.426 834.274 462.428 839.785 470.755C840.246 471.48 840.705 472.2 841.134 472.872L840.346 472.924C844.239 464.363 848.554 457.124 851.918 452.104C853.597 449.591 855.023 447.616 856.039 446.279C857.057 444.943 857.651 444.234 857.697 444.267Z" fill="#1E2E35"/>
<path d="M910.3 219.435C910.34 219.402 910.803 219.846 911.523 220.754C912.246 221.658 913.175 223.071 914.055 224.958C915.828 228.674 917.155 234.635 915.586 240.897C913.994 247.155 909.995 251.771 906.67 254.202C905 255.445 903.511 256.245 902.446 256.699C901.382 257.157 900.763 257.327 900.744 257.279C900.663 257.113 903.111 256.258 906.279 253.701C909.422 251.205 913.186 246.686 914.715 240.677C916.222 234.665 915.054 228.902 913.472 225.213C911.899 221.458 910.15 219.543 910.3 219.435Z" fill="#3E5963"/>
<path d="M813.305 442.519C813.326 442.528 813.247 442.743 813.077 443.148C812.866 443.621 812.607 444.204 812.291 444.919C811.583 446.455 810.513 448.684 809.081 451.459C806.221 457.007 801.879 464.735 796.037 473.343L795.655 473.905L795.331 473.305C792.033 467.203 788.414 460.511 784.615 453.481C777.105 439.425 770.307 426.707 765.327 417.387C762.934 412.819 760.981 409.089 759.573 406.4C758.945 405.16 758.438 404.161 758.049 403.392C757.709 402.699 757.543 402.328 757.571 402.313C757.598 402.299 757.817 402.641 758.207 403.305C758.635 404.055 759.191 405.027 759.881 406.235C761.351 408.891 763.39 412.575 765.886 417.085C770.926 426.373 777.805 439.048 785.406 453.055C789.183 460.096 792.781 466.8 796.059 472.913L795.354 472.876C801.23 464.337 805.657 456.692 808.637 451.223C810.062 448.541 811.21 446.383 812.051 444.8C812.415 444.111 812.713 443.547 812.953 443.089C813.165 442.704 813.283 442.508 813.305 442.519Z" fill="#1E2E35"/>
<path d="M633.752 543.799L608.919 614.948L571.724 571.69L522.24 602.418L585.182 686.627C602.228 710.922 630.359 718.546 645.734 714.878C677.068 707.4 693.739 666.844 693.739 666.844L693.562 627.976L686.872 570.352L633.752 543.799Z" fill="#3E5963"/>
<path d="M634.69 470.714C634.69 470.714 730.294 574.575 749.898 593.606C759.258 602.693 779.024 614.865 779.024 614.865L749.382 618.314L634.69 470.714Z" fill="#E1E1E1"/>
<path d="M605.831 625.879C605.831 625.879 645.033 635 671.783 636.478C698.532 637.954 768.46 637.491 768.46 637.491L754.685 625.676L605.831 625.879Z" fill="black"/>
<path d="M628.126 457.326L456.731 453.127L605.83 625.879L764.042 630.188L628.126 457.326Z" fill="#1E2E35"/>
<path d="M554.273 521.5C554.466 516.859 550.289 513.191 545.656 513.524C543.132 513.704 539.833 514.019 535.785 514.564C525.324 515.972 494.694 532.297 494.066 538.503C493.145 547.607 497.856 550.955 497.856 550.955C497.856 550.955 492.048 559.207 494.508 565.793C496.616 571.437 505.817 573.1 505.817 573.1C505.817 573.1 499.305 581.212 506.492 586.589C508.982 588.453 513.988 592.029 515.157 593.252C515.157 593.252 516.236 596.753 517.222 598.044C520.497 602.321 525.46 604.965 530.838 605.276L532.593 605.379C535.974 605.575 539.297 604.5 541.917 602.353C553.769 592.647 587.272 564.575 587.712 557.083C587.712 557.083 594.101 551.761 591.334 546.489C588.566 541.219 578.877 543.879 578.877 543.879C578.877 543.879 583.485 540.12 581.037 534.584C578.589 529.047 561.244 530.115 553.39 531.405C547.141 532.432 529.713 535.859 529.713 535.859C529.713 535.859 552.761 527.093 554.013 523.075C554.169 522.572 554.25 522.043 554.273 521.5Z" fill="#FFC3A3"/>
<path d="M587.712 557.083C587.743 557.135 586.921 557.666 585.411 558.584C583.903 559.508 581.677 560.774 578.889 562.264C573.321 565.263 565.445 569.059 556.565 572.826C547.68 576.586 539.503 579.656 533.549 581.77C530.572 582.828 528.152 583.652 526.471 584.195C524.791 584.74 523.852 585.014 523.832 584.958C523.812 584.902 524.713 584.52 526.357 583.879C528.145 583.192 530.496 582.287 533.337 581.195C539.232 578.938 547.36 575.782 556.228 572.03C565.089 568.272 572.983 564.574 578.608 561.722C581.424 560.304 583.688 559.123 585.245 558.291C586.804 557.466 587.681 557.031 587.712 557.083Z" fill="#F69F75"/>
<path d="M579.939 543.639C579.95 543.698 579.046 543.92 577.407 544.271C575.774 544.651 573.405 545.166 570.509 545.924C564.701 547.395 556.806 549.878 548.171 552.906C543.857 554.434 539.703 555.783 536.026 557.222C532.339 558.656 529.079 560.102 526.367 561.367C523.653 562.632 521.498 563.742 520.01 564.511C518.521 565.282 517.705 565.722 517.67 565.664C517.654 565.639 517.839 565.498 518.207 565.25C518.573 564.999 519.125 564.65 519.845 564.218C521.287 563.355 523.409 562.159 526.101 560.818C528.79 559.475 532.041 557.966 535.733 556.48C539.431 554.988 543.571 553.618 547.889 552.088C556.531 549.058 564.495 546.654 570.363 545.331C573.29 544.644 575.687 544.22 577.343 543.94C579.007 543.691 579.929 543.58 579.939 543.639Z" fill="#F69F75"/>
<path d="M529.713 535.858C529.765 535.959 528.37 536.795 526.029 537.979C523.691 539.17 520.394 540.671 516.763 542.32C513.131 543.968 509.89 545.542 507.565 546.731C505.241 547.919 503.811 548.683 503.745 548.572C503.687 548.479 505.009 547.528 507.271 546.194C509.534 544.86 512.761 543.186 516.405 541.534C520.047 539.879 523.373 538.471 525.769 537.426C528.169 536.387 529.657 535.747 529.713 535.858Z" fill="#F69F75"/>
<path d="M577.203 571.087C577.245 571.126 576.696 571.798 575.649 572.967C574.593 574.126 573.028 575.77 571.02 577.727C567.029 581.669 561.164 586.735 554.863 592.473C553.296 593.905 551.812 595.387 550.257 596.698C548.711 598.011 547.144 599.193 545.593 600.231C542.484 602.305 539.384 603.725 536.655 604.49C533.929 605.279 531.603 605.399 530.032 605.306C529.241 605.302 528.637 605.17 528.228 605.115C527.819 605.047 527.607 604.998 527.612 604.969C527.621 604.883 528.485 604.995 530.037 604.969C531.584 604.958 533.843 604.749 536.48 603.903C539.121 603.083 542.12 601.642 545.148 599.57C546.66 598.533 548.189 597.358 549.707 596.055C551.224 594.759 552.691 593.287 554.276 591.837C560.605 586.075 566.512 581.101 570.599 577.283C572.655 575.39 574.28 573.818 575.408 572.733C576.525 571.641 577.157 571.046 577.203 571.087Z" fill="#F69F75"/>
<path d="M578.999 451.352L503.767 450.405C502.213 450.385 501.359 452.207 502.369 453.388L518.761 472.571L593.015 474.821C594.483 474.824 595.343 473.167 594.495 471.968L580.454 452.116C580.119 451.643 579.578 451.359 578.999 451.352Z" fill="#E1E1E1"/>
<path d="M579.065 452.187C579.04 452.184 579.014 452.183 578.989 452.182L503.756 451.234C503.361 451.228 503.025 451.44 502.858 451.796C502.69 452.156 502.744 452.548 503 452.851L519.152 471.752L593.04 473.992C593.389 473.991 593.714 473.795 593.886 473.462C594.058 473.131 594.033 472.751 593.817 472.446L579.776 452.595C579.61 452.362 579.349 452.212 579.065 452.187ZM518.368 473.39L501.738 453.928C501.056 453.13 500.909 452.043 501.354 451.094C501.8 450.142 502.728 449.56 503.777 449.575L579.01 450.522C579.85 450.524 580.646 450.95 581.132 451.638L595.173 471.488C595.745 472.298 595.818 473.346 595.361 474.226C594.904 475.107 594.005 475.652 593.014 475.652L518.368 473.39Z" fill="#1E2E35"/>
<path d="M642.512 663.646C642.315 663.629 643.094 659.905 642.632 653.889C642.211 647.926 640.166 639.581 634.932 632.01C629.69 624.444 622.599 619.59 617.167 617.094C611.699 614.544 607.94 613.961 607.994 613.769C608 613.738 608.234 613.761 608.676 613.833C609.115 613.914 609.775 613.997 610.598 614.212C612.258 614.585 614.63 615.298 617.43 616.516C623.006 618.896 630.314 623.764 635.671 631.5C641.02 639.237 643.003 647.789 643.267 653.846C643.419 656.896 643.251 659.368 643.016 661.053C642.927 661.898 642.771 662.545 642.694 662.985C642.604 663.424 642.543 663.652 642.512 663.646Z" fill="#1E2E35"/>
<path d="M897.594 525.54C897.594 525.54 935.15 618.52 952.176 652.073C969.817 686.841 996.041 745.089 1048.58 714.639C1091.57 689.72 1052.63 558.887 1052.63 558.887L1013.94 576.355L956.721 484.811L897.594 525.54Z" fill="#3E5963"/>
<path d="M919.694 375.849C918.778 373.045 915.61 371.689 912.945 372.951C908.961 374.841 903.087 379.329 901.699 389.617C899.549 405.545 902.517 416.789 898.785 420.957C895.053 425.126 848.234 428.435 844.611 435.273C841.118 441.866 843.182 447.813 843.025 451.182C842.969 452.393 842.465 453.517 841.617 454.383C839.49 456.558 835.894 461.47 839.337 467.377C840.205 468.867 840.282 470.663 839.515 472.21C838.145 474.975 837.061 479.757 841.887 484.695C842.337 485.155 842.727 485.678 842.979 486.269C844.383 489.547 849.853 501.194 857.657 503.579C864.43 505.649 872.135 505.663 875.638 505.535C876.866 505.489 878.059 505.914 878.986 506.721C882.935 510.155 896.049 518.539 899.933 523.617C899.933 523.617 948.269 489.834 951.294 488.238C951.294 488.238 929.514 455.006 928.419 439.767C927.254 423.531 917.029 404.59 919.782 389.363C920.986 382.709 920.558 378.49 919.694 375.849Z" fill="#FFC3A3"/>
<path d="M897.594 525.54C897.587 525.53 897.677 525.454 897.858 525.314C898.075 525.153 898.345 524.954 898.677 524.706C899.454 524.152 900.527 523.385 901.895 522.408C904.773 520.39 908.89 517.505 914.054 513.885C924.542 506.612 939.275 496.394 956.481 484.462L956.837 484.216L957.075 484.581C963.302 494.153 970.051 504.684 977.01 515.714C992.899 541.181 1007.28 564.23 1017.73 580.972C1022.95 589.261 1027.18 595.986 1030.15 600.693C1031.58 602.985 1032.71 604.785 1033.51 606.062C1033.87 606.648 1034.15 607.112 1034.37 607.47C1034.56 607.79 1034.65 607.958 1034.64 607.966C1034.62 607.976 1034.51 607.824 1034.29 607.52C1034.06 607.174 1033.75 606.725 1033.36 606.16C1032.53 604.904 1031.35 603.136 1029.85 600.882C1026.83 596.285 1022.49 589.606 1017.19 581.312C1006.56 564.741 992.257 541.612 976.25 516.194C969.294 505.166 962.562 494.629 956.366 485.041L956.959 485.158C939.681 496.982 924.882 507.108 914.35 514.314C909.127 517.849 904.963 520.668 902.053 522.637C900.651 523.568 899.554 524.296 898.758 524.824C898.409 525.048 898.127 525.228 897.899 525.373C897.703 525.493 897.601 525.55 897.594 525.54Z" fill="#1E2E35"/>
<path d="M1058.44 625.147C1058.39 625.175 1058.06 624.62 1057.51 623.599C1056.88 622.398 1056.12 620.952 1055.23 619.26C1053.29 615.623 1050.59 610.552 1046.56 605.743C1042.54 600.936 1037.76 597.659 1033.98 596.1C1030.2 594.494 1027.59 594.34 1027.62 594.159C1027.63 594.108 1028.28 594.102 1029.43 594.254C1030.59 594.398 1032.26 594.771 1034.22 595.512C1038.15 596.954 1043.14 600.248 1047.25 605.163C1051.35 610.075 1053.99 615.252 1055.8 618.975C1056.69 620.846 1057.37 622.38 1057.83 623.448C1058.28 624.516 1058.5 625.12 1058.44 625.147Z" fill="#1E2E35"/>
</svg>
