<svg width="152" height="32" viewBox="0 0 152 32" fill="none" xmlns="http://www.w3.org/2000/svg">
<path d="M5.59039 15.6897H12.1391C11.6495 14.0706 10.4827 13.1971 8.79892 13.1971C7.17261 13.1971 6.04201 14.0805 5.59039 15.6897ZM17.6361 17.3024C17.6361 17.7906 17.5934 18.2784 17.5209 18.7796H5.49193C5.85706 20.6377 7.03722 21.5987 8.79926 21.5987C10.1025 21.5987 11.1917 21.0278 11.7281 20.0794H17.2806C16.1404 23.7765 12.8635 26.0866 8.79926 26.0866C3.74459 26.0866 0 22.3919 0 17.4432C0 12.4767 3.71451 8.8248 8.79926 8.8248C14.0208 8.8248 17.6361 12.5503 17.6361 17.3017V17.3024Z" fill="#2A5FBA"/>
<path d="M39.247 8.8767C42.717 8.8767 45.0234 11.5803 45.0234 15.3946V25.5552H39.4436V16.0849C39.4436 14.3929 38.8207 13.5765 37.635 13.5765C36.1014 13.5765 35.3154 14.6329 35.3154 16.6729V25.5552H29.8809V16.0849C29.8809 14.4438 29.2628 13.5765 28.0946 13.5765C26.5818 13.5765 25.7527 14.6582 25.7527 16.6729V25.5552H20.1729V9.35567H24.0966L24.8908 11.0962C26.0614 9.73242 27.7602 8.8767 29.6262 8.8767C31.6012 8.8767 33.2638 9.76354 34.2723 11.2616C35.4361 9.79601 37.2299 8.8767 39.247 8.8767Z" fill="#2A5FBA"/>
<path d="M60.687 17.4551C60.687 15.3269 59.1506 13.7477 57.0607 13.7477C54.9705 13.7477 53.4344 15.3269 53.4344 17.4551C53.4344 19.5833 54.9705 21.1624 57.0607 21.1624C59.138 21.1624 60.687 19.5833 60.687 17.4551ZM66.3014 17.4554C66.3014 22.5025 62.7605 26.1032 57.8071 26.1032C56.3421 26.1032 55.0013 25.7179 53.858 25.0273V31.4051H48.3418V9.35562H52.1363L52.8355 10.6428C54.1678 9.49066 55.8819 8.82468 57.8071 8.82468C62.7605 8.82468 66.3014 12.4083 66.3014 17.4554Z" fill="#2A5FBA"/>
<path d="M79.4095 9.27841V14.3847H77.2434C75.2676 14.3847 74.4403 15.251 74.4403 17.3173V25.5552H68.8605V9.35568H72.5989L73.4694 11.1533C74.6119 9.83191 76.0034 9.27841 77.9316 9.27841H79.4095Z" fill="#2A5FBA"/>
<path d="M85.8969 15.6897H92.4456C91.956 14.0706 90.7892 13.1971 89.1054 13.1971C87.4791 13.1971 86.3485 14.0805 85.8969 15.6897ZM97.9427 17.3024C97.9427 17.7906 97.8999 18.2784 97.8274 18.7796H85.7985C86.1636 20.6377 87.3437 21.5987 89.1058 21.5987C90.409 21.5987 91.4982 21.0278 92.0343 20.0794H97.5871C96.4469 23.7765 93.17 26.0866 89.1058 26.0866C84.0511 26.0866 80.3065 22.3919 80.3065 17.4432C80.3065 12.4767 84.021 8.8248 89.1058 8.8248C94.3273 8.8248 97.9427 12.5503 97.9427 17.3017V17.3024Z" fill="#2A5FBA"/>
<path d="M108.57 20.5331C110.574 20.5331 112.016 19.0483 112.016 16.9847C112.016 14.9386 110.578 13.4538 108.57 13.4538C106.567 13.4538 105.112 14.9386 105.112 16.9847C105.112 19.0483 106.549 20.5331 108.57 20.5331H108.57ZM117.233 9.35603V23.7556C117.233 28.8462 113.901 32 108.55 32C103.953 32 100.735 29.6817 99.9895 25.8428H105.374C105.761 26.9255 107.143 27.5091 108.498 27.5091C110.369 27.5091 111.871 26.3207 111.871 24.3946V23.9108C110.653 24.6838 109.208 25.1272 107.644 25.1272C102.999 25.1272 99.5484 21.6719 99.5484 16.9847C99.5484 12.3656 102.999 8.83775 107.644 8.83775C109.605 8.83775 111.38 9.54065 112.753 10.715L113.461 9.35569L117.233 9.35603Z" fill="#2A5FBA"/>
<path d="M1.6261 3.55857H2.92798C3.20319 3.55857 3.44831 3.49772 3.66404 3.37669C3.87942 3.25533 4.04797 3.08678 4.16934 2.87105C4.2907 2.65533 4.35122 2.4102 4.35122 2.13533C4.35122 1.84952 4.2907 1.59892 4.16934 1.3832C4.04797 1.16747 3.87942 0.997902 3.66404 0.873459C3.44831 0.749699 3.20319 0.687819 2.92798 0.687819H1.6261V3.55857ZM1.31089 6.39719C1.21893 6.39719 1.14371 6.36744 1.08423 6.30796C1.02508 6.24881 0.995338 6.17326 0.995338 6.08163V0.396539C0.995338 0.304916 1.02508 0.22936 1.08423 0.170215C1.14371 0.11107 1.21893 0.0813275 1.31089 0.0813275H2.92798C3.32695 0.0813275 3.68011 0.168848 3.98746 0.343889C4.29481 0.519273 4.53446 0.760297 4.70711 1.06765C4.87976 1.37499 4.96591 1.73089 4.96591 2.13533C4.96591 2.52883 4.87976 2.87789 4.70711 3.1825C4.53446 3.48712 4.29481 3.72712 3.98746 3.90216C3.68011 4.07754 3.32695 4.16506 2.92798 4.16506H1.6261V6.08163C1.6261 6.17326 1.59636 6.24881 1.53722 6.30796C1.47773 6.36744 1.40217 6.39719 1.31089 6.39719Z" fill="#2A5FBA"/>
<path d="M10.8047 5.87928C11.1767 5.87928 11.5216 5.8133 11.8399 5.68134C12.1579 5.54937 12.4341 5.36305 12.6686 5.12339C12.9032 4.88339 13.0854 4.60305 13.2146 4.28237C13.3439 3.96135 13.4088 3.61229 13.4088 3.23485C13.4088 2.86289 13.3439 2.51657 13.2146 2.19589C13.0854 1.8752 12.9032 1.59452 12.6686 1.35487C12.4341 1.11487 12.1579 0.928885 11.8399 0.796578C11.5216 0.664613 11.1767 0.598631 10.8047 0.598631C10.4273 0.598631 10.0796 0.664613 9.76166 0.796578C9.44337 0.928885 9.16713 1.11487 8.9326 1.35487C8.69807 1.59452 8.51619 1.8752 8.38662 2.19589C8.25739 2.51657 8.19278 2.86289 8.19278 3.23485C8.19278 3.61229 8.25739 3.96135 8.38662 4.28237C8.51619 4.60305 8.69807 4.88339 8.9326 5.12339C9.16713 5.36305 9.44337 5.54937 9.76166 5.68134C10.0796 5.8133 10.4273 5.87928 10.8047 5.87928ZM10.8047 6.47757C10.3357 6.47757 9.90422 6.39689 9.51072 6.23518C9.11722 6.07347 8.77602 5.8468 8.48782 5.55587C8.19927 5.26459 7.97568 4.92237 7.81671 4.52886C7.65739 4.13536 7.57808 3.70391 7.57808 3.23485C7.57808 2.77127 7.65739 2.34255 7.81671 1.94905C7.97568 1.55555 8.19927 1.21333 8.48782 0.922048C8.77602 0.630767 9.11722 0.404444 9.51072 0.242736C9.90422 0.0810274 10.3357 1.91827e-06 10.8047 1.91827e-06C11.2683 1.91827e-06 11.697 0.0810274 12.0905 0.242736C12.484 0.404444 12.8263 0.630767 13.1175 0.922048C13.4088 1.21333 13.6338 1.55555 13.7927 1.94905C13.9517 2.34255 14.0314 2.77127 14.0314 3.23485C14.0314 3.70391 13.9517 4.13536 13.7927 4.52886C13.6338 4.92237 13.4088 5.26459 13.1175 5.55587C12.8263 5.8468 12.484 6.07347 12.0905 6.23518C11.697 6.39689 11.2683 6.47757 10.8047 6.47757Z" fill="#2A5FBA"/>
<path d="M20.97 6.39694C20.8999 6.39694 20.8445 6.38361 20.8042 6.35626C20.7638 6.32959 20.7273 6.28925 20.6951 6.23523L19.1423 3.76072L19.7731 3.59867L21.2206 5.91182C21.3016 6.04105 21.3163 6.15421 21.265 6.2513C21.2137 6.3484 21.1156 6.39694 20.97 6.39694ZM17.905 3.31593H19.102C19.3768 3.31593 19.6206 3.26055 19.8339 3.14978C20.0466 3.0397 20.2151 2.88722 20.3392 2.69303C20.463 2.49919 20.5252 2.27799 20.5252 2.03013C20.5252 1.76586 20.463 1.53236 20.3392 1.33065C20.2151 1.12826 20.0466 0.970308 19.8339 0.857146C19.6206 0.743984 19.3768 0.687574 19.102 0.687574H17.905V3.31593ZM17.5895 6.39694C17.4979 6.39694 17.4223 6.36754 17.3632 6.30805C17.3037 6.24857 17.2743 6.17335 17.2743 6.08139V0.396294C17.2743 0.304671 17.3037 0.229116 17.3632 0.169971C17.4223 0.110826 17.4979 0.0810822 17.5895 0.0810822H19.102C19.4955 0.0810822 19.8459 0.163475 20.1532 0.327577C20.4606 0.492362 20.7016 0.721079 20.877 1.01509C21.052 1.30911 21.1399 1.64723 21.1399 2.03013C21.1399 2.39662 21.052 2.72278 20.877 3.00859C20.7016 3.2944 20.4606 3.51799 20.1532 3.67969C19.8459 3.8414 19.4955 3.92243 19.102 3.92243H17.905V6.08139C17.905 6.17335 17.8753 6.24857 17.8162 6.30805C17.7567 6.36754 17.6811 6.39694 17.5895 6.39694Z" fill="#2A5FBA"/>
<path d="M26.0483 6.39694C25.9618 6.39694 25.888 6.36583 25.8261 6.30395C25.7639 6.24207 25.7331 6.16788 25.7331 6.08139V0.0810822H26.3635V6.08139C26.3635 6.16788 26.3341 6.24207 26.2746 6.30395C26.2152 6.36583 26.1399 6.39694 26.0483 6.39694ZM23.8162 0.655096C23.73 0.655096 23.66 0.628088 23.6059 0.574413C23.5523 0.520396 23.5253 0.453046 23.5253 0.372021C23.5253 0.285868 23.5523 0.215782 23.6059 0.161765C23.66 0.108091 23.73 0.0810822 23.8162 0.0810822H28.2883C28.3745 0.0810822 28.4445 0.108091 28.4986 0.161765C28.5526 0.215782 28.5796 0.285868 28.5796 0.372021C28.5796 0.453046 28.5526 0.520396 28.4986 0.574413C28.4445 0.628088 28.3745 0.655096 28.2883 0.655096H23.8162Z" fill="#2A5FBA"/>
<path d="M30.9895 4.89268L31.2322 4.3508H34.5153L34.758 4.89268H30.9895ZM30.4558 6.39694C30.3317 6.39694 30.2428 6.34566 30.1888 6.2431C30.1351 6.14088 30.1297 6.04105 30.1727 5.94395L32.5502 0.299201C32.6096 0.153902 32.7119 0.0810822 32.8575 0.0810822C32.9977 0.0810822 33.0975 0.153902 33.157 0.299201L35.5426 5.95216C35.5912 6.05438 35.584 6.15421 35.5221 6.2513C35.4602 6.3484 35.3727 6.39694 35.2595 6.39694C35.1946 6.39694 35.1368 6.38087 35.0855 6.3484C35.0342 6.31592 34.9925 6.26737 34.9601 6.20276L32.7361 0.808942H32.9871L30.7471 6.20276C30.7197 6.26737 30.6808 6.31592 30.6298 6.3484C30.5782 6.38087 30.5204 6.39694 30.4558 6.39694Z" fill="#2A5FBA"/>
<path d="M38.7448 6.39694C38.6583 6.39694 38.5841 6.36754 38.5223 6.30805C38.4604 6.24857 38.4293 6.17335 38.4293 6.08139V0.396294C38.4293 0.310141 38.4604 0.235953 38.5223 0.174074C38.5841 0.112194 38.6583 0.0810822 38.7448 0.0810822C38.831 0.0810822 38.9052 0.112194 38.967 0.174074C39.0293 0.235953 39.06 0.310141 39.06 0.396294V5.79866H42.2221C42.3082 5.79866 42.3824 5.82703 42.4446 5.88344C42.5065 5.93985 42.5376 6.01165 42.5376 6.0978C42.5376 6.18395 42.5065 6.2554 42.4446 6.31181C42.3824 6.36857 42.3082 6.39694 42.2221 6.39694H38.7448Z" fill="#2A5FBA"/>
<path d="M130.522 14.3065C130.286 15.6269 129.979 16.7934 129.603 17.8063C129.037 19.3151 128.129 20.5523 126.88 21.5185C126.527 21.7779 126.203 21.9779 125.909 22.1195C125.613 22.261 125.277 22.3314 124.901 22.3314C124.429 22.3314 123.993 22.1903 123.593 21.9072C123.192 21.6244 122.933 21.2477 122.815 20.7759C122.674 20.234 122.603 19.7038 122.603 19.1851C122.603 18.9728 122.626 18.6788 122.674 18.3014C122.862 16.9817 123.31 15.8505 124.017 14.9076C125.078 13.4703 126.539 12.6098 128.401 12.3267C128.518 12.3038 128.684 12.2915 128.896 12.2915C129.367 12.2915 130.003 12.3975 130.805 12.6098L130.522 14.3065ZM134.497 18.726C134.344 18.6884 134.192 18.6494 134.041 18.6087C133.14 18.3646 132.41 17.7875 132.04 17.0255C131.71 16.3472 131.69 15.5923 131.984 14.9C132.399 13.9202 133.365 13.246 134.514 13.0983L134.517 12.857C134.517 12.7158 134.504 12.5452 134.481 12.3445C134.458 12.1445 134.458 11.9855 134.481 11.8672C134.504 11.231 134.269 10.7007 133.774 10.2765C133.302 9.87614 132.784 9.56947 132.219 9.35717C131.441 9.07443 130.628 8.89768 129.779 8.82691C129.567 8.80366 129.272 8.7917 128.896 8.7917C126.397 8.7917 124.205 9.69904 122.32 11.5137C120.152 13.6115 119.068 16.1571 119.068 19.1499C119.068 19.6446 119.103 20.1633 119.174 20.7051C119.409 22.3082 120.058 23.5574 121.118 24.4528C122.226 25.4193 123.487 25.902 124.901 25.902C125.984 25.902 126.998 25.6193 127.941 25.0538C128.648 24.6292 129.367 24.0761 130.098 23.392C130.239 23.2508 130.386 23.1215 130.54 23.0032C130.692 22.8856 130.84 22.7557 130.981 22.6142L131.052 24.2405C131.052 24.3349 131.058 24.4528 131.07 24.594C131.081 24.7355 131.111 24.9007 131.158 25.089C131.252 25.4665 131.459 25.7783 131.777 26.0258C132.095 26.2733 132.466 26.3971 132.89 26.3971C133.291 26.3971 133.645 26.2678 133.951 26.0083C134.257 25.7492 134.458 25.4193 134.552 25.0183C134.575 24.8538 134.587 24.6063 134.587 24.2761L134.552 21.766C134.527 20.6067 134.509 19.5947 134.497 18.726Z" fill="#4095D9"/>
<path d="M151.635 14.1929C151.225 13.2701 149.957 12.7867 148.802 13.1136L148.673 13.1501C147.724 13.4185 146.645 13.6561 145.538 13.8435C145.094 13.9146 144.645 13.9864 144.192 14.0462C144.076 13.2609 143.953 12.4773 143.817 11.6948C143.623 10.5686 143.407 9.44965 143.141 8.31359C142.978 7.61684 142.475 7.12009 141.895 7.14642C141.2 7.17787 140.657 7.94402 140.681 8.85752L140.681 8.8876L140.769 12.2243L140.832 14.3724L140.824 14.373L140.388 14.3929C140.098 14.41 139.807 14.4271 139.516 14.4312C139.226 14.4359 138.934 14.4537 138.645 14.453C137.482 14.4712 136.323 14.4455 135.166 14.3884L135.11 14.385C134.275 14.344 133.476 14.7505 133.195 15.4137C132.858 16.2079 133.39 17.0698 134.385 17.3388C135.706 17.6968 137.07 17.9026 138.434 18.0154C138.775 18.0513 139.116 18.0653 139.458 18.0817C139.801 18.1016 140.142 18.1081 140.485 18.1135C140.64 18.1176 140.796 18.1183 140.952 18.1173L140.979 18.9316L141.039 20.5771C141.047 20.8431 141.063 21.1197 141.068 21.3723L141.086 22.0995L141.088 22.2144C141.124 23.5949 141.992 24.692 143.048 24.6769C144.119 24.6615 144.977 23.5077 144.965 22.0995L144.961 21.5973L144.943 21.1296C144.932 20.8168 144.914 20.5286 144.896 20.2294L144.83 19.3539L144.75 18.4893C144.729 18.2872 144.708 18.0855 144.686 17.8841C145.332 17.8007 145.978 17.7074 146.62 17.574C147.975 17.3019 149.327 16.9344 150.657 16.3183C151.563 15.8988 151.997 15.0103 151.635 14.1929Z" fill="#4095D9"/>
</svg>
